<svg width="19" height="19" viewBox="0 0 19 19" fill="none" xmlns="http://www.w3.org/2000/svg">
<path fill-rule="evenodd" clip-rule="evenodd" d="M8.98522 0.0461165C8.98522 0.072449 8.84483 0.092233 8.65763 0.092233C8.47044 0.092233 8.33005 0.112017 8.33005 0.13835C8.33005 0.163714 8.22475 0.184466 8.09606 0.184466C7.96736 0.184466 7.86207 0.205218 7.86207 0.230583C7.86207 0.255947 7.79889 0.276699 7.72167 0.276699C7.64446 0.276699 7.58128 0.297451 7.58128 0.322816C7.58128 0.34818 7.5181 0.368932 7.44089 0.368932C7.36367 0.368932 7.30049 0.389684 7.30049 0.415049C7.30049 0.440413 7.25837 0.461165 7.2069 0.461165C7.15542 0.461165 7.1133 0.481917 7.1133 0.507282C7.1133 0.532646 7.05012 0.553398 6.97291 0.553398C6.89569 0.553398 6.83251 0.574151 6.83251 0.599515C6.83251 0.624879 6.79503 0.645631 6.74926 0.645631C6.70344 0.645631 6.63563 0.687136 6.59852 0.737864C6.56141 0.788592 6.49823 0.830097 6.45813 0.830097C6.41802 0.830097 6.35484 0.871602 6.31773 0.92233C6.28062 0.973058 6.21745 1.01456 6.17734 1.01456C6.13723 1.01456 6.07406 1.05607 6.03695 1.1068C5.99984 1.15752 5.94223 1.19903 5.90895 1.19903C5.83515 1.19903 5.05419 1.96101 5.05419 2.03305C5.05419 2.06127 4.99101 2.14253 4.91379 2.21359C4.83658 2.28466 4.7734 2.37145 4.7734 2.40636C4.7734 2.44132 4.73128 2.49984 4.6798 2.53641C4.62832 2.57298 4.58621 2.63524 4.58621 2.67476C4.58621 2.71428 4.54409 2.77654 4.49261 2.81311C4.44113 2.84968 4.39901 2.9165 4.39901 2.96165C4.39901 3.00675 4.37796 3.04369 4.35222 3.04369C4.32648 3.04369 4.30542 3.08519 4.30542 3.13592C4.30542 3.18665 4.28436 3.22816 4.25862 3.22816C4.23288 3.22816 4.21182 3.26966 4.21182 3.32039C4.21182 3.37112 4.19076 3.41262 4.16502 3.41262C4.13929 3.41262 4.11823 3.45413 4.11823 3.50485C4.11823 3.55558 4.09717 3.59709 4.07143 3.59709C4.04569 3.59709 4.02463 3.63859 4.02463 3.68932C4.02463 3.74005 4.00357 3.78155 3.97783 3.78155C3.95209 3.78155 3.93103 3.84381 3.93103 3.9199C3.93103 3.996 3.90998 4.05825 3.88424 4.05825C3.8585 4.05825 3.83744 4.09976 3.83744 4.15049C3.83744 4.20121 3.81638 4.24272 3.79064 4.24272C3.7649 4.24272 3.74384 4.30498 3.74384 4.38107C3.74384 4.45716 3.72278 4.51942 3.69704 4.51942C3.67131 4.51942 3.65025 4.58167 3.65025 4.65777C3.65025 4.73386 3.62919 4.79612 3.60345 4.79612C3.57771 4.79612 3.55665 4.87913 3.55665 4.98058C3.55665 5.08204 3.53559 5.16505 3.50985 5.16505C3.48411 5.16505 3.46305 5.24806 3.46305 5.34951C3.46305 5.45097 3.44199 5.53398 3.41626 5.53398C3.39052 5.53398 3.36946 5.61699 3.36946 5.71845C3.36946 5.8199 3.3484 5.90291 3.32266 5.90291C3.29692 5.90291 3.27586 5.98592 3.27586 6.08738V6.27184H1.63793H0V12.6359V19H9.5H19V12.6359V6.27184H17.3621H15.7241V6.08738C15.7241 5.98592 15.7031 5.90291 15.6773 5.90291C15.6516 5.90291 15.6305 5.8199 15.6305 5.71845C15.6305 5.61699 15.6095 5.53398 15.5837 5.53398C15.558 5.53398 15.5369 5.45097 15.5369 5.34951C15.5369 5.24806 15.5159 5.16505 15.4901 5.16505C15.4644 5.16505 15.4433 5.08204 15.4433 4.98058C15.4433 4.87913 15.4223 4.79612 15.3966 4.79612C15.3708 4.79612 15.3498 4.73386 15.3498 4.65777C15.3498 4.58167 15.3287 4.51942 15.303 4.51942C15.2772 4.51942 15.2562 4.45716 15.2562 4.38107C15.2562 4.30498 15.2351 4.24272 15.2094 4.24272C15.1836 4.24272 15.1626 4.20121 15.1626 4.15049C15.1626 4.09976 15.1415 4.05825 15.1158 4.05825C15.09 4.05825 15.069 3.996 15.069 3.9199C15.069 3.84381 15.0479 3.78155 15.0222 3.78155C14.9964 3.78155 14.9754 3.74005 14.9754 3.68932C14.9754 3.63859 14.9543 3.59709 14.9286 3.59709C14.9028 3.59709 14.8818 3.55558 14.8818 3.50485C14.8818 3.45413 14.8607 3.41262 14.835 3.41262C14.8092 3.41262 14.7882 3.37112 14.7882 3.32039C14.7882 3.26966 14.7671 3.22816 14.7414 3.22816C14.7156 3.22816 14.6946 3.18665 14.6946 3.13592C14.6946 3.08519 14.6735 3.04369 14.6478 3.04369C14.622 3.04369 14.601 3.00675 14.601 2.96165C14.601 2.9165 14.5589 2.84968 14.5074 2.81311C14.4559 2.77654 14.4138 2.71428 14.4138 2.67476C14.4138 2.63524 14.3717 2.57298 14.3202 2.53641C14.2687 2.49984 14.2266 2.44132 14.2266 2.40636C14.2266 2.37145 14.1634 2.28466 14.0862 2.21359C14.009 2.14253 13.9458 2.06127 13.9458 2.03305C13.9458 1.96604 13.1675 1.19903 13.0995 1.19903C13.0708 1.19903 12.9884 1.13677 12.9163 1.06068C12.8441 0.984587 12.7514 0.92233 12.7103 0.92233C12.6691 0.92233 12.6355 0.901578 12.6355 0.876214C12.6355 0.85085 12.598 0.830097 12.5522 0.830097C12.5064 0.830097 12.4386 0.788592 12.4015 0.737864C12.3644 0.687136 12.2966 0.645631 12.2507 0.645631C12.205 0.645631 12.1675 0.624879 12.1675 0.599515C12.1675 0.574151 12.1043 0.553398 12.0271 0.553398C11.9499 0.553398 11.8867 0.532646 11.8867 0.507282C11.8867 0.481917 11.8446 0.461165 11.7931 0.461165C11.7416 0.461165 11.6995 0.440413 11.6995 0.415049C11.6995 0.389684 11.6363 0.368932 11.5591 0.368932C11.4819 0.368932 11.4187 0.34818 11.4187 0.322816C11.4187 0.297451 11.3555 0.276699 11.2783 0.276699C11.2011 0.276699 11.1379 0.255947 11.1379 0.230583C11.1379 0.205218 11.0326 0.184466 10.9039 0.184466C10.7752 0.184466 10.67 0.163714 10.67 0.13835C10.67 0.112017 10.5296 0.092233 10.3424 0.092233C10.1552 0.092233 10.0148 0.072449 10.0148 0.0461165C10.0148 0.0181699 9.812 0 9.5 0C9.188 0 8.98522 0.0181699 8.98522 0.0461165ZM10.1084 1.33738C10.1084 1.36302 10.2332 1.3835 10.3892 1.3835C10.5451 1.3835 10.67 1.40397 10.67 1.42961C10.67 1.45498 10.7542 1.47573 10.8571 1.47573C10.9601 1.47573 11.0443 1.49648 11.0443 1.52184C11.0443 1.54721 11.0865 1.56796 11.1379 1.56796C11.1894 1.56796 11.2315 1.58871 11.2315 1.61408C11.2315 1.63944 11.2947 1.66019 11.3719 1.66019C11.4491 1.66019 11.5123 1.68095 11.5123 1.70631C11.5123 1.73167 11.5498 1.75243 11.5956 1.75243C11.6414 1.75243 11.7092 1.79393 11.7463 1.84466C11.7834 1.89539 11.8466 1.93689 11.8867 1.93689C11.9268 1.93689 11.99 1.9784 12.0271 2.02913C12.0642 2.07985 12.1218 2.12136 12.155 2.12136C12.2339 2.12136 13.1034 2.97825 13.1034 3.05596C13.1034 3.08875 13.1456 3.14547 13.197 3.18204C13.2485 3.21861 13.2906 3.28087 13.2906 3.32039C13.2906 3.35991 13.3328 3.42217 13.3842 3.45874C13.4357 3.49531 13.4778 3.56213 13.4778 3.60728C13.4778 3.65238 13.4989 3.68932 13.5246 3.68932C13.5504 3.68932 13.5714 3.73083 13.5714 3.78155C13.5714 3.83228 13.5925 3.87379 13.6182 3.87379C13.644 3.87379 13.665 3.91529 13.665 3.96602C13.665 4.01675 13.6861 4.05825 13.7118 4.05825C13.7376 4.05825 13.7586 4.09976 13.7586 4.15049C13.7586 4.20121 13.7797 4.24272 13.8054 4.24272C13.8312 4.24272 13.8522 4.28422 13.8522 4.33495C13.8522 4.38568 13.8733 4.42718 13.899 4.42718C13.9248 4.42718 13.9458 4.48944 13.9458 4.56553C13.9458 4.64163 13.9669 4.70388 13.9926 4.70388C14.0183 4.70388 14.0394 4.76614 14.0394 4.84223C14.0394 4.91833 14.0605 4.98058 14.0862 4.98058C14.1119 4.98058 14.133 5.04284 14.133 5.11893C14.133 5.19502 14.1541 5.25728 14.1798 5.25728C14.2055 5.25728 14.2266 5.34029 14.2266 5.44175C14.2266 5.5432 14.2477 5.62621 14.2734 5.62621C14.2991 5.62621 14.3202 5.70922 14.3202 5.81068C14.3202 5.91214 14.3413 5.99515 14.367 5.99515C14.3927 5.99515 14.4138 6.0574 14.4138 6.1335V6.27184H9.5H4.58621V6.1335C4.58621 6.0574 4.60727 5.99515 4.633 5.99515C4.65874 5.99515 4.6798 5.91214 4.6798 5.81068C4.6798 5.70922 4.70086 5.62621 4.7266 5.62621C4.75234 5.62621 4.7734 5.5432 4.7734 5.44175C4.7734 5.34029 4.79446 5.25728 4.8202 5.25728C4.84594 5.25728 4.86699 5.19502 4.86699 5.11893C4.86699 5.04284 4.88805 4.98058 4.91379 4.98058C4.93953 4.98058 4.96059 4.91833 4.96059 4.84223C4.96059 4.76614 4.98165 4.70388 5.00739 4.70388C5.03313 4.70388 5.05419 4.64163 5.05419 4.56553C5.05419 4.48944 5.07525 4.42718 5.10099 4.42718C5.12672 4.42718 5.14778 4.38568 5.14778 4.33495C5.14778 4.28422 5.16884 4.24272 5.19458 4.24272C5.22032 4.24272 5.24138 4.20121 5.24138 4.15049C5.24138 4.09976 5.26244 4.05825 5.28818 4.05825C5.31392 4.05825 5.33498 4.01675 5.33498 3.96602C5.33498 3.91529 5.35603 3.87379 5.38177 3.87379C5.40751 3.87379 5.42857 3.83228 5.42857 3.78155C5.42857 3.73083 5.44963 3.68932 5.47537 3.68932C5.50111 3.68932 5.52217 3.65238 5.52217 3.60728C5.52217 3.56213 5.56429 3.49531 5.61576 3.45874C5.66724 3.42217 5.70936 3.35991 5.70936 3.32039C5.70936 3.28087 5.75148 3.21861 5.80296 3.18204C5.85443 3.14547 5.89655 3.08875 5.89655 3.05596C5.89655 2.97825 6.76611 2.12136 6.84496 2.12136C6.87823 2.12136 6.9358 2.07985 6.97291 2.02913C7.01002 1.9784 7.07319 1.93689 7.1133 1.93689C7.15341 1.93689 7.21658 1.89539 7.25369 1.84466C7.29081 1.79393 7.35862 1.75243 7.40443 1.75243C7.4502 1.75243 7.48768 1.73167 7.48768 1.70631C7.48768 1.68095 7.55086 1.66019 7.62808 1.66019C7.7053 1.66019 7.76847 1.63944 7.76847 1.61408C7.76847 1.58871 7.83165 1.56796 7.90887 1.56796C7.98608 1.56796 8.04926 1.54721 8.04926 1.52184C8.04926 1.49648 8.11244 1.47573 8.18966 1.47573C8.26687 1.47573 8.33005 1.45498 8.33005 1.42961C8.33005 1.40397 8.45486 1.3835 8.61084 1.3835C8.76682 1.3835 8.89163 1.36302 8.89163 1.33738C8.89163 1.30902 9.12562 1.29126 9.5 1.29126C9.87438 1.29126 10.1084 1.30902 10.1084 1.33738ZM3.08867 7.83981C3.08867 7.99351 3.06789 8.1165 3.04187 8.1165C3.01276 8.1165 2.99507 8.37785 2.99507 8.80825V9.5H3.65025H4.30542V8.71602C4.30542 8.22409 4.32287 7.93204 4.35222 7.93204C4.37796 7.93204 4.39901 7.84903 4.39901 7.74757V7.56311H9.5H14.601V7.74757C14.601 7.84903 14.622 7.93204 14.6478 7.93204C14.6771 7.93204 14.6946 8.22409 14.6946 8.71602V9.5H15.3498H16.0049V8.85437C16.0049 8.45468 15.9871 8.20874 15.9581 8.20874C15.9314 8.20874 15.9113 8.07039 15.9113 7.88592V7.56311H16.8473H17.7833V12.6161C17.7833 16.934 17.7735 17.6788 17.7164 17.7351C17.659 17.7917 16.4978 17.801 9.47992 17.801H1.31034V12.682V7.56311H2.19951H3.08867V7.83981Z" fill="black"/>
</svg>
