<svg width="1234" height="245" viewBox="0 0 1234 245" fill="none" xmlns="http://www.w3.org/2000/svg">
<path d="M53.375 65.75C53.375 62.5 52.8333 59.4583 51.75 56.625C50.75 53.7917 49.2917 51.3333 47.375 49.25C45.4583 47.1667 43.125 45.5417 40.375 44.375C37.7083 43.125 34.6667 42.5 31.25 42.5C27.8333 42.5 24.7083 43.125 21.875 44.375C19.0417 45.5417 16.5833 47.1667 14.5 49.25C12.4167 51.3333 10.7917 53.7917 9.625 56.625C8.45833 59.4583 7.875 62.5 7.875 65.75C7.875 69 8.45833 72.0417 9.625 74.875C10.7917 77.7083 12.4167 80.1667 14.5 82.25C16.5833 84.3333 19.0417 86 21.875 87.25C24.7083 88.4167 27.8333 89 31.25 89C34.6667 89 37.7083 88.4167 40.375 87.25C43.125 86 45.4583 84.3333 47.375 82.25C49.2917 80.1667 50.75 77.7083 51.75 74.875C52.8333 72.0417 53.375 69 53.375 65.75ZM5.43892e-07 0.499995H8.25V46.25H8.5C9.83333 44.25 11.4167 42.5417 13.25 41.125C15.0833 39.7083 17 38.5417 19 37.625C21 36.7083 23.0417 36.0417 25.125 35.625C27.2917 35.2083 29.3333 35 31.25 35C35.8333 35 40 35.7917 43.75 37.375C47.5833 38.875 50.875 41 53.625 43.75C56.375 46.5 58.5 49.75 60 53.5C61.5833 57.25 62.375 61.3333 62.375 65.75C62.375 70.1667 61.5833 74.25 60 78C58.5 81.75 56.375 85 53.625 87.75C50.875 90.5 47.5833 92.6667 43.75 94.25C40 95.75 35.8333 96.5 31.25 96.5C29.3333 96.5 27.2917 96.2917 25.125 95.875C23.0417 95.4583 21 94.7917 19 93.875C17 92.9583 15.0833 91.7917 13.25 90.375C11.4167 88.9583 9.83333 87.25 8.5 85.25H8.25V95H5.43892e-07V0.499995ZM86.541 95H78.291V0.499995H86.541V95ZM148.695 95C148.529 93.4167 148.404 91.875 148.32 90.375C148.32 88.7917 148.32 87.2083 148.32 85.625H148.07C147.154 87.2083 145.987 88.6667 144.57 90C143.154 91.3333 141.57 92.5 139.82 93.5C138.07 94.4167 136.195 95.125 134.195 95.625C132.279 96.2083 130.362 96.5 128.445 96.5C120.945 96.5 115.404 94.5417 111.82 90.625C108.237 86.625 106.445 80.9583 106.445 73.625V36.5H114.695V68.875C114.695 72.125 114.945 75 115.445 77.5C115.945 80 116.779 82.125 117.945 83.875C119.195 85.5417 120.82 86.8333 122.82 87.75C124.904 88.5833 127.487 89 130.57 89C130.987 89 132.154 88.8333 134.07 88.5C135.987 88.1667 137.987 87.25 140.07 85.75C142.237 84.25 144.154 82 145.82 79C147.487 76 148.32 71.8333 148.32 66.5V36.5H156.57V82.125C156.57 83.7083 156.612 85.7083 156.695 88.125C156.862 90.5417 157.029 92.8333 157.195 95H148.695ZM175.903 49.5C175.903 47.3333 175.82 45.1667 175.653 43C175.57 40.8333 175.445 38.6667 175.278 36.5H184.153V45.375H184.403C186.403 41.9583 189.153 39.375 192.653 37.625C196.237 35.875 199.778 35 203.278 35C204.862 35 206.528 35.1667 208.278 35.5C210.112 35.8333 211.862 36.4583 213.528 37.375C215.195 38.2083 216.737 39.4167 218.153 41C219.653 42.5833 220.903 44.625 221.903 47.125C223.57 43.375 226.195 40.4167 229.778 38.25C233.445 36.0833 237.237 35 241.153 35C248.653 35 254.195 37 257.778 41C261.362 44.9167 263.153 50.5417 263.153 57.875V95H254.903V60.875C254.903 54.9583 253.862 50.4167 251.778 47.25C249.695 44.0833 245.82 42.5 240.153 42.5C237.07 42.5 234.487 43.125 232.403 44.375C230.32 45.5417 228.612 47.125 227.278 49.125C226.028 51.125 225.112 53.4167 224.528 56C223.945 58.5 223.653 61.125 223.653 63.875V95H215.403V60.875C215.403 54.9583 214.362 50.4167 212.278 47.25C210.195 44.0833 206.32 42.5 200.653 42.5C200.153 42.5 198.987 42.6667 197.153 43C195.403 43.3333 193.57 44.25 191.653 45.75C189.737 47.25 187.987 49.5 186.403 52.5C184.903 55.5 184.153 59.6667 184.153 65V95H175.903V49.5ZM327.849 61.25C327.849 55.6667 326.182 51.1667 322.849 47.75C319.515 44.25 314.849 42.5 308.849 42.5C306.182 42.5 303.599 43.0417 301.099 44.125C298.599 45.125 296.39 46.5 294.474 48.25C292.64 50 291.14 52 289.974 54.25C288.89 56.5 288.349 58.8333 288.349 61.25H327.849ZM288.099 68C288.349 70.9167 289.057 73.6667 290.224 76.25C291.39 78.8333 292.932 81.0833 294.849 83C296.765 84.8333 298.974 86.2917 301.474 87.375C303.974 88.4583 306.682 89 309.599 89C314.015 89 317.807 88 320.974 86C324.224 83.9167 326.682 81.5417 328.349 78.875L334.724 84.125C331.224 88.5417 327.349 91.7083 323.099 93.625C318.932 95.5417 314.432 96.5 309.599 96.5C305.265 96.5 301.224 95.75 297.474 94.25C293.807 92.6667 290.64 90.5 287.974 87.75C285.307 85 283.182 81.75 281.599 78C280.099 74.25 279.349 70.1667 279.349 65.75C279.349 61.3333 280.099 57.25 281.599 53.5C283.099 49.75 285.182 46.5 287.849 43.75C290.515 41 293.64 38.875 297.224 37.375C300.807 35.7917 304.682 35 308.849 35C313.265 35 317.224 35.7917 320.724 37.375C324.224 38.9583 327.14 41.0833 329.474 43.75C331.89 46.3333 333.724 49.4167 334.974 53C336.224 56.5 336.849 60.25 336.849 64.25V68H288.099ZM359.682 36.5C359.848 38.0833 359.932 39.6667 359.932 41.25C360.015 42.75 360.057 44.2917 360.057 45.875H360.307C361.223 44.2917 362.39 42.8333 363.807 41.5C365.223 40.1667 366.807 39.0417 368.557 38.125C370.307 37.125 372.14 36.375 374.057 35.875C376.057 35.2917 378.015 35 379.932 35C387.432 35 392.973 37 396.557 41C400.14 44.9167 401.932 50.5417 401.932 57.875V95H393.682V62.625C393.682 56.125 392.557 51.1667 390.307 47.75C388.057 44.25 383.89 42.5 377.807 42.5C377.39 42.5 376.223 42.6667 374.307 43C372.39 43.3333 370.348 44.25 368.182 45.75C366.098 47.25 364.223 49.5 362.557 52.5C360.89 55.5 360.057 59.6667 360.057 65V95H351.807V49.375C351.807 47.7917 351.723 45.7917 351.557 43.375C351.473 40.9583 351.348 38.6667 351.182 36.5H359.682ZM489.305 65.875C487.221 65.875 484.596 66 481.43 66.25C478.346 66.4167 475.346 66.9167 472.43 67.75C469.596 68.5 467.138 69.7083 465.055 71.375C463.055 73.0417 462.055 75.3333 462.055 78.25C462.055 80.1667 462.43 81.8333 463.18 83.25C464.013 84.5833 465.096 85.7083 466.43 86.625C467.763 87.4583 469.221 88.0833 470.805 88.5C472.471 88.8333 474.138 89 475.805 89C478.805 89 481.388 88.5 483.555 87.5C485.805 86.5 487.68 85.1667 489.18 83.5C490.68 81.75 491.763 79.75 492.43 77.5C493.18 75.1667 493.555 72.7083 493.555 70.125V65.875H489.305ZM493.555 59.125V57.625C493.555 47.5417 488.555 42.5 478.555 42.5C471.721 42.5 465.763 44.7917 460.68 49.375L455.68 43.5C461.18 37.8333 469.43 35 480.43 35C483.263 35 485.971 35.4167 488.555 36.25C491.221 37.0833 493.513 38.375 495.43 40.125C497.346 41.7917 498.888 43.9167 500.055 46.5C501.221 49.0833 501.805 52.1667 501.805 55.75V81.875C501.805 84.125 501.888 86.5 502.055 89C502.305 91.4167 502.555 93.4167 502.805 95H494.805C494.555 93.5833 494.346 92.0417 494.18 90.375C494.096 88.7083 494.055 87.0833 494.055 85.5H493.805C491.388 89.4167 488.513 92.25 485.18 94C481.93 95.6667 477.93 96.5 473.18 96.5C470.596 96.5 468.096 96.125 465.68 95.375C463.263 94.7083 461.096 93.6667 459.18 92.25C457.346 90.75 455.846 88.9583 454.68 86.875C453.596 84.7083 453.055 82.2083 453.055 79.375C453.055 74.625 454.263 70.9167 456.68 68.25C459.18 65.5 462.263 63.4583 465.93 62.125C469.68 60.7917 473.638 59.9583 477.805 59.625C482.055 59.2917 485.93 59.125 489.43 59.125H493.555ZM563.124 95C562.957 93.4167 562.832 91.875 562.749 90.375C562.749 88.7917 562.749 87.2083 562.749 85.625H562.499C561.582 87.2083 560.416 88.6667 558.999 90C557.582 91.3333 555.999 92.5 554.249 93.5C552.499 94.4167 550.624 95.125 548.624 95.625C546.707 96.2083 544.791 96.5 542.874 96.5C535.374 96.5 529.832 94.5417 526.249 90.625C522.666 86.625 520.874 80.9583 520.874 73.625V36.5H529.124V68.875C529.124 72.125 529.374 75 529.874 77.5C530.374 80 531.207 82.125 532.374 83.875C533.624 85.5417 535.249 86.8333 537.249 87.75C539.332 88.5833 541.916 89 544.999 89C545.416 89 546.582 88.8333 548.499 88.5C550.416 88.1667 552.416 87.25 554.499 85.75C556.666 84.25 558.582 82 560.249 79C561.916 76 562.749 71.8333 562.749 66.5V36.5H570.999V82.125C570.999 83.7083 571.041 85.7083 571.124 88.125C571.291 90.5417 571.457 92.8333 571.624 95H563.124ZM621.332 50.375C620.082 47.9583 618.415 46.0417 616.332 44.625C614.249 43.2083 611.707 42.5 608.707 42.5C607.29 42.5 605.832 42.6667 604.332 43C602.915 43.3333 601.624 43.875 600.457 44.625C599.29 45.2917 598.332 46.1667 597.582 47.25C596.915 48.3333 596.582 49.6667 596.582 51.25C596.582 54 597.54 56 599.457 57.25C601.374 58.5 604.249 59.5833 608.082 60.5L616.457 62.5C620.54 63.4167 623.915 65.2917 626.582 68.125C629.332 70.875 630.707 74.3333 630.707 78.5C630.707 81.6667 630.04 84.4167 628.707 86.75C627.457 89 625.749 90.875 623.582 92.375C621.499 93.7917 619.082 94.8333 616.332 95.5C613.582 96.1667 610.79 96.5 607.957 96.5C603.457 96.5 599.249 95.6667 595.332 94C591.499 92.25 588.207 89.2917 585.457 85.125L592.582 80.25C594.249 82.9167 596.332 85.0417 598.832 86.625C601.415 88.2083 604.457 89 607.957 89C609.624 89 611.29 88.8333 612.957 88.5C614.624 88.0833 616.082 87.5 617.332 86.75C618.665 85.9167 619.707 84.875 620.457 83.625C621.29 82.375 621.707 80.9167 621.707 79.25C621.707 76.3333 620.624 74.25 618.457 73C616.29 71.6667 613.665 70.625 610.582 69.875L602.582 68C601.582 67.75 600.207 67.3333 598.457 66.75C596.79 66.1667 595.124 65.2917 593.457 64.125C591.874 62.9583 590.499 61.4583 589.332 59.625C588.165 57.7083 587.582 55.375 587.582 52.625C587.582 49.625 588.165 47 589.332 44.75C590.582 42.5 592.207 40.6667 594.207 39.25C596.29 37.8333 598.624 36.7917 601.207 36.125C603.79 35.375 606.457 35 609.207 35C613.29 35 617.082 35.7917 620.582 37.375C624.082 38.9583 626.79 41.6667 628.707 45.5L621.332 50.375ZM309.32 170.375C308.07 167.958 306.404 166.042 304.32 164.625C302.237 163.208 299.695 162.5 296.695 162.5C295.279 162.5 293.82 162.667 292.32 163C290.904 163.333 289.612 163.875 288.445 164.625C287.279 165.292 286.32 166.167 285.57 167.25C284.904 168.333 284.57 169.667 284.57 171.25C284.57 174 285.529 176 287.445 177.25C289.362 178.5 292.237 179.583 296.07 180.5L304.445 182.5C308.529 183.417 311.904 185.292 314.57 188.125C317.32 190.875 318.695 194.333 318.695 198.5C318.695 201.667 318.029 204.417 316.695 206.75C315.445 209 313.737 210.875 311.57 212.375C309.487 213.792 307.07 214.833 304.32 215.5C301.57 216.167 298.779 216.5 295.945 216.5C291.445 216.5 287.237 215.667 283.32 214C279.487 212.25 276.195 209.292 273.445 205.125L280.57 200.25C282.237 202.917 284.32 205.042 286.82 206.625C289.404 208.208 292.445 209 295.945 209C297.612 209 299.279 208.833 300.945 208.5C302.612 208.083 304.07 207.5 305.32 206.75C306.654 205.917 307.695 204.875 308.445 203.625C309.279 202.375 309.695 200.917 309.695 199.25C309.695 196.333 308.612 194.25 306.445 193C304.279 191.667 301.654 190.625 298.57 189.875L290.57 188C289.57 187.75 288.195 187.333 286.445 186.75C284.779 186.167 283.112 185.292 281.445 184.125C279.862 182.958 278.487 181.458 277.32 179.625C276.154 177.708 275.57 175.375 275.57 172.625C275.57 169.625 276.154 167 277.32 164.75C278.57 162.5 280.195 160.667 282.195 159.25C284.279 157.833 286.612 156.792 289.195 156.125C291.779 155.375 294.445 155 297.195 155C301.279 155 305.07 155.792 308.57 157.375C312.07 158.958 314.779 161.667 316.695 165.5L309.32 170.375ZM374.168 170.25C372.751 168.083 370.751 166.25 368.168 164.75C365.668 163.25 362.793 162.5 359.543 162.5C356.126 162.417 353.043 162.958 350.293 164.125C347.626 165.292 345.335 166.917 343.418 169C341.501 171.083 340.043 173.583 339.043 176.5C338.043 179.333 337.543 182.417 337.543 185.75C337.543 189.083 338.043 192.208 339.043 195.125C340.043 197.958 341.501 200.417 343.418 202.5C345.335 204.583 347.626 206.208 350.293 207.375C353.043 208.542 356.126 209.083 359.543 209C362.793 209 365.668 208.25 368.168 206.75C370.751 205.25 372.751 203.417 374.168 201.25L380.918 206.375C378.001 209.792 374.71 212.333 371.043 214C367.376 215.583 363.543 216.417 359.543 216.5C354.793 216.583 350.501 215.875 346.668 214.375C342.835 212.792 339.543 210.625 336.793 207.875C334.126 205.125 332.085 201.875 330.668 198.125C329.251 194.292 328.543 190.167 328.543 185.75C328.543 181.333 329.251 177.25 330.668 173.5C332.085 169.667 334.126 166.375 336.793 163.625C339.543 160.875 342.835 158.75 346.668 157.25C350.501 155.667 354.793 154.917 359.543 155C363.543 155.083 367.376 155.958 371.043 157.625C374.71 159.208 378.001 161.708 380.918 165.125L374.168 170.25ZM391.846 120.5H400.096V165.875H400.346C401.262 164.292 402.429 162.833 403.846 161.5C405.262 160.167 406.846 159.042 408.596 158.125C410.346 157.125 412.179 156.375 414.096 155.875C416.096 155.292 418.054 155 419.971 155C427.471 155 433.012 157 436.596 161C440.179 164.917 441.971 170.542 441.971 177.875V215H433.721V182.625C433.721 176.125 432.596 171.167 430.346 167.75C428.096 164.25 423.929 162.5 417.846 162.5C417.429 162.5 416.262 162.667 414.346 163C412.429 163.333 410.387 164.25 408.221 165.75C406.137 167.25 404.262 169.5 402.596 172.5C400.929 175.5 400.096 179.667 400.096 185V215H391.846V120.5ZM463.804 156.5L477.304 204H477.554L493.179 156.5H501.679L517.304 204H517.554L531.054 156.5H540.804L522.304 215H513.054L497.554 167H497.304L481.804 215H472.554L454.054 156.5H463.804ZM584.764 185.875C582.68 185.875 580.055 186 576.889 186.25C573.805 186.417 570.805 186.917 567.889 187.75C565.055 188.5 562.597 189.708 560.514 191.375C558.514 193.042 557.514 195.333 557.514 198.25C557.514 200.167 557.889 201.833 558.639 203.25C559.472 204.583 560.555 205.708 561.889 206.625C563.222 207.458 564.68 208.083 566.264 208.5C567.93 208.833 569.597 209 571.264 209C574.264 209 576.847 208.5 579.014 207.5C581.264 206.5 583.139 205.167 584.639 203.5C586.139 201.75 587.222 199.75 587.889 197.5C588.639 195.167 589.014 192.708 589.014 190.125V185.875H584.764ZM589.014 179.125V177.625C589.014 167.542 584.014 162.5 574.014 162.5C567.18 162.5 561.222 164.792 556.139 169.375L551.139 163.5C556.639 157.833 564.889 155 575.889 155C578.722 155 581.43 155.417 584.014 156.25C586.68 157.083 588.972 158.375 590.889 160.125C592.805 161.792 594.347 163.917 595.514 166.5C596.68 169.083 597.264 172.167 597.264 175.75V201.875C597.264 204.125 597.347 206.5 597.514 209C597.764 211.417 598.014 213.417 598.264 215H590.264C590.014 213.583 589.805 212.042 589.639 210.375C589.555 208.708 589.514 207.083 589.514 205.5H589.264C586.847 209.417 583.972 212.25 580.639 214C577.389 215.667 573.389 216.5 568.639 216.5C566.055 216.5 563.555 216.125 561.139 215.375C558.722 214.708 556.555 213.667 554.639 212.25C552.805 210.75 551.305 208.958 550.139 206.875C549.055 204.708 548.514 202.208 548.514 199.375C548.514 194.625 549.722 190.917 552.139 188.25C554.639 185.5 557.722 183.458 561.389 182.125C565.139 180.792 569.097 179.958 573.264 179.625C577.514 179.292 581.389 179.125 584.889 179.125H589.014ZM616.333 169.5C616.333 167.333 616.25 165.167 616.083 163C616 160.833 615.875 158.667 615.708 156.5H624.583V165.375H624.833C626.833 161.958 629.583 159.375 633.083 157.625C636.666 155.875 640.208 155 643.708 155C645.291 155 646.958 155.167 648.708 155.5C650.541 155.833 652.291 156.458 653.958 157.375C655.625 158.208 657.166 159.417 658.583 161C660.083 162.583 661.333 164.625 662.333 167.125C664 163.375 666.625 160.417 670.208 158.25C673.875 156.083 677.666 155 681.583 155C689.083 155 694.625 157 698.208 161C701.791 164.917 703.583 170.542 703.583 177.875V215H695.333V180.875C695.333 174.958 694.291 170.417 692.208 167.25C690.125 164.083 686.25 162.5 680.583 162.5C677.5 162.5 674.916 163.125 672.833 164.375C670.75 165.542 669.041 167.125 667.708 169.125C666.458 171.125 665.541 173.417 664.958 176C664.375 178.5 664.083 181.125 664.083 183.875V215H655.833V180.875C655.833 174.958 654.791 170.417 652.708 167.25C650.625 164.083 646.75 162.5 641.083 162.5C640.583 162.5 639.416 162.667 637.583 163C635.833 163.333 634 164.25 632.083 165.75C630.166 167.25 628.416 169.5 626.833 172.5C625.333 175.5 624.583 179.667 624.583 185V215H616.333V169.5ZM768.278 181.25C768.278 175.667 766.612 171.167 763.278 167.75C759.945 164.25 755.278 162.5 749.278 162.5C746.612 162.5 744.028 163.042 741.528 164.125C739.028 165.125 736.82 166.5 734.903 168.25C733.07 170 731.57 172 730.403 174.25C729.32 176.5 728.778 178.833 728.778 181.25H768.278ZM728.528 188C728.778 190.917 729.487 193.667 730.653 196.25C731.82 198.833 733.362 201.083 735.278 203C737.195 204.833 739.403 206.292 741.903 207.375C744.403 208.458 747.112 209 750.028 209C754.445 209 758.237 208 761.403 206C764.653 203.917 767.112 201.542 768.778 198.875L775.153 204.125C771.653 208.542 767.778 211.708 763.528 213.625C759.362 215.542 754.862 216.5 750.028 216.5C745.695 216.5 741.653 215.75 737.903 214.25C734.237 212.667 731.07 210.5 728.403 207.75C725.737 205 723.612 201.75 722.028 198C720.528 194.25 719.778 190.167 719.778 185.75C719.778 181.333 720.528 177.25 722.028 173.5C723.528 169.75 725.612 166.5 728.278 163.75C730.945 161 734.07 158.875 737.653 157.375C741.237 155.792 745.112 155 749.278 155C753.695 155 757.653 155.792 761.153 157.375C764.653 158.958 767.57 161.083 769.903 163.75C772.32 166.333 774.153 169.417 775.403 173C776.653 176.5 777.278 180.25 777.278 184.25V188H728.528ZM800.111 156.5C800.278 158.083 800.361 159.667 800.361 161.25C800.445 162.75 800.486 164.292 800.486 165.875H800.736C801.653 164.292 802.82 162.833 804.236 161.5C805.653 160.167 807.236 159.042 808.986 158.125C810.736 157.125 812.57 156.375 814.486 155.875C816.486 155.292 818.445 155 820.361 155C827.861 155 833.403 157 836.986 161C840.57 164.917 842.361 170.542 842.361 177.875V215H834.111V182.625C834.111 176.125 832.986 171.167 830.736 167.75C828.486 164.25 824.32 162.5 818.236 162.5C817.82 162.5 816.653 162.667 814.736 163C812.82 163.333 810.778 164.25 808.611 165.75C806.528 167.25 804.653 169.5 802.986 172.5C801.32 175.5 800.486 179.667 800.486 185V215H792.236V169.375C792.236 167.792 792.153 165.792 791.986 163.375C791.903 160.958 791.778 158.667 791.611 156.5H800.111ZM866.694 185.75C866.694 189 867.194 192.042 868.194 194.875C869.278 197.708 870.778 200.167 872.694 202.25C874.611 204.333 876.903 206 879.569 207.25C882.319 208.417 885.403 209 888.819 209C892.153 209 895.236 208.417 898.069 207.25C900.986 206 903.486 204.333 905.569 202.25C907.653 200.167 909.278 197.708 910.444 194.875C911.611 192.042 912.194 189 912.194 185.75C912.194 182.5 911.611 179.458 910.444 176.625C909.278 173.792 907.653 171.333 905.569 169.25C903.486 167.167 900.986 165.542 898.069 164.375C895.236 163.125 892.153 162.5 888.819 162.5C885.403 162.5 882.319 163.125 879.569 164.375C876.903 165.542 874.611 167.167 872.694 169.25C870.778 171.333 869.278 173.792 868.194 176.625C867.194 179.458 866.694 182.5 866.694 185.75ZM920.069 215H911.819V205.25H911.569C910.236 207.25 908.653 208.958 906.819 210.375C904.986 211.792 903.069 212.958 901.069 213.875C899.069 214.792 896.986 215.458 894.819 215.875C892.736 216.292 890.736 216.5 888.819 216.5C884.236 216.5 880.028 215.75 876.194 214.25C872.444 212.667 869.194 210.5 866.444 207.75C863.694 205 861.528 201.75 859.944 198C858.444 194.25 857.694 190.167 857.694 185.75C857.694 181.333 858.444 177.25 859.944 173.5C861.528 169.75 863.694 166.5 866.444 163.75C869.194 161 872.444 158.875 876.194 157.375C880.028 155.792 884.236 155 888.819 155C890.736 155 892.736 155.208 894.819 155.625C896.986 156.042 899.069 156.708 901.069 157.625C903.069 158.542 904.986 159.708 906.819 161.125C908.653 162.542 910.236 164.25 911.569 166.25H911.819V120.5H920.069V215ZM950.11 134C950.11 135.75 949.485 137.208 948.235 138.375C946.985 139.458 945.61 140 944.11 140C942.61 140 941.235 139.458 939.985 138.375C938.735 137.208 938.11 135.75 938.11 134C938.11 132.25 938.735 130.833 939.985 129.75C941.235 128.583 942.61 128 944.11 128C945.61 128 946.985 128.583 948.235 129.75C949.485 130.833 950.11 132.25 950.11 134ZM948.235 215H939.985V156.5H948.235V215ZM976.015 156.5C976.181 158.083 976.265 159.667 976.265 161.25C976.348 162.75 976.39 164.292 976.39 165.875H976.64C977.556 164.292 978.723 162.833 980.14 161.5C981.556 160.167 983.14 159.042 984.89 158.125C986.64 157.125 988.473 156.375 990.39 155.875C992.39 155.292 994.348 155 996.265 155C1003.76 155 1009.31 157 1012.89 161C1016.47 164.917 1018.26 170.542 1018.26 177.875V215H1010.01V182.625C1010.01 176.125 1008.89 171.167 1006.64 167.75C1004.39 164.25 1000.22 162.5 994.14 162.5C993.723 162.5 992.556 162.667 990.64 163C988.723 163.333 986.681 164.25 984.515 165.75C982.431 167.25 980.556 169.5 978.89 172.5C977.223 175.5 976.39 179.667 976.39 185V215H968.14V169.375C968.14 167.792 968.056 165.792 967.89 163.375C967.806 160.958 967.681 158.667 967.515 156.5H976.015ZM1043.6 185C1043.6 188.083 1044.14 191 1045.22 193.75C1046.39 196.417 1047.93 198.792 1049.85 200.875C1051.85 202.875 1054.14 204.5 1056.72 205.75C1059.39 206.917 1062.26 207.5 1065.35 207.5C1068.35 207.5 1071.18 206.958 1073.85 205.875C1076.6 204.792 1079.01 203.292 1081.1 201.375C1083.18 199.375 1084.76 197 1085.85 194.25C1087.01 191.5 1087.56 188.417 1087.47 185C1087.47 181.917 1086.97 179.042 1085.97 176.375C1084.97 173.625 1083.51 171.25 1081.6 169.25C1079.68 167.167 1077.35 165.542 1074.6 164.375C1071.85 163.125 1068.76 162.5 1065.35 162.5C1062.26 162.5 1059.39 163.125 1056.72 164.375C1054.14 165.542 1051.85 167.167 1049.85 169.25C1047.93 171.25 1046.39 173.625 1045.22 176.375C1044.14 179.042 1043.6 181.917 1043.6 185ZM1042.1 226.75C1044.51 230 1047.64 232.583 1051.47 234.5C1055.39 236.5 1059.72 237.5 1064.47 237.5C1068.64 237.5 1072.18 236.875 1075.1 235.625C1078.01 234.458 1080.35 232.833 1082.1 230.75C1083.93 228.667 1085.22 226.208 1085.97 223.375C1086.81 220.625 1087.22 217.667 1087.22 214.5V204H1086.97C1084.31 208 1081.06 210.833 1077.22 212.5C1073.39 214.167 1069.35 215 1065.1 215C1060.85 215 1056.85 214.25 1053.1 212.75C1049.43 211.25 1046.22 209.208 1043.47 206.625C1040.72 203.958 1038.56 200.792 1036.97 197.125C1035.39 193.458 1034.6 189.5 1034.6 185.25C1034.6 181 1035.35 177.042 1036.85 173.375C1038.35 169.708 1040.39 166.5 1042.97 163.75C1045.64 161 1048.76 158.875 1052.35 157.375C1056.01 155.792 1060.01 155 1064.35 155C1066.1 155 1067.93 155.167 1069.85 155.5C1071.85 155.833 1073.81 156.417 1075.72 157.25C1077.72 158.083 1079.68 159.25 1081.6 160.75C1083.51 162.167 1085.31 164 1086.97 166.25H1087.22V156.5H1095.47V214.5C1095.47 217.667 1095.06 221.042 1094.22 224.625C1093.47 228.208 1091.93 231.5 1089.6 234.5C1087.35 237.5 1084.18 240 1080.1 242C1076.01 244 1070.68 245 1064.1 245C1058.26 245 1053.06 244.042 1048.47 242.125C1043.89 240.208 1039.72 237.25 1035.97 233.25L1042.1 226.75ZM1159.51 181.25C1159.51 175.667 1157.85 171.167 1154.51 167.75C1151.18 164.25 1146.51 162.5 1140.51 162.5C1137.85 162.5 1135.26 163.042 1132.76 164.125C1130.26 165.125 1128.06 166.5 1126.14 168.25C1124.31 170 1122.81 172 1121.64 174.25C1120.56 176.5 1120.01 178.833 1120.01 181.25H1159.51ZM1119.76 188C1120.01 190.917 1120.72 193.667 1121.89 196.25C1123.06 198.833 1124.6 201.083 1126.51 203C1128.43 204.833 1130.64 206.292 1133.14 207.375C1135.64 208.458 1138.35 209 1141.26 209C1145.68 209 1149.47 208 1152.64 206C1155.89 203.917 1158.35 201.542 1160.01 198.875L1166.39 204.125C1162.89 208.542 1159.01 211.708 1154.76 213.625C1150.6 215.542 1146.1 216.5 1141.26 216.5C1136.93 216.5 1132.89 215.75 1129.14 214.25C1125.47 212.667 1122.31 210.5 1119.64 207.75C1116.97 205 1114.85 201.75 1113.26 198C1111.76 194.25 1111.01 190.167 1111.01 185.75C1111.01 181.333 1111.76 177.25 1113.26 173.5C1114.76 169.75 1116.85 166.5 1119.51 163.75C1122.18 161 1125.31 158.875 1128.89 157.375C1132.47 155.792 1136.35 155 1140.51 155C1144.93 155 1148.89 155.792 1152.39 157.375C1155.89 158.958 1158.81 161.083 1161.14 163.75C1163.56 166.333 1165.39 169.417 1166.64 173C1167.89 176.5 1168.51 180.25 1168.51 184.25V188H1119.76ZM1191.35 156.5C1191.51 158.083 1191.6 159.667 1191.6 161.25C1191.68 162.75 1191.72 164.292 1191.72 165.875H1191.97C1192.89 164.292 1194.06 162.833 1195.47 161.5C1196.89 160.167 1198.47 159.042 1200.22 158.125C1201.97 157.125 1203.81 156.375 1205.72 155.875C1207.72 155.292 1209.68 155 1211.6 155C1219.1 155 1224.64 157 1228.22 161C1231.81 164.917 1233.6 170.542 1233.6 177.875V215H1225.35V182.625C1225.35 176.125 1224.22 171.167 1221.97 167.75C1219.72 164.25 1215.56 162.5 1209.47 162.5C1209.06 162.5 1207.89 162.667 1205.97 163C1204.06 163.333 1202.01 164.25 1199.85 165.75C1197.76 167.25 1195.89 169.5 1194.22 172.5C1192.56 175.5 1191.72 179.667 1191.72 185V215H1183.47V169.375C1183.47 167.792 1183.39 165.792 1183.22 163.375C1183.14 160.958 1183.01 158.667 1182.85 156.5H1191.35Z" fill="white"/>
</svg>
