<svg width="21" height="21" viewBox="0 0 21 21" fill="none" xmlns="http://www.w3.org/2000/svg">
<g clip-path="url(#clip0_378_316)">
<path d="M10.5 21.0801C4.66489 21.0801 0 16.3831 0 10.4999C0 4.77702 4.72901 0.0800781 10.484 0.0800781C16.3031 0.0800781 21 4.79306 20.984 10.6602C21 16.3671 16.255 21.064 10.5 21.0801ZM2.06794 10.548C2.08397 15.277 5.85115 19.0282 10.5641 19.0121C15.1328 18.9961 18.9321 15.1808 18.9321 10.6442C18.9321 5.91519 15.1489 2.13199 10.4679 2.13199C5.85115 2.14802 2.05191 5.96328 2.06794 10.548Z" fill="#3D3D3D" fill-opacity="0.7"/>
<path d="M9.52222 9.56982C10.1955 9.56982 10.8207 9.56982 11.494 9.56982C11.494 11.6378 11.494 13.6736 11.494 15.7576C10.8367 15.7576 10.2115 15.7576 9.52222 15.7576C9.52222 13.7217 9.52222 11.6859 9.52222 9.56982Z" fill="#3D3D3D" fill-opacity="0.7"/>
<path d="M11.4779 7.35758C10.8046 7.35758 10.1634 7.35758 9.5061 7.35758C9.5061 6.6843 9.5061 6.05911 9.5061 5.40186C10.1634 5.40186 10.7885 5.40186 11.4779 5.40186C11.4779 6.02705 11.4779 6.65224 11.4779 7.35758Z" fill="#3D3D3D" fill-opacity="0.7"/>
</g>
<defs>
<clipPath id="clip0_378_316">
<rect width="21" height="21" fill="white"/>
</clipPath>
</defs>
</svg>
