<svg width="18" height="19" viewBox="0 0 18 19" fill="none" xmlns="http://www.w3.org/2000/svg">
<path d="M17.9459 5.58322C17.9021 4.57199 17.7499 3.88141 17.5275 3.27722C17.3015 2.64332 16.9472 2.06914 16.4894 1.59454C16.0399 1.11125 15.4958 0.737114 14.8953 0.498512C14.3227 0.263824 13.6686 0.103355 12.7106 0.0574036C11.7508 0.0110168 11.4442 0 9 0C6.55582 0 6.24916 0.0110168 5.28937 0.0571136C4.33136 0.103355 3.67726 0.263969 3.10474 0.498802C2.5042 0.737259 1.96024 1.11125 1.51062 1.59454C1.05276 2.06899 0.698318 2.64317 0.472275 3.27708C0.249939 3.88141 0.0979156 4.57199 0.0543823 5.58308C0.010437 6.59634 0 6.91988 0 9.49986C0 12.08 0.010437 12.4037 0.0543823 13.4168C0.098053 14.4279 0.250214 15.1184 0.472687 15.7228C0.698593 16.3565 1.0529 16.9309 1.51076 17.4053C1.96024 17.8886 2.50433 18.2626 3.10487 18.5011C3.67726 18.736 4.3315 18.8965 5.28951 18.9427C6.24944 18.989 6.55595 18.9999 9.00014 18.9999C11.4443 18.9999 11.751 18.989 12.7108 18.9427C13.6688 18.8965 14.3229 18.736 14.8954 18.5011C16.1043 18.0076 17.06 16.9988 17.5275 15.7228C17.7501 15.1184 17.9021 14.4279 17.9459 13.4168C17.9896 12.4035 18 12.08 18 9.5C18 6.91988 17.9896 6.59634 17.9459 5.58322ZM16.3258 13.3389C16.2859 14.2652 16.1392 14.7682 16.016 15.1029C15.7132 15.9315 15.0929 16.5863 14.3079 16.9059C13.9908 17.036 13.5143 17.1908 12.6367 17.233C11.6879 17.2788 11.4033 17.2883 9 17.2883C6.5966 17.2883 6.31206 17.2788 5.36311 17.233C4.48572 17.1908 4.00919 17.036 3.69196 16.9059C3.30112 16.7536 2.94749 16.5108 2.65718 16.1952C2.35822 15.8888 2.12819 15.5156 1.98386 15.1029C1.86067 14.7682 1.714 14.2652 1.67404 13.3389C1.63078 12.3373 1.62158 12.0368 1.62158 9.50014C1.62158 6.96337 1.63078 6.66302 1.67404 5.66121C1.71414 4.73492 1.86067 4.23192 1.98386 3.89721C2.12819 3.48451 2.35835 3.11124 2.65718 2.8048C2.94749 2.48923 3.30112 2.24642 3.69209 2.09422C4.00919 1.96404 4.48572 1.80937 5.36325 1.76704C6.31219 1.72138 6.59688 1.71167 9 1.71167H8.99986C11.403 1.71167 11.6877 1.72138 12.6367 1.76719C13.5143 1.80937 13.9907 1.96419 14.3079 2.09422C14.6987 2.24657 15.0524 2.48937 15.3427 2.8048C15.6416 3.11124 15.8717 3.48451 16.0159 3.89721C16.1392 4.23192 16.2859 4.73492 16.3258 5.66121C16.3691 6.66287 16.3783 6.96337 16.3783 9.5C16.3783 12.0368 16.3692 12.3371 16.3258 13.3389Z" fill="white"/>
<path d="M8.99995 4.62109C6.44756 4.62109 4.37842 6.80533 4.37842 9.49953C4.37842 12.1937 6.44756 14.3778 8.99995 14.3778C11.5525 14.3778 13.6216 12.1937 13.6216 9.49953C13.6216 6.80533 11.5525 4.62109 8.99995 4.62109ZM8.99995 12.6661C7.34322 12.666 6 11.2483 6.00014 9.49938C6.00014 7.7506 7.34322 6.33276 9.00009 6.33276C10.657 6.33291 12 7.7506 12 9.49938C12 11.2483 10.6568 12.6661 8.99995 12.6661Z" fill="white"/>
<path d="M14.8842 4.42916C14.8842 5.05872 14.4006 5.56911 13.8042 5.56911C13.2077 5.56911 12.7241 5.05872 12.7241 4.42916C12.7241 3.79946 13.2077 3.28906 13.8042 3.28906C14.4006 3.28906 14.8842 3.79946 14.8842 4.42916Z" fill="white"/>
</svg>
