<svg width="217" height="52" viewBox="0 0 217 52" fill="none" xmlns="http://www.w3.org/2000/svg">
<path d="M43.8502 7.83499C43.2593 8.4529 42.764 9.15845 42.2644 9.86068C42.7735 9.49226 43.3538 9.23922 43.9664 9.11852C44.1663 8.4529 44.6181 7.93371 45.1493 7.51105C44.742 7.70716 44.3001 7.81734 43.8502 7.83499ZM42.7564 10.3333C42.5392 10.4952 42.1916 10.8269 41.8256 11.071L41.9461 11.0843C42.0426 11.0919 42.1396 11.0919 42.2361 11.0843C42.3384 11.076 42.4412 11.076 42.5435 11.0843C42.6894 10.6977 42.9277 10.3545 43.2365 10.0859C43.0725 10.1525 42.9117 10.2401 42.7564 10.3333ZM12.4748 9.73089C12.5834 10.351 12.6529 11.0466 12.541 11.6856C12.6848 11.7139 12.8253 11.7574 12.9603 11.8154C13.0574 11.8381 13.1532 11.8667 13.2471 11.9008C12.9755 11.3606 12.8354 10.7149 12.6138 9.73089C12.5589 9.70738 12.5059 9.67957 12.4552 9.64769C12.4628 9.67542 12.4694 9.70205 12.4748 9.73089ZM60.0984 10.2612C60.09 10.3359 60.057 10.4055 60.005 10.4586C60.0136 10.8103 60.106 11.8021 60.0365 12.5986C60.0669 12.582 60.0984 12.5653 60.131 12.5498C59.9669 12.2924 60.3102 11.8686 60.4134 11.598C60.6773 10.8369 60.863 10.0215 60.8011 9.22058L60.7403 9.18286C60.598 9.58002 60.3221 9.90839 60.0984 10.2612ZM12.805 13.4206C12.8755 13.4303 12.9432 13.455 13.0037 13.4932C13.0641 13.5315 13.116 13.5823 13.1558 13.6425C13.4037 13.6211 13.648 13.5689 13.8836 13.4872C14.0041 13.4362 14.1258 13.3763 14.2485 13.3219C13.9324 13.0889 13.6413 12.7916 13.2818 12.6474C13.0559 12.5054 12.6062 12.4788 12.3531 12.3146C12.2574 12.5314 12.1271 12.7305 11.9675 12.9037C11.9819 13.053 12.0315 13.1965 12.112 13.3219C12.1724 13.3754 12.2379 13.4226 12.3075 13.4628C12.4385 13.4314 12.5726 13.4154 12.7072 13.4151C12.7398 13.4206 12.7724 13.4206 12.805 13.4206ZM28.4167 13.0878C28.3491 13.2433 28.2673 13.3919 28.1723 13.5316C28.1794 13.5467 28.1877 13.5612 28.1972 13.5749C28.5752 14.1007 29.0488 14.5455 29.4387 15.0625C29.4561 15.0825 29.4746 15.1036 29.4952 15.1235C29.4438 14.8681 29.3771 14.6162 29.2954 14.3692C29.0966 13.8145 28.9695 13.2354 28.8012 12.6718C28.7443 12.6638 28.6881 12.652 28.6328 12.6363C28.5698 12.7905 28.4677 12.9503 28.4167 13.0812V13.0878ZM51.6859 14.7197C51.6794 14.7907 51.6707 14.8606 51.6577 14.9305C51.4904 15.7536 51.2015 16.5757 50.5715 17.1426C50.6057 17.2888 50.6314 17.437 50.6486 17.5863C50.7268 17.3955 50.8094 17.2058 50.8973 17.0194C51.4306 15.9655 51.9379 14.8839 52.6048 13.9132C52.4679 13.6576 52.3684 13.3829 52.3094 13.0978C52.2355 13.7923 51.9846 14.4568 51.6859 14.7197ZM46.3462 10.6639C47.1511 10.7193 47.7137 11.73 47.2988 12.4466C47.273 12.4764 47.2454 12.5045 47.2163 12.5309C47.616 12.7528 47.8137 13.4428 47.9114 13.8622C48.2514 15.017 47.4987 16.041 46.8372 16.903C46.9045 17.3212 46.9089 17.7505 46.9556 18.1732C47.2586 17.4122 47.6171 16.6744 47.8528 15.8868C48.2872 14.6365 48.6804 13.3585 48.8227 12.0339C48.4143 11.933 48.171 11.5347 47.9723 11.1919C47.5845 10.5851 47.5063 9.83739 47.6236 9.13405C47.4737 9.24499 47.3195 9.35038 47.1641 9.46686C46.765 9.72752 46.3075 9.88022 45.8346 9.91061C45.4317 9.98272 44.9896 10.1036 44.5888 10.0293C44.6442 10.1081 44.6974 10.1924 44.7398 10.2689C44.9331 10.501 45.0839 10.7667 45.1851 11.0533C45.4789 10.8145 45.8369 10.6728 46.2116 10.6472C46.257 10.6463 46.3023 10.6519 46.3462 10.6639ZM47.7583 17.9702C47.6746 18.1787 47.5888 18.3884 47.5063 18.5981C48.0255 18.2519 48.5132 17.9458 48.6707 17.7561C48.9385 17.5388 49.1925 17.3042 49.431 17.0538C49.4567 17.0249 49.4872 17.0009 49.5211 16.9828C49.3023 16.7497 49.1261 16.4784 49.0009 16.1819C48.9096 15.96 48.7988 15.7381 48.7 15.5096C48.423 16.346 48.0993 17.167 47.7572 17.9691L47.7583 17.9702ZM45.1514 13.3774C45.0175 14.0787 44.7366 14.7421 44.3281 15.3221C44.727 16.7546 45.4563 18.0685 46.4549 19.1539C46.4781 19.1577 46.501 19.1636 46.5233 19.1716L46.5331 19.1583C46.1996 18.6713 46.306 17.593 46.2072 17.1171C45.3763 16.498 45.3937 15.3521 45.4469 14.4058C45.4599 13.8145 45.7727 13.3086 46.1833 12.9159H46.1105C45.8323 12.8831 45.5599 12.8106 45.3013 12.7007C45.2636 12.9294 45.2118 13.1554 45.146 13.3774H45.1514ZM63.8804 18.3784C63.7859 18.6313 63.7479 18.9331 63.5687 19.1417C63.6079 19.177 63.6378 19.2218 63.6556 19.272C63.6734 19.3222 63.6787 19.3762 63.6708 19.429C63.9597 20.0768 64.5126 20.5772 64.9438 21.133C65.0199 20.2965 64.9992 19.4545 64.9992 18.6147C64.6113 18.2384 64.3295 17.7625 64.1835 17.2369C64.1184 17.627 64.015 18.0094 63.875 18.3784H63.8804ZM68.0188 21.5013C67.7223 21.6477 67.4171 21.793 67.1053 21.9117C68.3066 22.1758 69.584 22.3888 70.7538 21.9117C70.7983 21.5789 71.0525 21.1995 71.1698 20.9466C71.2693 20.7756 71.387 20.6164 71.5206 20.4718C71.1014 20.6437 70.4855 20.9155 70.0543 20.7181C69.4091 21.0753 68.6759 21.1918 68.0134 21.5013H68.0188ZM8.64165 22.5241C9.18474 21.6943 10.3187 21.0941 11.0095 20.5461C11.52 19.8749 11.6341 18.9364 11.898 18.1399C11.6873 17.9091 11.4549 17.6717 11.2398 17.4199C11.1218 18.0078 10.8703 18.5591 10.5055 19.0296C10.2883 19.2825 9.81364 19.7052 9.54535 19.3114C9.13695 20.3553 8.66772 21.4081 8.63622 22.5241H8.64165ZM28.9706 20.9189C28.6402 21.1031 28.3216 21.3087 28.0169 21.5346C28.0244 21.5966 28.0164 21.6597 27.9939 21.7178C27.9713 21.7759 27.9348 21.8274 27.8877 21.8674C27.7856 22.107 27.678 22.3522 27.5955 22.604C27.6205 22.5874 27.6444 22.5696 27.6672 22.553C28.0691 22.229 28.5883 22.259 29.0499 22.1092C29.0499 22.0948 29.0575 22.0815 29.0618 22.0671C29.0329 22.0277 29.0123 21.9826 29.0017 21.9346C28.991 21.8866 28.9904 21.8368 28.9999 21.7886C28.9891 21.488 28.9847 21.1862 28.9999 20.8878C28.9889 20.8988 28.9773 20.9092 28.9652 20.9189H28.9706ZM4.28498 21.0176C4.88564 21.6555 5.13112 22.7438 6.06523 22.9978C6.63222 23.0311 7.17965 22.8625 7.73795 22.7848C7.80855 22.7726 7.8911 22.7593 7.98017 22.7493C7.96062 22.6916 7.94106 22.6328 7.91826 22.5774C7.80131 22.4737 7.7243 22.331 7.70102 22.1747C6.86466 20.7902 5.59057 19.7596 4.60866 18.4938C4.2359 18.6251 3.84274 18.6857 3.44862 18.6724C3.93632 19.3957 4.24371 20.2477 4.28498 21.0176ZM24.2034 22.0848C24.8735 22.1957 25.3069 22.9512 25.988 23.121C26.1486 23.1746 26.3164 23.2031 26.4854 23.2053C26.2193 22.5308 25.9575 21.8518 25.6827 21.1862C24.3337 21.3071 22.5958 19.4501 22.8847 18.08C23.2171 17.289 24.6411 17.6939 25.2309 17.9691C25.8489 18.2686 26.1824 18.9531 26.2953 19.6142C26.3442 19.9925 26.5234 20.5073 26.253 20.8257C26.4919 21.3804 26.7005 21.9428 26.9199 22.5019C27.0057 22.2512 27.1187 22.0049 27.1904 21.7808C26.291 20.8834 26.2041 19.1916 27.2392 18.3607C27.8562 17.9247 29.1944 17.8315 29.3584 18.7922C29.3584 18.9575 29.3703 19.1494 29.3725 19.3469C29.5723 18.8077 29.807 18.2087 30.3761 18.0878C30.2537 17.5737 30.1623 17.0524 30.1024 16.5269C29.3823 16.5269 28.6904 16.812 27.9681 16.8719C27.2599 17.0028 26.9188 17.1071 26.3203 16.6079C26.1788 16.7856 25.9971 16.9257 25.7909 17.0159C25.5846 17.1061 25.3601 17.1439 25.1364 17.1259C24.3278 17.0324 23.5731 16.6653 22.9923 16.0831C22.548 15.6582 22.0864 15.2067 21.9626 14.5711C21.8768 14.1018 22.2939 13.7024 22.6458 13.4683C23.1889 13.1267 23.8742 13.2465 24.4282 13.5038C25.4058 13.9121 25.7903 15.017 26.3029 15.8757C26.6158 15.9278 26.8363 16.1874 27.1122 16.3094C27.6552 16.2628 28.1983 16.1475 28.7414 16.0554C28.8668 16.0363 28.9911 16.0107 29.114 15.9788L29.0488 15.9411L29.0575 15.93C29.0754 15.9002 29.082 15.8647 29.076 15.8302C29.0601 15.7807 29.035 15.7347 29.0021 15.6948C28.9733 15.649 28.941 15.6056 28.9054 15.5651L28.9141 15.5773C28.8815 15.5351 28.8479 15.4941 28.8142 15.453L28.8044 15.4408L28.7936 15.4286C28.791 15.4246 28.7881 15.4209 28.7849 15.4175L28.7599 15.3887C28.673 15.2888 28.5926 15.1823 28.5133 15.0758C28.4721 15.0215 28.4264 14.9649 28.3841 14.9161C28.3417 14.8673 28.308 14.8184 28.27 14.7696C28.232 14.7208 28.2157 14.6887 28.1875 14.6476C28.1592 14.6066 28.1277 14.5644 28.0973 14.5222C28.069 14.4763 28.0374 14.4326 28.0028 14.3913L27.9409 14.3215C27.9203 14.2937 27.9007 14.266 27.8779 14.2405C27.8551 14.215 27.8345 14.1928 27.8127 14.1672C27.7834 14.1295 27.7573 14.0896 27.7258 14.0563L27.6965 14.0219C27.6251 13.914 27.5651 13.7988 27.5173 13.678C27.4476 13.6852 27.3774 13.6852 27.3077 13.678C27.2831 13.6679 27.2581 13.659 27.2327 13.6514C27.2056 13.6425 27.1784 13.637 27.1502 13.627L27.1078 13.6115C27.1019 13.6077 27.0957 13.6044 27.0893 13.6015C27.0481 13.5771 27.0057 13.5549 26.9623 13.5338L26.8634 13.4861L26.8221 13.4639C26.77 13.4284 26.72 13.3896 26.669 13.353C26.6179 13.3164 26.531 13.2642 26.467 13.2132C26.4029 13.1622 26.3583 13.13 26.3073 13.0923C26.2783 13.073 26.2501 13.0531 26.2226 13.0324C26.1411 12.9558 26.0618 12.8804 25.9814 12.8105C25.6469 12.5343 25.2754 12.2747 25.0571 11.8864C25.007 11.7883 24.9627 11.6871 24.9246 11.5835C24.9613 11.9 24.9152 12.2208 24.791 12.5132L24.816 12.5198L24.7997 12.5598C24.8001 12.562 24.8001 12.5642 24.7997 12.5664C24.8003 12.5701 24.8003 12.5739 24.7997 12.5775C24.7971 12.5831 24.7938 12.5883 24.7899 12.5931L24.7964 12.5842C24.7671 12.6219 24.7334 12.6563 24.7063 12.6951C24.6791 12.734 24.665 12.7606 24.6433 12.7927C24.6313 12.8083 24.6183 12.8227 24.6052 12.8371C24.5922 12.8515 24.5564 12.8815 24.5314 12.9015L24.5097 12.917L24.4554 12.9492L24.4173 12.9669C24.3782 12.9824 24.3391 12.9958 24.3 13.0124C24.2783 13.0213 24.2555 13.0302 24.2338 13.0412C23.4322 13.4451 22.5654 13.0501 21.9213 12.4977C21.792 12.5942 21.6432 12.6785 21.5455 12.7584C21.1515 13.0421 20.6685 13.1666 20.1899 13.1078C19.9547 13.0998 19.7226 13.0511 19.5035 12.9636C19.0755 13.1 18.5943 13.0745 18.1523 13.1023C17.7732 13.1392 17.392 13.1474 17.0118 13.1267C16.584 13.1016 16.155 13.1172 15.7301 13.1733C15.7436 13.229 15.7437 13.2873 15.7305 13.3431C15.7172 13.3989 15.691 13.4506 15.654 13.4939C16.6407 16.0058 18.053 18.3206 19.8261 20.332C19.834 20.1429 19.9116 19.9638 20.0433 19.8306C20.3452 19.6122 20.7074 19.498 21.0773 19.5044C22.4242 19.4889 23.9731 20.8345 24.2001 22.0848H24.2034ZM75.6145 18.0611C75.7763 18.3751 75.3451 18.8122 75.2962 19.1483C74.7607 20.7147 75.0312 22.5596 75.8697 23.9663C75.8784 22.8403 76.8733 20.7214 77.2166 19.8428C77.1862 19.8062 77.1579 19.7662 77.1308 19.7318C76.8201 19.2881 76.4791 18.8443 76.4019 18.2897C76.3812 17.8461 76.4386 17.4023 76.5714 16.9795C76.2717 17.3583 75.9511 17.7195 75.6112 18.0611H75.6145ZM80.5653 22.5685C79.5443 23.3861 78.4244 24.0462 77.2904 24.6763C77.9182 24.7617 78.5569 24.9536 79.1847 24.9115C81.4657 24.4056 83.7261 23.0122 85.3293 21.2672C85.2935 21.2043 85.2626 21.1387 85.2369 21.0708C84.6721 21.5556 83.9335 21.9007 83.1971 21.8607C82.7728 21.8199 82.3624 21.6848 81.9947 21.4647C81.5124 21.8263 81.0421 22.2057 80.562 22.5685H80.5653ZM29.7896 22.1591C29.7534 22.1881 29.7225 22.2234 29.6983 22.2634C29.6983 22.5507 29.4311 22.7072 29.1911 22.7815C28.9348 22.8924 28.648 22.868 28.3906 22.9446C28.0681 23.0851 27.7693 23.2768 27.5053 23.5126C27.4785 23.5583 27.4435 23.5986 27.4022 23.6313C27.4105 23.6771 27.4088 23.7243 27.3972 23.7693C27.3855 23.8144 27.3642 23.8563 27.3348 23.892C27.8056 25.3515 28.7856 26.5831 30.0883 27.3521C30.8812 27.848 31.8034 28.0011 32.6756 28.2895C33.8063 28.7565 34.9283 29.2746 36.0101 29.8515C36.6172 30.2493 37.1908 30.698 37.7252 31.1927C37.9979 31.4235 38.2575 31.6697 38.5116 31.9238C37.5341 30.4261 36.4978 28.9662 35.5431 27.4553C33.941 25.4584 32.3671 23.2474 31.3135 20.8434C30.9485 21.4081 30.2534 21.732 29.7863 22.1591H29.7896ZM40.949 11.7732C40.5221 12.755 40.2452 13.82 40.0203 14.8795C39.8259 16.1575 40.0703 17.4454 40.2723 18.7079C40.7593 21.3785 41.0018 24.0897 40.9968 26.8063C40.8882 28.5213 40.8969 30.2331 40.9164 31.9482C40.936 31.8905 40.9544 31.8317 40.974 31.774C41.8429 29.4443 42.3556 26.9949 43.4907 24.7761C44.3596 23.2152 45.0417 21.519 45.978 19.9959C46.0089 19.9055 46.0544 19.8212 46.1127 19.7463C45.7543 19.4756 45.5142 19.0462 45.2275 18.7035C44.4997 17.7727 44.0207 16.6655 43.6884 15.5318C42.575 14.9305 42.0895 13.2021 42.3513 11.771C42.285 11.771 42.222 11.771 42.1644 11.771C41.9374 11.7621 41.7115 11.7511 41.4856 11.7511C41.3054 11.7489 41.1252 11.7563 40.9458 11.7732H40.949ZM29.6799 28.6356C30.9051 29.3467 32.2867 29.6451 33.5608 30.2242C34.4189 30.557 35.1216 31.1949 35.9504 31.5921C36.7303 31.9482 37.5645 32.2799 38.3335 32.7014C37.3559 31.7363 36.349 30.7534 35.1184 30.1432C33.8715 29.5719 32.6571 28.9008 31.3113 28.6001C29.3855 28.0654 27.7096 26.6033 26.9351 24.7173C26.8754 24.5066 26.6929 24.1993 26.6353 23.9286C25.5752 23.8099 25.0951 23.4782 24.1903 22.7604C23.5079 22.8854 22.8072 22.8597 22.1353 22.685C24.4336 24.9448 26.8515 27.098 29.6766 28.6334L29.6799 28.6356ZM60.5035 13.1389C59.1143 14.6055 57.8565 16.1996 56.6324 17.8259C56.6192 18.1898 56.4762 18.5362 56.2305 18.8C56.0399 18.9932 55.8151 19.1476 55.5679 19.2548C54.3851 20.8556 53.2098 22.462 51.9553 23.9885C49.9502 26.6765 47.5399 29.015 45.285 31.48C44.8582 31.9315 44.4063 32.3598 43.9523 32.7858C46.3093 31.6331 49.0573 30.6391 49.6439 30.394C52.3593 29.3545 54.9434 27.9855 57.5632 26.7175C59.2859 25.9099 61.0292 25.0468 62.4011 23.6812C62.7324 23.4593 63.7219 22.188 64.4279 21.5834C64.2356 21.3704 64.077 21.1208 63.8848 20.9178C63.5904 20.5494 63.2646 20.1878 63.068 19.7551L63.0473 19.744C62.4508 19.4203 61.9224 18.98 61.4919 18.4483C61.1433 17.8792 60.9163 17.1781 60.9673 16.5014C61.1661 15.7758 61.3486 14.7796 62.0948 14.4501C62.929 14.4058 63.648 15.1158 63.9815 15.8857C63.9794 15.6589 63.9906 15.4321 64.0151 15.2067C64.1987 14.4967 64.6506 13.7557 65.3001 13.4018C64.8518 13.4959 64.388 13.4803 63.9467 13.3563C63.4818 13.2354 62.7736 13.1988 62.6129 12.6441C61.8982 12.7395 61.1628 12.8294 60.5035 13.1389ZM49.9165 17.5253C49.7408 17.7169 49.5525 17.8959 49.3528 18.0611C48.6218 18.7933 47.667 19.2093 46.9002 19.8916C46.8275 19.9586 46.7616 20.0329 46.7036 20.1135C45.5968 21.8474 44.7941 23.7899 43.8372 25.6115C42.7771 28.0332 42.0721 30.5981 41.2727 33.1252L41.453 33.2095C41.4676 33.2171 41.4818 33.2257 41.4954 33.2351C41.5698 33.1161 41.6366 32.9924 41.6952 32.8645C42.5826 31.2681 43.3973 29.6307 44.302 28.0443C45.7076 25.6159 47.2011 23.2352 48.7424 20.8956C49.0096 20.6116 49.5385 19.6176 50.0392 19.1339C49.9975 18.9439 49.9875 18.7481 50.0099 18.5548C50.0345 18.1957 50.0147 17.835 49.9513 17.4809C49.9409 17.4967 49.9293 17.5116 49.9165 17.5253ZM50.9039 19.2415C50.866 19.2926 50.8197 19.3366 50.767 19.3713C50.757 19.386 50.7458 19.3997 50.7333 19.4123C49.2626 21.0409 48.145 23.0544 46.999 24.9093C45.1645 27.7259 43.5819 30.7124 42.0026 33.6843L42.0265 33.701C42.6717 33.0354 43.4787 32.3764 43.634 32.1623C45.7412 30.1344 47.6529 27.9057 49.6558 25.7768C51.3937 23.7888 52.9578 21.6388 54.5306 19.4989C54.4644 19.4989 54.3981 19.4989 54.3329 19.4989C54.0767 19.4762 53.8284 19.397 53.605 19.2667C53.3817 19.1365 53.1887 18.9583 53.0393 18.7445C52.3409 18.9409 51.511 18.7634 50.9039 19.2359V19.2415ZM14.6602 13.8744C14.2956 14.063 13.9086 14.2025 13.5088 14.2893C13.7261 14.844 13.8705 15.5018 13.8597 15.7714C13.8662 16.275 13.0266 18.2187 12.541 18.2963C12.2836 19.1439 12.1066 20.058 11.6536 20.8212C11.1507 21.5113 8.72094 22.5541 9.0468 23.5947C9.11342 23.6459 9.15769 23.7218 9.17008 23.806C9.18247 23.8903 9.16199 23.9761 9.11305 24.0451C9.30965 24.3091 9.51711 24.5665 9.71371 24.8305C11.3832 26.9383 13.4773 28.8109 15.7963 30.1388C18.7496 31.2659 21.7442 32.3897 24.8942 32.7059C26.8493 32.8956 28.8044 32.7902 30.7595 32.9455C32.1944 33.0642 33.6043 33.3826 35.025 33.6C35.8863 33.711 36.7629 33.8752 37.5232 34.3045C38.126 33.8707 37.9164 33.6877 38.0532 33.3338C37.2821 32.8834 36.424 32.535 35.6321 32.1911C34.1224 31.2326 32.5604 30.4284 30.8388 29.9413C29.2541 29.289 27.8225 28.3272 26.4105 27.3565C21.8366 23.6557 17.2018 19.4867 15.0523 13.8045H15.0251C14.9007 13.8088 14.7777 13.8323 14.6602 13.8744ZM63.6046 23.4149C62.1132 25.1078 60.1787 26.2638 58.1606 27.1868C56.1979 28.122 54.2797 29.147 52.2811 30.0035C50.1576 30.9786 47.9777 31.7995 45.8118 32.6593C44.6616 33.2195 43.3788 33.711 42.3002 34.4531C42.3689 34.5034 42.4171 34.5776 42.436 34.6617C42.6728 34.6251 42.9107 34.5996 43.1464 34.5685C43.1868 34.5493 43.231 34.5394 43.2756 34.5397C44.0023 34.0515 47.3879 33.7043 47.8658 33.5313C50.8407 32.7205 53.871 32.1387 56.9311 31.7907C60.0343 31.0441 63.1951 30.5548 66.2929 29.786C69.4004 28.6356 72.4602 27.2023 75.1995 25.3031C75.3417 25.1388 75.5117 25.002 75.7014 24.8993L75.7448 24.876C75.0366 24.0928 74.5989 23.0633 74.4284 21.9827C73.7842 22.9168 72.7328 23.8565 71.5467 23.3406C71.2534 23.2618 70.8005 22.949 70.8048 22.6151C70.2794 22.7934 69.7293 22.8844 69.1756 22.8847C68.2882 22.85 67.4075 22.713 66.5503 22.4764C66.1158 22.3211 65.639 22.0904 65.1784 22.2545C65.2009 22.2439 65.2221 22.2305 65.2414 22.2146C65.0492 22.3089 64.8939 22.2856 64.7994 22.2068C64.3725 22.6772 63.7349 23.1942 63.6046 23.4183V23.4149ZM40.8263 52C40.6731 51.9834 40.5667 51.8591 40.4776 51.7437C40.2256 51.4109 39.9345 51.097 39.6727 50.773C37.8197 50.6909 39.0732 42.8655 38.7723 41.3013C38.7013 40.5867 38.7042 39.8664 38.781 39.1524C38.8103 38.154 38.7919 37.089 38.8472 36.0928C38.7775 36.0943 38.7094 36.0716 38.6539 36.0284C36.8921 34.3577 35.7582 34.401 33.5184 34.0316C30.8312 33.427 28.0875 33.5878 25.3645 33.4225C21.9463 33.1829 18.6769 31.9726 15.4976 30.7434C12.9613 29.2718 10.7374 27.2991 8.95556 24.9403C8.7557 24.5698 8.01167 23.9419 8.04099 23.4737C8.04099 23.4571 8.03339 23.4416 8.03013 23.4249C7.23831 23.5126 6.40086 23.8742 5.62859 23.5625C4.74878 23.2097 4.37622 22.259 3.85377 21.5379C2.01378 22.0626 0.0521367 20.4574 0 18.5426C0.0217236 18.0889 -0.0184651 17.3334 0.325854 17.015C0.750643 16.939 1.18749 16.9772 1.59343 17.1259C0.908047 16.2983 0.507246 15.2311 0.797256 14.1473C0.94389 13.1289 2.12348 13.353 2.82081 13.576C3.51597 13.8267 3.87115 14.5566 4.36101 15.0714C4.99426 15.8757 5.01272 16.9784 5.05834 17.9624C5.62207 18.7312 6.32266 19.4157 6.97436 20.1334C6.80564 19.7163 6.64598 19.2947 6.49536 18.8687C6.27052 18.2653 6.0359 17.6484 6.01092 16.9895C4.87586 16.5823 4.15681 13.9565 4.46855 12.8427C4.63256 11.9019 5.72308 10.8214 6.62353 11.578C7.21767 12.0894 7.65214 12.755 7.76076 13.5571C7.90631 14.3337 8.07901 15.1612 7.83462 15.9367C7.67386 16.3338 7.18291 17.2335 6.67892 16.9806C6.76799 17.979 7.24157 18.8865 7.56633 19.8173C7.74012 20.2876 7.98125 20.7325 8.15504 21.1995C8.35707 20.4352 8.68727 19.6974 8.95882 18.9553C8.1268 17.9879 7.6554 16.5258 8.46135 15.3931C8.77199 14.9194 9.19452 14.4402 9.7854 14.3947C10.1601 14.3115 10.5229 14.1872 10.7771 14.5777C10.7945 14.5988 10.8118 14.6188 10.8281 14.641C11.0266 14.2988 11.2961 14.0053 11.6178 13.7812C11.5954 13.7565 11.5743 13.7306 11.5548 13.7035C11.4904 13.6115 11.4399 13.5102 11.4049 13.4029C10.7184 13.5859 10.2101 12.9292 9.90705 12.39C9.70149 12.0292 9.57331 11.628 9.53099 11.2128C9.48867 10.7976 9.53318 10.3779 9.66158 9.98161C9.30259 9.69618 8.99149 9.35297 8.74049 8.96543C7.93564 9.15402 7.32846 8.74356 7.05583 7.967C6.75713 7.39235 6.44648 6.81104 6.43888 6.14209C6.42367 5.54525 6.37479 4.87519 6.71585 4.35823C7.97257 2.95931 9.70285 4.73874 9.9744 6.13321C10.0624 6.89091 10.1362 8.33087 9.40306 8.76353C9.57784 8.96829 9.76349 9.16309 9.95919 9.34705C10.0585 9.18728 10.1739 9.03856 10.3035 8.90331C10.7043 8.48175 11.2365 8.47176 11.6764 8.69918C11.2148 7.75844 11.0432 6.4516 11.192 5.70389C11.3462 4.83636 12.0609 3.15789 13.1221 3.39086C13.8738 3.78579 14.3169 5.15364 14.4017 5.97346C14.5103 7.24813 14.4429 8.81788 13.2634 9.56338C13.6327 11.1498 13.6468 11.6434 14.5831 12.4932C14.5711 12.4588 14.5581 12.4255 14.545 12.3934C13.8792 10.655 14.5125 8.28871 15.9571 7.14274C15.502 5.89803 16.624 4.4969 17.4571 3.68151C18.2772 3.1002 19.4394 2.58879 20.3898 3.15234C20.607 3.30655 20.9579 3.39641 21.0198 3.69704C21.0269 3.76066 21.018 3.82508 20.9941 3.88426C20.9701 3.94344 20.9319 3.99544 20.8829 4.0354C20.7386 4.57182 20.4847 5.0709 20.1378 5.49976C19.2341 6.49819 18.0838 7.58204 16.6533 7.47555C15.5356 8.17112 15.0414 9.52011 14.9415 10.8103C14.9046 11.365 15.0686 11.8908 15.2532 12.4078C15.2793 12.3834 15.3065 12.3612 15.3325 12.3412C15.3426 12.3457 15.3532 12.3491 15.364 12.3512H15.3825C15.3942 12.3549 15.4062 12.3575 15.4183 12.359L15.4781 12.369C15.5389 12.379 15.5997 12.3778 15.6606 12.3823C15.7214 12.3867 15.7605 12.3923 15.8094 12.3967C15.8582 12.4011 15.918 12.3967 15.9647 12.4067L16.1167 12.42C16.1689 12.42 16.2254 12.4311 16.2742 12.4333C16.3829 12.4333 16.4915 12.44 16.6001 12.4411H16.6273C16.772 12.4494 16.917 12.4494 17.0617 12.4411C17.7599 12.4474 18.4578 12.4104 19.1515 12.3301C19.1515 12.3002 19.1515 12.2702 19.1515 12.2403C19.1707 12.2183 19.1811 12.1898 19.1809 12.1604C19.1814 12.1571 19.1814 12.1537 19.1809 12.1504C19.2015 12.0395 19.2276 11.9285 19.2547 11.8254C19.2688 11.771 19.283 11.7144 19.2949 11.6601C19.3069 11.6057 19.3177 11.5558 19.334 11.5048C19.3666 11.4005 19.4003 11.2973 19.4329 11.1941C19.4333 11.1986 19.4333 11.203 19.4329 11.2075C19.4459 11.1708 19.4578 11.1342 19.472 11.0965C19.5154 10.9856 19.5589 10.8746 19.6034 10.7637C19.6479 10.6528 19.6957 10.5418 19.7489 10.4309C19.8022 10.32 19.8575 10.229 19.9075 10.1269C19.9575 10.0249 20.0161 9.91727 20.0726 9.8152C20.1063 9.75752 20.14 9.70426 20.1812 9.64658L20.2899 9.48572C20.3659 9.37479 20.4397 9.26385 20.5245 9.16844L20.5158 9.17954L20.5614 9.12518C20.5619 9.12336 20.5619 9.12145 20.5614 9.11963H20.5668C20.6597 9.0187 20.7583 8.9235 20.8623 8.83452L20.8514 8.84451C20.9329 8.77462 21.0165 8.70583 21.1012 8.64149C21.186 8.57715 21.2739 8.51946 21.3641 8.46288C21.4206 8.43051 21.479 8.40162 21.539 8.37636C21.6682 8.32644 21.7996 8.27873 21.9311 8.23324C22.0577 8.18855 22.1868 8.1515 22.3177 8.12231H22.3156L22.3525 8.11343C22.4915 8.0857 22.6317 8.06241 22.7718 8.04909C22.8297 8.06911 22.8889 8.08541 22.9488 8.09791L22.9619 8.10456C22.9901 8.12231 23.0173 8.14227 23.0433 8.16224C23.0542 8.17019 23.0644 8.1791 23.0737 8.18887C23.0879 8.22105 23.1009 8.25321 23.1128 8.28649C23.1248 8.31977 23.128 8.35638 23.1346 8.39188C23.1476 8.45955 23.1617 8.52723 23.1737 8.59601V8.58159C23.1737 8.59823 23.1737 8.61487 23.1737 8.63151C23.176 8.71258 23.1735 8.79371 23.1661 8.87446C23.1661 8.87446 23.1661 8.86448 23.1661 8.85893C23.1661 8.85338 23.1661 8.87668 23.1661 8.88666C23.1661 8.89665 23.1661 8.87557 23.1661 8.87113C23.1661 8.89776 23.1606 8.92549 23.1585 8.95322C23.153 8.98441 23.153 9.01634 23.1585 9.04752C23.1588 9.05047 23.1588 9.05345 23.1585 9.05639L23.1389 9.06971L23.178 9.09078C23.194 9.11124 23.2161 9.12569 23.241 9.13184C23.5256 9.32598 23.7385 9.64214 24.0013 9.86845C24.331 10.1815 24.5904 10.5638 24.7617 10.9889C24.7 10.5347 24.7334 10.0723 24.8594 9.63216C24.955 9.20838 25.1158 8.69252 25.5937 8.59933C26.0184 8.53028 26.4534 8.57227 26.858 8.72137C27.0535 7.86938 27.4011 6.96524 28.1614 6.60247C28.8055 6.17648 29.517 7.50883 29.807 7.97144C30.0763 8.52612 30.0926 9.15402 30.0676 9.75751C30.047 10.6849 30.1643 11.7866 29.4355 12.4799C29.7027 13.3785 29.9297 14.2937 30.2121 15.1879C30.3001 14.9471 30.4196 14.7097 30.4826 14.4989C30.6951 13.8834 30.8646 13.2531 30.9898 12.613C30.2903 11.3505 30.0589 9.87305 30.3381 8.45068C30.4967 7.60202 30.7487 6.58916 31.6415 6.27299C32.2661 6.02228 33.2654 5.7527 33.6607 6.49487C33.8563 7.26276 33.9075 8.06156 33.8117 8.84894C33.7031 9.64991 33.2187 10.3189 32.883 11.0344C32.6115 11.6723 32.2769 12.308 31.6632 12.6629C31.5296 13.4761 31.2635 14.2505 31.0018 15.0248C31.4156 14.8229 31.9196 14.8595 32.2628 14.5222C31.9934 13.0801 33.5391 9.86291 35.265 10.6972C35.8907 10.959 35.9667 11.73 35.9645 12.3357C36.0264 12.9192 35.719 13.4306 35.2922 13.7934C35 14.1018 32.7679 15.5529 32.4822 15.2123C32.0391 15.5229 31.4753 15.4852 31.0181 15.7781C30.9507 15.7999 30.8847 15.8258 30.8204 15.8557C30.8148 15.9065 30.7982 15.9555 30.7717 15.9988C30.7452 16.0422 30.7095 16.079 30.6672 16.1064L30.6737 16.153C30.7042 16.2131 30.7145 16.2817 30.7031 16.3483C30.7977 16.9621 30.9283 17.5697 31.0941 18.1676C31.7339 18.4283 31.8229 19.1661 31.6665 19.8894C32.6734 22.4808 34.2538 24.8427 36.0112 26.9693C37.1724 28.6334 38.1836 30.3995 39.399 32.0303C39.5554 32.3154 39.7314 32.5994 39.9095 32.8867C40.0197 32.8598 40.1284 32.8272 40.2354 32.7891C40.0594 29.9447 40.4885 27.0337 40.2582 24.1993C40.1496 21.4536 39.4751 18.7767 39.273 16.0465C39.2622 14.3924 39.8096 12.7694 40.4146 11.254C40.473 11.1222 40.5486 10.999 40.6394 10.888L40.6329 10.8758C40.2126 10.2856 39.7336 9.74753 39.0895 9.41139C36.966 9.93834 35.2009 7.11833 35.9917 5.21355C36.1991 4.86743 36.6684 5.08486 36.9866 5.10261C37.7632 5.19247 38.2824 5.78044 38.7126 6.3917C39.2787 7.09492 39.5728 7.98575 39.5391 8.89554C39.8685 9.07469 40.1692 9.304 40.4309 9.57558C40.3097 9.25804 40.2159 8.93026 40.1507 8.59601C40.0171 7.91264 39.7553 7.25367 39.6847 6.56143C38.4236 5.39881 37.7513 3.32541 38.7495 1.77229C38.9787 1.44947 39.2741 0.723939 39.7075 0.725049C39.8726 0.743908 40.0008 0.887016 40.1061 1.00572C40.6894 1.61918 41.0585 2.41182 41.1565 3.26106C41.2162 4.43145 41.3639 5.94795 40.3961 6.77443C40.5927 7.60757 40.7872 8.43071 41.0261 9.25053C41.0489 9.31377 41.0717 9.37589 41.0956 9.43913C41.1035 9.37581 41.1083 9.31213 41.1098 9.24832C41.1475 7.71886 41.4524 6.20858 42.0102 4.78866C41.4019 3.77581 41.3998 1.67356 42.0298 0.66847C42.5609 -0.376554 44.2727 -0.138038 44.5682 0.979095C44.8343 1.81889 44.6094 2.72635 44.2792 3.514C43.9708 4.29056 43.3017 4.85855 42.5718 5.19691C42.1033 6.40731 41.8428 7.69119 41.8017 8.99205C41.7979 9.12679 41.787 9.26122 41.7691 9.39476C42.2272 8.71682 42.7287 8.0705 43.2702 7.46002C42.3371 6.03005 44.3564 3.27881 45.9997 3.93778C46.9078 4.29721 46.7948 5.66284 46.3538 6.36618C46.2244 6.60732 46.0579 6.82568 45.8607 7.01294L45.9291 6.97189C46.5809 6.64685 48.625 5.63178 48.9346 6.72451C48.9732 6.94648 48.9787 7.17313 48.9509 7.39678H48.9596C49.9676 7.57428 50.2217 8.82565 50.2239 9.71536C50.2456 10.4919 49.9089 11.2308 49.5005 11.8686C49.4875 12.0084 49.4723 12.1482 49.4549 12.288C49.6475 12.1059 49.8859 11.9822 50.1435 11.9308C50.2174 11.9163 50.2934 11.9163 50.3673 11.9308C50.54 11.4415 50.8745 10.9079 51.3307 10.9756C51.7761 11.0799 52.0487 11.4016 52.1931 11.8187C52.1931 11.7078 52.1931 11.5968 52.1931 11.4859C52.1258 10.6605 52.2833 9.82186 52.8709 9.2106C53.2511 8.7369 54.2569 7.84053 54.8652 8.27208C55.3561 8.8667 55.8677 9.6854 55.771 10.4986C55.5353 11.9829 54.7859 13.5393 53.3054 14.0485C52.5603 15.1468 51.9564 16.346 51.3829 17.5464C51.3763 17.5664 51.3687 17.5852 51.3611 17.6041C51.6468 17.3367 51.9042 17.1148 52.0128 16.9995C52.5863 16.4281 53.3315 16.1231 54.031 15.7525C54.0777 15.3088 54.3069 14.905 54.4546 14.4867C54.6091 14.0013 54.8737 13.56 55.2268 13.1988C55.7265 12.653 56.603 12.2003 57.283 12.6763C57.523 12.8981 57.7533 13.2476 57.6469 13.5926C57.3134 15.1734 56.2348 16.102 54.662 16.1819C54.1189 16.5302 53.4944 16.7443 52.9578 17.1071C52.5049 17.4399 52.1128 17.8503 51.6957 18.2309C52.2007 18.1565 52.7254 18.1543 53.2163 18.009C53.8213 17.1548 55.1715 16.1774 56.1925 16.8708C56.2575 16.9158 56.3169 16.9687 56.3695 17.0283C57.2797 15.8335 58.216 14.6642 59.2142 13.5504C59.1056 13.3607 59.2761 13.0723 59.312 12.8438C59.4456 12.1271 59.3891 11.4016 59.3489 10.6794C59.2333 10.6595 59.1213 10.6221 59.0165 10.5685C58.1867 10.138 57.3699 9.24942 57.5078 8.23879C57.7338 7.31469 58.1237 6.11768 59.0763 5.77156C59.096 5.3889 59.1775 5.0122 59.3174 4.65665C59.5803 4.1186 59.9235 3.08023 60.5904 3.0292C62.4554 2.91827 62.8214 5.33225 62.7324 6.79107C62.6683 7.70519 62.135 8.50726 61.4615 9.08413C61.519 9.93051 61.4048 10.7799 61.1259 11.5791C61.3757 11.3402 61.6292 11.1065 61.8862 10.878C62.1035 10.7548 62.3989 10.4076 62.7009 10.1391C62.7486 10.0493 62.8019 9.96164 62.8377 9.88176C62.9869 9.53792 63.1189 9.18654 63.2331 8.82897C63.3004 8.6071 63.3417 8.38523 63.3938 8.16335C63.4017 8.12418 63.416 8.08667 63.4362 8.05242C63.459 7.67967 63.6936 7.18712 63.7458 6.93418C62.8996 5.7527 62.8877 3.71701 63.7012 2.52111C64.1748 1.79004 65.16 1.40287 65.9257 1.89987C66.8794 2.33585 66.8642 3.54063 66.7273 4.44476C66.5101 5.66506 65.4674 7.01294 64.2986 7.39456C64.1455 7.64417 64.1954 8.1334 64.0282 8.37746C63.9728 8.59933 63.8609 9.07082 63.7023 9.53786C64.215 9.28493 64.6799 8.95101 65.1611 8.6426C65.3783 7.23925 66.2212 5.84256 67.5105 5.23019C68.6477 4.6755 69.168 4.21844 69.8653 5.62512C70.3161 6.46047 70.0739 7.47333 69.509 8.18443C69.0322 8.86447 68.5163 9.66877 67.6408 9.80078C67.0141 9.89619 65.6564 10.0404 65.4152 9.27827C64.7809 9.74309 64.0825 10.097 63.3938 10.4675C62.7345 10.9878 62.1089 11.5414 61.5082 12.1205C61.9156 12.0292 62.3306 11.9787 62.7476 11.9696C63.3884 10.9423 64.7027 10.5452 65.8236 10.3887C66.3841 10.3355 67.1803 10.29 67.2748 11.0355C67.5137 12.1815 66.6763 12.9891 65.6683 13.3108C66.9815 13.2443 67.5474 15.0115 67.2628 16.153C67.1162 16.9229 66.3081 18.2608 65.6553 18.648C65.6553 19.3424 65.6759 20.038 65.6346 20.7314C65.9051 20.4252 66.1908 20.1356 66.295 19.9182C67.0021 18.892 67.6473 17.8004 68.4793 16.8741C67.8548 15.686 67.6571 14.0408 68.5641 12.9469C69.0854 12.3812 70.0239 11.5392 70.8146 11.9485C71.1904 12.43 71.0862 13.1422 71.1752 13.7235C71.3425 14.7952 70.8135 15.7869 70.189 16.6079C69.8023 17.1381 69.0496 17.0727 68.6987 17.6307C67.7527 18.9076 66.9131 20.261 65.9159 21.4957C66.6046 21.4369 67.2498 21.1208 67.8711 20.8135C68.4663 20.5439 69.1224 20.444 69.7002 20.1257C69.7002 19.206 69.7002 18.111 70.4236 17.4532C71.0014 16.924 71.9443 16.5158 72.7046 16.8253C73.0706 17.0472 73.7212 17.6019 73.3085 18.0534C73.2064 18.7467 72.7947 19.4201 72.2625 19.9204C72.8056 19.6875 73.4139 19.7463 73.8918 20.3298C74.0686 20.5029 74.2204 20.7009 74.3425 20.9178C74.3404 20.1711 74.4696 19.4301 74.7238 18.7301C74.777 18.6247 74.8226 18.4805 74.8791 18.3396C74.7021 18.1111 74.6217 17.7971 74.4555 17.563C74.1535 17.0494 73.8538 16.4537 73.9776 15.8369C74.2687 14.6875 75.1431 12.9425 76.2216 12.4156C76.8494 12.3179 77.2633 13.0812 77.5033 13.5704C77.7347 14.2638 77.6478 14.946 77.3882 15.5895C77.5199 15.467 77.6658 15.3616 77.8227 15.2755C78.1789 15.1779 78.4201 15.5795 78.6482 15.7947C79.6485 16.9041 79.125 19.0119 77.9313 19.7751C77.4968 20.9954 76.8777 22.1458 76.6279 23.4227C76.7427 23.3059 76.8464 23.1781 76.9374 23.0411C77.714 22.1602 78.4298 21.2284 79.1489 20.2976C79.3802 20.1013 79.7495 19.4212 80.1188 19.0274C79.5269 18.0744 79.4758 16.7843 79.8462 15.7259C80.1376 14.8754 80.7149 14.158 81.4755 13.7013C81.8013 13.597 82.0968 13.9232 82.2847 14.1451C84.0378 15.8557 82.427 19.5566 80.7391 19.3591C80.7085 19.3978 80.6758 19.4349 80.6413 19.47C79.4606 21.0353 78.1963 22.5308 76.9733 24.0595C76.9928 24.0495 77.0102 24.0406 77.0265 24.0306C77.6782 23.6867 78.3093 23.3151 78.9208 22.9068C79.5323 22.4986 80.1341 22.0338 80.7228 21.5756C80.927 21.4769 81.2257 21.1618 81.5265 20.9266C81.3919 20.2821 81.9501 19.4523 82.2597 18.9553C82.8691 18.1432 83.9726 18.0833 84.8969 18.0168C85.2293 17.9968 85.6899 17.9535 85.8202 18.2952C85.969 18.1022 86.1481 17.9357 86.3503 17.8026C86.9357 17.4088 88.0425 16.782 88.716 17.1659C88.8887 17.3312 88.8811 17.593 88.9115 17.816C88.9607 18.1745 88.9893 18.5356 88.9973 18.8976C89.0483 19.9027 88.3738 20.7014 87.6037 21.2339C87.343 21.4558 86.1678 22.0382 85.528 22.0105C84.0877 23.6645 80.9172 25.3918 79.0826 25.5893C78.6873 25.627 78.2669 25.5394 77.8455 25.4506C77.3024 25.3397 76.7593 25.2287 76.2781 25.3796C76.1108 25.5105 75.9121 25.6326 75.735 25.7457C75.7136 25.8204 75.6672 25.8851 75.6039 25.9285C75.5406 25.9719 75.4644 25.9912 75.3885 25.9831C75.3646 26.0031 75.344 26.0219 75.3244 26.0408C72.2495 27.9833 68.9497 29.7516 65.4402 30.7002C61.7841 31.3425 58.1986 32.3797 54.5089 32.7869C51.2188 33.2506 48.0711 34.279 44.793 34.7926C44.4671 34.8015 43.9241 35.0744 43.5417 35.0644C43.5068 35.1164 43.4588 35.1578 43.4027 35.1842C42.9193 35.3384 42.3839 35.2785 41.9016 35.4738C41.7604 35.5285 41.6192 35.5851 41.478 35.6435C41.3878 35.8143 41.2998 35.9863 41.2108 36.1582C41.2087 36.9884 41.1051 37.8149 40.9023 38.6188C40.672 39.96 40.5243 41.3135 40.3951 42.668C40.3527 43.3636 40.4168 44.0569 40.4548 44.7503C40.5091 45.6511 40.4103 46.5674 40.5634 47.4594C40.7068 48.1594 41.9124 51.9922 40.8219 51.9922L40.8263 52Z" fill="#2E2E2E"/>
<path d="M199.776 24.0363C200.105 23.0959 200.623 22.2345 201.297 21.5064C201.979 20.7746 202.802 20.1908 203.714 19.7906C205.743 18.9491 208.018 18.9491 210.047 19.7906C210.96 20.1911 211.782 20.7748 212.465 21.5064C213.138 22.235 213.656 23.0962 213.985 24.0363C214.679 26.0428 214.679 28.2279 213.985 30.2343C213.655 31.1742 213.138 32.0353 212.465 32.7642C211.781 33.4924 210.959 34.0728 210.047 34.4705C208.019 35.3145 205.743 35.3145 203.714 34.4705C202.803 34.0733 201.98 33.4928 201.297 32.7642C200.623 32.0358 200.106 31.1745 199.776 30.2343C199.081 28.2283 199.081 26.0423 199.776 24.0363ZM197.515 31.2448C197.986 32.4538 198.691 33.5556 199.588 34.4858C200.497 35.414 201.588 36.1394 202.791 36.6153C204.091 37.1325 205.477 37.3914 206.874 37.3779C208.265 37.3928 209.645 37.1338 210.939 36.6153C212.141 36.1351 213.232 35.4101 214.146 34.4853C215.06 33.5604 215.776 32.4555 216.25 31.239C217.25 28.5921 217.25 25.6651 216.25 23.0182C215.776 21.8018 215.06 20.6969 214.146 19.772C213.232 18.8472 212.141 18.1222 210.939 17.6419C209.645 17.1244 208.265 16.8654 206.874 16.8793C205.478 16.8668 204.091 17.1257 202.791 17.6419C201.589 18.1193 200.498 18.8445 199.588 19.7715C198.691 20.702 197.987 21.8038 197.515 23.0125C196.513 25.6589 196.513 28.5869 197.515 31.2333V31.2448ZM161.086 36.8746H163.586V27.1344C163.564 25.9396 163.741 24.7496 164.112 23.615C164.412 22.6966 164.894 21.8499 165.529 21.127C166.114 20.4749 166.841 19.9697 167.652 19.6514C168.483 19.3267 169.367 19.1624 170.258 19.1671C171.619 19.1671 172.624 19.7149 173.273 20.8105C173.922 21.9061 174.249 23.3538 174.253 25.1535V36.8746H176.751V25.9123C176.757 25.1595 176.848 24.4098 177.023 23.6779C177.2 22.8978 177.511 22.1551 177.942 21.4835C178.391 20.7915 178.998 20.2197 179.713 19.8173C180.467 19.3826 181.425 19.1652 182.589 19.1652C183.587 19.1652 184.401 19.3406 185.025 19.6914C185.628 20.0205 186.132 20.5087 186.483 21.1041C186.841 21.7226 187.088 22.4003 187.212 23.1059C187.353 23.8641 187.423 24.6338 187.422 25.4052V36.8727H189.926V25.2793C189.928 24.2315 189.823 23.1863 189.613 22.1603C189.423 21.198 189.038 20.2859 188.482 19.4817C187.904 18.6793 187.138 18.0347 186.253 17.6057C185.307 17.1291 184.085 16.8901 182.587 16.8889C181.251 16.8893 179.937 17.238 178.773 17.9012C177.565 18.5761 176.655 19.6444 176.045 21.106C175.572 19.6164 174.808 18.5412 173.752 17.8803C172.701 17.2213 171.488 16.8776 170.253 16.8889C168.808 16.8589 167.387 17.2637 166.169 18.0518C165.004 18.8259 164.17 19.7467 163.669 20.8143H163.547C163.469 20.383 163.434 19.9449 163.443 19.5065C163.428 18.8335 163.407 18.13 163.381 17.3998H160.879C160.879 17.6515 160.892 18.0099 160.92 18.4751C160.948 18.9403 160.967 19.4379 160.982 19.9717C160.997 20.5055 161.016 21.0317 161.044 21.5522C161.073 22.0726 161.086 22.5149 161.086 22.8867V36.8746ZM150.169 11.0283C150.478 11.3508 150.889 11.5544 151.33 11.6042C151.772 11.654 152.216 11.547 152.588 11.3014C152.96 11.0558 153.236 10.687 153.369 10.2581C153.502 9.82923 153.483 9.36699 153.316 8.95057C153.149 8.53415 152.844 8.18947 152.453 7.97558C152.063 7.76168 151.611 7.69189 151.175 7.77816C150.739 7.86442 150.346 8.10138 150.064 8.44842C149.782 8.79547 149.628 9.23101 149.628 9.68044C149.622 9.93055 149.668 10.1792 149.761 10.411C149.854 10.6428 149.992 10.8529 150.169 11.0283ZM152.752 17.396H150.253V40.5008C150.255 41.0364 150.22 41.5715 150.148 42.1022C150.092 42.5694 149.951 43.022 149.732 43.4368C149.515 43.8243 149.199 44.1446 148.816 44.3633C148.321 44.6237 147.767 44.7473 147.21 44.7217C146.667 44.7072 146.131 44.5929 145.628 44.3843L145.251 46.6187C145.889 46.8671 146.566 46.9963 147.25 47C148.362 47 149.272 46.8386 149.98 46.5157C150.657 46.2219 151.243 45.7483 151.676 45.145C152.11 44.5108 152.399 43.7875 152.524 43.0269C152.684 42.1222 152.76 41.2044 152.752 40.2853V17.396ZM126.835 25.4872C126.885 25.0037 126.997 24.5288 127.168 24.0744C127.432 23.3091 127.814 22.5905 128.299 21.9449C128.883 21.1635 129.612 20.5049 130.445 20.006C131.347 19.4442 132.477 19.1633 133.836 19.1633C134.729 19.1582 135.613 19.3298 136.44 19.6685C137.228 19.9856 137.949 20.4507 138.566 21.0393C139.159 21.6095 139.64 22.2889 139.983 23.0411C140.331 23.8081 140.508 24.6431 140.503 25.4872H126.835ZM140.589 31.6432C139.927 32.7323 138.973 33.6089 137.838 34.1712C136.694 34.778 135.422 35.0965 134.13 35.0997C132.657 35.0997 131.455 34.8188 130.526 34.257C129.651 33.7477 128.89 33.0595 128.293 32.2361C127.764 31.5084 127.375 30.6863 127.147 29.813C126.963 29.1487 126.858 28.4645 126.835 27.7749H143.009V26.0038C143.006 24.8678 142.808 23.7408 142.425 22.6732C142.044 21.591 141.456 20.5953 140.695 19.7429C139.903 18.8649 138.941 18.1614 137.869 17.6763C136.639 17.1319 135.307 16.8633 133.964 16.8889C132.631 16.8721 131.31 17.1384 130.085 17.6705C128.94 18.1753 127.906 18.9065 127.044 19.8211C126.172 20.7516 125.492 21.8481 125.043 23.0468C124.56 24.3398 124.32 25.7124 124.334 27.0943C124.317 28.5089 124.55 29.9151 125.022 31.2467C125.454 32.4532 126.128 33.5566 127 34.4877C127.87 35.4081 128.921 36.1336 130.085 36.6173C131.354 37.1397 132.715 37.399 134.085 37.3798C135.712 37.4001 137.324 37.0699 138.814 36.4113C140.244 35.7657 141.445 34.6974 142.419 33.2065L140.589 31.6432ZM101 36.8746H103.5V27.1344C103.476 25.9399 103.652 24.7499 104.02 23.615C104.321 22.6969 104.803 21.8504 105.437 21.127C106.023 20.4752 106.751 19.9701 107.563 19.6514C108.393 19.3265 109.276 19.1623 110.167 19.1671C111.172 19.1671 111.984 19.3425 112.605 19.6933C113.207 20.0235 113.711 20.5114 114.063 21.106C114.421 21.7248 114.668 22.4024 114.792 23.1079C114.932 23.8662 115.001 24.6358 115 25.4071V36.8746H117.5V25.2793C117.505 24.2318 117.403 23.1866 117.195 22.1603C117.007 21.1974 116.622 20.285 116.064 19.4817C115.487 18.6788 114.721 18.0341 113.835 17.6057C112.891 17.1291 111.668 16.8901 110.169 16.8889C108.721 16.8567 107.297 17.2616 106.078 18.0518C104.91 18.8259 104.076 19.7467 103.578 20.8143H103.495V5H101V36.8746Z" fill="#2E2E2E"/>
</svg>
