<svg width="32" height="27" viewBox="0 0 32 27" fill="none" xmlns="http://www.w3.org/2000/svg">
<path d="M8.0625 0.1875L11.8594 2.25C8.79688 5.9375 6.85938 9.09375 6.04688 11.7188C5.60938 13.1562 5.40625 14.5938 5.4375 16.0312H12.0469V26.9531H0V18.375C0 12.9688 1.875 7.8125 5.625 2.90625C6.4375 1.84375 7.25 0.9375 8.0625 0.1875ZM27.375 0.1875L31.1719 2.25C28.1094 5.9375 26.1719 9.09375 25.3594 11.7188C24.9219 13.1562 24.7188 14.5938 24.75 16.0312H31.3594V26.9531H19.3125V18.375C19.3125 12.9688 21.1875 7.8125 24.9375 2.90625C25.75 1.84375 26.5625 0.9375 27.375 0.1875Z" fill="black"/>
</svg>
