<svg width="19" height="19" fill="none" xmlns="http://www.w3.org/2000/svg"><path fill-rule="evenodd" clip-rule="evenodd" d="M8.985.046c0 .026-.14.046-.327.046-.188 0-.328.02-.328.046s-.105.046-.234.046-.234.021-.234.047c0 .025-.063.046-.14.046-.078 0-.14.02-.14.046 0 .025-.064.046-.141.046-.077 0-.14.02-.14.046 0 .025-.043.046-.094.046-.052 0-.094.02-.094.046s-.063.046-.14.046c-.077 0-.14.021-.14.047 0 .025-.038.046-.084.046-.046 0-.113.041-.15.092-.038.05-.1.092-.14.092-.041 0-.104.042-.141.092-.037.051-.1.093-.14.093-.04 0-.104.041-.141.092-.037.05-.095.092-.128.092-.074 0-.855.762-.855.834 0 .028-.063.11-.14.18-.077.072-.14.158-.14.193s-.043.094-.094.13c-.052.037-.094.1-.094.139 0 .04-.042.102-.093.138-.052.037-.094.103-.094.149 0 .045-.021.082-.047.082s-.047.041-.047.092c0 .05-.02.092-.046.092s-.047.042-.047.092c0 .051-.021.093-.047.093s-.047.041-.047.092c0 .05-.02.092-.047.092-.025 0-.046.042-.046.092 0 .051-.021.093-.047.093s-.047.062-.047.138c0 .076-.021.138-.047.138s-.047.042-.047.092c0 .051-.02.093-.046.093s-.047.062-.047.138c0 .076-.021.138-.047.138s-.047.063-.047.139c0 .076-.02.138-.047.138-.025 0-.046.083-.046.185 0 .101-.021.184-.047.184s-.047.083-.047.185c0 .101-.021.184-.047.184-.025 0-.047.083-.047.184 0 .102-.02.185-.046.185s-.047.083-.047.184v.185H0V19h19V6.272h-3.276v-.185c0-.101-.02-.184-.047-.184-.025 0-.046-.083-.046-.185 0-.101-.021-.184-.047-.184s-.047-.083-.047-.184c0-.102-.021-.185-.047-.185s-.047-.083-.047-.184c0-.102-.02-.185-.046-.185s-.047-.062-.047-.138c0-.076-.021-.139-.047-.139s-.047-.062-.047-.138c0-.076-.02-.138-.047-.138-.025 0-.046-.042-.046-.093 0-.05-.021-.092-.047-.092s-.047-.062-.047-.138c0-.076-.021-.138-.047-.138s-.047-.042-.047-.093c0-.05-.02-.092-.046-.092s-.047-.041-.047-.092c0-.05-.021-.092-.047-.092s-.047-.042-.047-.093c0-.05-.02-.092-.047-.092-.025 0-.046-.041-.046-.092 0-.05-.021-.092-.047-.092s-.047-.037-.047-.082c0-.046-.042-.112-.094-.149-.051-.036-.093-.099-.093-.138 0-.04-.042-.102-.094-.139-.051-.036-.093-.095-.093-.13s-.064-.121-.14-.192c-.078-.071-.141-.153-.141-.181 0-.067-.778-.834-.846-.834-.03 0-.112-.062-.184-.138-.072-.076-.165-.139-.206-.139-.04 0-.075-.02-.075-.046 0-.025-.037-.046-.083-.046-.046 0-.113-.041-.15-.092-.038-.05-.105-.092-.151-.092S12.168.625 12.168.6c0-.026-.064-.047-.14-.047-.078 0-.141-.02-.141-.046 0-.025-.042-.046-.094-.046-.051 0-.093-.02-.093-.046 0-.025-.064-.046-.14-.046-.078 0-.141-.02-.141-.046s-.064-.046-.14-.046c-.078 0-.141-.021-.141-.046 0-.026-.105-.047-.234-.047s-.234-.02-.234-.046-.14-.046-.328-.046c-.187 0-.327-.02-.327-.046C10.015.018 9.812 0 9.5 0s-.515.018-.515.046zm1.123 1.291c0 .026.125.046.281.046.156 0 .281.021.281.047 0 .025.084.046.187.046s.187.02.187.046c0 .025.042.046.094.046.051 0 .094.02.094.046 0 .025.063.046.14.046.077 0 .14.021.14.046 0 .026.038.046.084.046.045 0 .113.042.15.093.037.05.1.092.14.092.04 0 .104.041.141.092.037.05.095.092.128.092.079 0 .948.857.948.935 0 .033.043.09.094.126.052.037.094.099.094.138 0 .04.042.102.093.139.052.036.094.103.094.148s.02.082.047.082c.025 0 .046.042.046.093 0 .05.021.092.047.092s.047.041.047.092c0 .05.021.092.047.092s.047.042.047.092c0 .051.02.093.046.093s.047.041.047.092c0 .05.021.092.047.092s.047.062.047.139c0 .076.02.138.047.138.025 0 .046.062.046.138 0 .076.021.139.047.139s.047.062.047.138c0 .076.021.138.047.138s.047.083.047.185c0 .101.02.184.046.184s.047.083.047.185c0 .101.021.184.047.184s.047.062.047.138v.139H4.586v-.139c0-.076.021-.138.047-.138s.047-.083.047-.184c0-.102.02-.185.047-.185.025 0 .046-.083.046-.184 0-.102.021-.185.047-.185s.047-.062.047-.138c0-.076.021-.138.047-.138s.047-.063.047-.139c0-.076.02-.138.046-.138s.047-.062.047-.138c0-.077.021-.139.047-.139s.047-.041.047-.092c0-.05.02-.092.047-.092.025 0 .046-.042.046-.093 0-.05.021-.092.047-.092s.047-.041.047-.092c0-.05.021-.092.047-.092s.047-.042.047-.092c0-.051.02-.093.046-.093s.047-.037.047-.082c0-.045.042-.112.094-.148.051-.037.093-.1.093-.139 0-.04.042-.101.094-.138.051-.037.094-.093.094-.126 0-.078.87-.935.948-.935.033 0 .09-.041.128-.092.037-.05.1-.092.14-.092.04 0 .104-.042.14-.092.038-.051.106-.093.151-.093.046 0 .084-.02.084-.046 0-.025.063-.046.14-.046.077 0 .14-.02.14-.046 0-.025.064-.046.14-.046.078 0 .141-.02.141-.046s.063-.046.14-.046c.078 0 .141-.021.141-.046 0-.026.125-.046.28-.046.157 0 .282-.021.282-.047 0-.028.234-.046.608-.046s.608.018.608.046zM3.088 7.84c0 .154-.02.277-.046.277-.03 0-.047.26-.047.691V9.5h1.31v-.784c0-.492.018-.784.047-.784.026 0 .047-.083.047-.184v-.185h10.202v.185c0 .101.021.184.047.184.03 0 .047.292.047.784V9.5h1.31v-.646c0-.4-.018-.645-.047-.645-.027 0-.047-.139-.047-.323v-.323h1.872v5.053c0 4.318-.01 5.063-.067 5.12-.057.056-1.218.065-8.236.065H1.31V7.563h1.78v.277z" fill="#000"/></svg>