<svg width="1234" height="245" fill="none" xmlns="http://www.w3.org/2000/svg"><path d="M53.375 65.75c0-3.25-.542-6.292-1.625-9.125-1-2.833-2.458-5.292-4.375-7.375-1.917-2.083-4.25-3.708-7-4.875-2.667-1.25-5.708-1.875-9.125-1.875s-6.542.625-9.375 1.875c-2.833 1.167-5.292 2.792-7.375 4.875s-3.708 4.542-4.875 7.375c-1.167 2.833-1.75 5.875-1.75 9.125s.583 6.292 1.75 9.125 2.792 5.292 4.875 7.375 4.542 3.75 7.375 5C24.708 88.417 27.833 89 31.25 89s6.458-.583 9.125-1.75c2.75-1.25 5.083-2.917 7-5 1.917-2.083 3.375-4.542 4.375-7.375 1.083-2.833 1.625-5.875 1.625-9.125zM0 .5h8.25v45.75h.25c1.333-2 2.917-3.708 4.75-5.125a29.49 29.49 0 0 1 5.75-3.5 27.71 27.71 0 0 1 6.125-2c2.167-.417 4.208-.625 6.125-.625 4.583 0 8.75.792 12.5 2.375 3.833 1.5 7.125 3.625 9.875 6.375s4.875 6 6.375 9.75c1.583 3.75 2.375 7.833 2.375 12.25S61.583 74.25 60 78c-1.5 3.75-3.625 7-6.375 9.75s-6.042 4.917-9.875 6.5c-3.75 1.5-7.917 2.25-12.5 2.25-1.917 0-3.958-.208-6.125-.625a27.705 27.705 0 0 1-6.125-2 29.49 29.49 0 0 1-5.75-3.5A21.467 21.467 0 0 1 8.5 85.25h-.25V95H0V.5zM86.541 95h-8.25V.5h8.25V95zm62.154 0a95.689 95.689 0 0 1-.375-4.625v-4.75h-.25c-.916 1.583-2.083 3.042-3.5 4.375-1.416 1.333-3 2.5-4.75 3.5a25.292 25.292 0 0 1-5.625 2.125 19.655 19.655 0 0 1-5.75.875c-7.5 0-13.041-1.958-16.625-5.875-3.583-4-5.375-9.667-5.375-17V36.5h8.25v32.375c0 3.25.25 6.125.75 8.625s1.334 4.625 2.5 6.375c1.25 1.667 2.875 2.958 4.875 3.875 2.084.833 4.667 1.25 7.75 1.25.417 0 1.584-.167 3.5-.5 1.917-.333 3.917-1.25 6-2.75 2.167-1.5 4.084-3.75 5.75-6.75 1.667-3 2.5-7.167 2.5-12.5v-30h8.25v45.625c0 1.583.042 3.583.125 6 .167 2.417.334 4.708.5 6.875h-8.5zm27.208-45.5a84.55 84.55 0 0 0-.25-6.5 168.512 168.512 0 0 0-.375-6.5h8.875v8.875h.25c2-3.417 4.75-6 8.25-7.75 3.584-1.75 7.125-2.625 10.625-2.625 1.584 0 3.25.167 5 .5a17.21 17.21 0 0 1 5.25 1.875c1.667.833 3.209 2.042 4.625 3.625 1.5 1.583 2.75 3.625 3.75 6.125 1.667-3.75 4.292-6.708 7.875-8.875 3.667-2.167 7.459-3.25 11.375-3.25 7.5 0 13.042 2 16.625 6 3.584 3.917 5.375 9.542 5.375 16.875V95h-8.25V60.875c0-5.917-1.041-10.458-3.125-13.625-2.083-3.167-5.958-4.75-11.625-4.75-3.083 0-5.666.625-7.75 1.875a14.738 14.738 0 0 0-5.125 4.75c-1.25 2-2.166 4.292-2.75 6.875-.583 2.5-.875 5.125-.875 7.875V95h-8.25V60.875c0-5.917-1.041-10.458-3.125-13.625-2.083-3.167-5.958-4.75-11.625-4.75-.5 0-1.666.167-3.5.5-1.75.333-3.583 1.25-5.5 2.75-1.916 1.5-3.666 3.75-5.25 6.75-1.5 3-2.25 7.167-2.25 12.5v30h-8.25V49.5zm151.946 11.75c0-5.583-1.667-10.083-5-13.5-3.334-3.5-8-5.25-14-5.25-2.667 0-5.25.542-7.75 1.625-2.5 1-4.709 2.375-6.625 4.125a22.628 22.628 0 0 0-4.5 6c-1.084 2.25-1.625 4.583-1.625 7h39.5zM288.099 68c.25 2.917.958 5.667 2.125 8.25 1.166 2.583 2.708 4.833 4.625 6.75a22.347 22.347 0 0 0 6.625 4.375c2.5 1.083 5.208 1.625 8.125 1.625 4.416 0 8.208-1 11.375-3 3.25-2.083 5.708-4.458 7.375-7.125l6.375 5.25c-3.5 4.417-7.375 7.583-11.625 9.5-4.167 1.917-8.667 2.875-13.5 2.875-4.334 0-8.375-.75-12.125-2.25-3.667-1.583-6.834-3.75-9.5-6.5-2.667-2.75-4.792-6-6.375-9.75-1.5-3.75-2.25-7.833-2.25-12.25s.75-8.5 2.25-12.25 3.583-7 6.25-9.75c2.666-2.75 5.791-4.875 9.375-6.375 3.583-1.583 7.458-2.375 11.625-2.375 4.416 0 8.375.792 11.875 2.375s6.416 3.708 8.75 6.375c2.416 2.583 4.25 5.667 5.5 9.25 1.25 3.5 1.875 7.25 1.875 11.25V68h-48.75zm71.583-31.5c.166 1.583.25 3.167.25 4.75.083 1.5.125 3.042.125 4.625h.25c.916-1.583 2.083-3.042 3.5-4.375a21.35 21.35 0 0 1 4.75-3.375c1.75-1 3.583-1.75 5.5-2.25 2-.583 3.958-.875 5.875-.875 7.5 0 13.041 2 16.625 6 3.583 3.917 5.375 9.542 5.375 16.875V95h-8.25V62.625c0-6.5-1.125-11.458-3.375-14.875-2.25-3.5-6.417-5.25-12.5-5.25-.417 0-1.584.167-3.5.5-1.917.333-3.959 1.25-6.125 2.75-2.084 1.5-3.959 3.75-5.625 6.75-1.667 3-2.5 7.167-2.5 12.5v30h-8.25V49.375c0-1.583-.084-3.583-.25-6a165.376 165.376 0 0 0-.375-6.875h8.5zm129.623 29.375c-2.084 0-4.709.125-7.875.375a40.63 40.63 0 0 0-9 1.5c-2.834.75-5.292 1.958-7.375 3.625-2 1.667-3 3.958-3 6.875 0 1.917.375 3.583 1.125 5a11.382 11.382 0 0 0 3.25 3.375 15.764 15.764 0 0 0 4.375 1.875c1.666.333 3.333.5 5 .5 3 0 5.583-.5 7.75-1.5 2.25-1 4.125-2.333 5.625-4 1.5-1.75 2.583-3.75 3.25-6 .75-2.333 1.125-4.792 1.125-7.375v-4.25h-4.25zm4.25-6.75v-1.5c0-10.083-5-15.125-15-15.125-6.834 0-12.792 2.292-17.875 6.875l-5-5.875c5.5-5.667 13.75-8.5 24.75-8.5 2.833 0 5.541.417 8.125 1.25 2.666.833 4.958 2.125 6.875 3.875 1.916 1.667 3.458 3.792 4.625 6.375 1.166 2.583 1.75 5.667 1.75 9.25v26.125c0 2.25.083 4.625.25 7.125.25 2.417.5 4.417.75 6h-8a62.134 62.134 0 0 1-.625-4.625 96.866 96.866 0 0 1-.125-4.875h-.25c-2.417 3.917-5.292 6.75-8.625 8.5-3.25 1.667-7.25 2.5-12 2.5-2.584 0-5.084-.375-7.5-1.125-2.417-.667-4.584-1.708-6.5-3.125a18.64 18.64 0 0 1-4.5-5.375c-1.084-2.167-1.625-4.667-1.625-7.5 0-4.75 1.208-8.458 3.625-11.125 2.5-2.75 5.583-4.792 9.25-6.125 3.75-1.333 7.708-2.167 11.875-2.5 4.25-.333 8.125-.5 11.625-.5h4.125zM563.124 95a93.212 93.212 0 0 1-.375-4.625v-4.75h-.25a19.24 19.24 0 0 1-3.5 4.375c-1.417 1.333-3 2.5-4.75 3.5a25.292 25.292 0 0 1-5.625 2.125 19.66 19.66 0 0 1-5.75.875c-7.5 0-13.042-1.958-16.625-5.875-3.583-4-5.375-9.667-5.375-17V36.5h8.25v32.375c0 3.25.25 6.125.75 8.625s1.333 4.625 2.5 6.375c1.25 1.667 2.875 2.958 4.875 3.875 2.083.833 4.667 1.25 7.75 1.25.417 0 1.583-.167 3.5-.5 1.917-.333 3.917-1.25 6-2.75 2.167-1.5 4.083-3.75 5.75-6.75 1.667-3 2.5-7.167 2.5-12.5v-30h8.25v45.625c0 1.583.042 3.583.125 6 .167 2.417.333 4.708.5 6.875h-8.5zm58.208-44.625c-1.25-2.417-2.917-4.333-5-5.75-2.083-1.417-4.625-2.125-7.625-2.125-1.417 0-2.875.167-4.375.5a12.325 12.325 0 0 0-3.875 1.625 8.69 8.69 0 0 0-2.875 2.625c-.667 1.083-1 2.417-1 4 0 2.75.958 4.75 2.875 6s4.792 2.333 8.625 3.25l8.375 2c4.083.917 7.458 2.792 10.125 5.625 2.75 2.75 4.125 6.208 4.125 10.375 0 3.167-.667 5.917-2 8.25-1.25 2.25-2.958 4.125-5.125 5.625-2.083 1.417-4.5 2.458-7.25 3.125-2.75.667-5.542 1-8.375 1-4.5 0-8.708-.833-12.625-2.5-3.833-1.75-7.125-4.708-9.875-8.875l7.125-4.875c1.667 2.667 3.75 4.792 6.25 6.375 2.583 1.583 5.625 2.375 9.125 2.375a25.44 25.44 0 0 0 5-.5c1.667-.417 3.125-1 4.375-1.75 1.333-.833 2.375-1.875 3.125-3.125.833-1.25 1.25-2.708 1.25-4.375 0-2.917-1.083-5-3.25-6.25-2.167-1.333-4.792-2.375-7.875-3.125l-8-1.875c-1-.25-2.375-.667-4.125-1.25-1.667-.583-3.333-1.458-5-2.625-1.583-1.167-2.958-2.667-4.125-4.5-1.167-1.917-1.75-4.25-1.75-7 0-3 .583-5.625 1.75-7.875 1.25-2.25 2.875-4.083 4.875-5.5 2.083-1.417 4.417-2.458 7-3.125a28.546 28.546 0 0 1 8-1.125c4.083 0 7.875.792 11.375 2.375s6.208 4.292 8.125 8.125l-7.375 4.875zm-312.012 120c-1.25-2.417-2.916-4.333-5-5.75-2.083-1.417-4.625-2.125-7.625-2.125-1.416 0-2.875.167-4.375.5a12.328 12.328 0 0 0-3.875 1.625 8.706 8.706 0 0 0-2.875 2.625c-.666 1.083-1 2.417-1 4 0 2.75.959 4.75 2.875 6 1.917 1.25 4.792 2.333 8.625 3.25l8.375 2c4.084.917 7.459 2.792 10.125 5.625 2.75 2.75 4.125 6.208 4.125 10.375 0 3.167-.666 5.917-2 8.25-1.25 2.25-2.958 4.125-5.125 5.625-2.083 1.417-4.5 2.458-7.25 3.125a35.4 35.4 0 0 1-8.375 1c-4.5 0-8.708-.833-12.625-2.5-3.833-1.75-7.125-4.708-9.875-8.875l7.125-4.875c1.667 2.667 3.75 4.792 6.25 6.375 2.584 1.583 5.625 2.375 9.125 2.375 1.667 0 3.334-.167 5-.5 1.667-.417 3.125-1 4.375-1.75 1.334-.833 2.375-1.875 3.125-3.125.834-1.25 1.25-2.708 1.25-4.375 0-2.917-1.083-5-3.25-6.25-2.166-1.333-4.791-2.375-7.875-3.125l-8-1.875c-1-.25-2.375-.667-4.125-1.25-1.666-.583-3.333-1.458-5-2.625-1.583-1.167-2.958-2.667-4.125-4.5-1.166-1.917-1.75-4.25-1.75-7 0-3 .584-5.625 1.75-7.875 1.25-2.25 2.875-4.083 4.875-5.5 2.084-1.417 4.417-2.458 7-3.125a28.55 28.55 0 0 1 8-1.125c4.084 0 7.875.792 11.375 2.375s6.209 4.292 8.125 8.125l-7.375 4.875zm64.848-.125c-1.417-2.167-3.417-4-6-5.5-2.5-1.5-5.375-2.25-8.625-2.25-3.417-.083-6.5.458-9.25 1.625-2.667 1.167-4.958 2.792-6.875 4.875-1.917 2.083-3.375 4.583-4.375 7.5-1 2.833-1.5 5.917-1.5 9.25s.5 6.458 1.5 9.375c1 2.833 2.458 5.292 4.375 7.375 1.917 2.083 4.208 3.708 6.875 4.875 2.75 1.167 5.833 1.708 9.25 1.625 3.25 0 6.125-.75 8.625-2.25 2.583-1.5 4.583-3.333 6-5.5l6.75 5.125c-2.917 3.417-6.208 5.958-9.875 7.625a30.335 30.335 0 0 1-11.5 2.5c-4.75.083-9.042-.625-12.875-2.125-3.833-1.583-7.125-3.75-9.875-6.5-2.667-2.75-4.708-6-6.125-9.75-1.417-3.833-2.125-7.958-2.125-12.375s.708-8.5 2.125-12.25c1.417-3.833 3.458-7.125 6.125-9.875 2.75-2.75 6.042-4.875 9.875-6.375 3.833-1.583 8.125-2.333 12.875-2.25 4 .083 7.833.958 11.5 2.625 3.667 1.583 6.958 4.083 9.875 7.5l-6.75 5.125zm17.678-49.75h8.25v45.375h.25c.916-1.583 2.083-3.042 3.5-4.375a21.35 21.35 0 0 1 4.75-3.375c1.75-1 3.583-1.75 5.5-2.25 2-.583 3.958-.875 5.875-.875 7.5 0 13.041 2 16.625 6 3.583 3.917 5.375 9.542 5.375 16.875V215h-8.25v-32.375c0-6.5-1.125-11.458-3.375-14.875-2.25-3.5-6.417-5.25-12.5-5.25-.417 0-1.584.167-3.5.5-1.917.333-3.959 1.25-6.125 2.75-2.084 1.5-3.959 3.75-5.625 6.75-1.667 3-2.5 7.167-2.5 12.5v30h-8.25v-94.5zm71.958 36l13.5 47.5h.25l15.625-47.5h8.5l15.625 47.5h.25l13.5-47.5h9.75l-18.5 58.5h-9.25l-15.5-48h-.25l-15.5 48h-9.25l-18.5-58.5h9.75zm120.96 29.375c-2.084 0-4.709.125-7.875.375a40.665 40.665 0 0 0-9 1.5c-2.834.75-5.292 1.958-7.375 3.625-2 1.667-3 3.958-3 6.875 0 1.917.375 3.583 1.125 5a11.389 11.389 0 0 0 3.25 3.375 15.782 15.782 0 0 0 4.375 1.875c1.666.333 3.333.5 5 .5 3 0 5.583-.5 7.75-1.5 2.25-1 4.125-2.333 5.625-4 1.5-1.75 2.583-3.75 3.25-6 .75-2.333 1.125-4.792 1.125-7.375v-4.25h-4.25zm4.25-6.75v-1.5c0-10.083-5-15.125-15-15.125-6.834 0-12.792 2.292-17.875 6.875l-5-5.875c5.5-5.667 13.75-8.5 24.75-8.5 2.833 0 5.541.417 8.125 1.25 2.666.833 4.958 2.125 6.875 3.875 1.916 1.667 3.458 3.792 4.625 6.375 1.166 2.583 1.75 5.667 1.75 9.25v26.125c0 2.25.083 4.625.25 7.125.25 2.417.5 4.417.75 6h-8a62.134 62.134 0 0 1-.625-4.625 96.884 96.884 0 0 1-.125-4.875h-.25c-2.417 3.917-5.292 6.75-8.625 8.5-3.25 1.667-7.25 2.5-12 2.5-2.584 0-5.084-.375-7.5-1.125-2.417-.667-4.584-1.708-6.5-3.125a18.645 18.645 0 0 1-4.5-5.375c-1.084-2.167-1.625-4.667-1.625-7.5 0-4.75 1.208-8.458 3.625-11.125 2.5-2.75 5.583-4.792 9.25-6.125 3.75-1.333 7.708-2.167 11.875-2.5 4.25-.333 8.125-.5 11.625-.5h4.125zm27.319-9.625a84.55 84.55 0 0 0-.25-6.5 168.512 168.512 0 0 0-.375-6.5h8.875v8.875h.25c2-3.417 4.75-6 8.25-7.75 3.583-1.75 7.125-2.625 10.625-2.625 1.583 0 3.25.167 5 .5 1.833.333 3.583.958 5.25 1.875 1.667.833 3.208 2.042 4.625 3.625 1.5 1.583 2.75 3.625 3.75 6.125 1.667-3.75 4.292-6.708 7.875-8.875 3.667-2.167 7.458-3.25 11.375-3.25 7.5 0 13.042 2 16.625 6 3.583 3.917 5.375 9.542 5.375 16.875V215h-8.25v-34.125c0-5.917-1.042-10.458-3.125-13.625s-5.958-4.75-11.625-4.75c-3.083 0-5.667.625-7.75 1.875a14.732 14.732 0 0 0-5.125 4.75c-1.25 2-2.167 4.292-2.75 6.875-.583 2.5-.875 5.125-.875 7.875V215h-8.25v-34.125c0-5.917-1.042-10.458-3.125-13.625s-5.958-4.75-11.625-4.75c-.5 0-1.667.167-3.5.5-1.75.333-3.583 1.25-5.5 2.75-1.917 1.5-3.667 3.75-5.25 6.75-1.5 3-2.25 7.167-2.25 12.5v30h-8.25v-45.5zm151.945 11.75c0-5.583-1.666-10.083-5-13.5-3.333-3.5-8-5.25-14-5.25-2.666 0-5.25.542-7.75 1.625-2.5 1-4.708 2.375-6.625 4.125a22.67 22.67 0 0 0-4.5 6c-1.083 2.25-1.625 4.583-1.625 7h39.5zm-39.75 6.75c.25 2.917.959 5.667 2.125 8.25 1.167 2.583 2.709 4.833 4.625 6.75a22.36 22.36 0 0 0 6.625 4.375c2.5 1.083 5.209 1.625 8.125 1.625 4.417 0 8.209-1 11.375-3 3.25-2.083 5.709-4.458 7.375-7.125l6.375 5.25c-3.5 4.417-7.375 7.583-11.625 9.5-4.166 1.917-8.666 2.875-13.5 2.875-4.333 0-8.375-.75-12.125-2.25-3.666-1.583-6.833-3.75-9.5-6.5-2.666-2.75-4.791-6-6.375-9.75-1.5-3.75-2.25-7.833-2.25-12.25s.75-8.5 2.25-12.25 3.584-7 6.25-9.75c2.667-2.75 5.792-4.875 9.375-6.375 3.584-1.583 7.459-2.375 11.625-2.375 4.417 0 8.375.792 11.875 2.375s6.417 3.708 8.75 6.375c2.417 2.583 4.25 5.667 5.5 9.25 1.25 3.5 1.875 7.25 1.875 11.25V188h-48.75zm71.583-31.5c.167 1.583.25 3.167.25 4.75.084 1.5.125 3.042.125 4.625h.25c.917-1.583 2.084-3.042 3.5-4.375 1.417-1.333 3-2.458 4.75-3.375 1.75-1 3.584-1.75 5.5-2.25 2-.583 3.959-.875 5.875-.875 7.5 0 13.042 2 16.625 6 3.584 3.917 5.375 9.542 5.375 16.875V215h-8.25v-32.375c0-6.5-1.125-11.458-3.375-14.875-2.25-3.5-6.416-5.25-12.5-5.25-.416 0-1.583.167-3.5.5-1.916.333-3.958 1.25-6.125 2.75-2.083 1.5-3.958 3.75-5.625 6.75-1.666 3-2.5 7.167-2.5 12.5v30h-8.25v-45.625c0-1.583-.083-3.583-.25-6a161.99 161.99 0 0 0-.375-6.875h8.5zm66.583 29.25c0 3.25.5 6.292 1.5 9.125 1.084 2.833 2.584 5.292 4.5 7.375 1.917 2.083 4.209 3.75 6.875 5 2.75 1.167 5.834 1.75 9.25 1.75 3.334 0 6.417-.583 9.25-1.75 2.917-1.25 5.417-2.917 7.5-5 2.084-2.083 3.709-4.542 4.875-7.375 1.167-2.833 1.75-5.875 1.75-9.125s-.583-6.292-1.75-9.125c-1.166-2.833-2.791-5.292-4.875-7.375-2.083-2.083-4.583-3.708-7.5-4.875-2.833-1.25-5.916-1.875-9.25-1.875-3.416 0-6.5.625-9.25 1.875-2.666 1.167-4.958 2.792-6.875 4.875-1.916 2.083-3.416 4.542-4.5 7.375-1 2.833-1.5 5.875-1.5 9.125zM920.069 215h-8.25v-9.75h-.25a21.452 21.452 0 0 1-4.75 5.125 29.48 29.48 0 0 1-5.75 3.5 27.33 27.33 0 0 1-6.25 2c-2.083.417-4.083.625-6 .625-4.583 0-8.791-.75-12.625-2.25-3.75-1.583-7-3.75-9.75-6.5s-4.916-6-6.5-9.75c-1.5-3.75-2.25-7.833-2.25-12.25s.75-8.5 2.25-12.25c1.584-3.75 3.75-7 6.5-9.75s6-4.875 9.75-6.375c3.834-1.583 8.042-2.375 12.625-2.375 1.917 0 3.917.208 6 .625a27.33 27.33 0 0 1 6.25 2 29.48 29.48 0 0 1 5.75 3.5 21.452 21.452 0 0 1 4.75 5.125h.25V120.5h8.25V215zm30.041-81c0 1.75-.625 3.208-1.875 4.375-1.25 1.083-2.625 1.625-4.125 1.625s-2.875-.542-4.125-1.625c-1.25-1.167-1.875-2.625-1.875-4.375s.625-3.167 1.875-4.25c1.25-1.167 2.625-1.75 4.125-1.75s2.875.583 4.125 1.75c1.25 1.083 1.875 2.5 1.875 4.25zm-1.875 81h-8.25v-58.5h8.25V215zm27.78-58.5c.166 1.583.25 3.167.25 4.75.083 1.5.125 3.042.125 4.625h.25c.916-1.583 2.083-3.042 3.5-4.375a21.35 21.35 0 0 1 4.75-3.375c1.75-1 3.583-1.75 5.5-2.25 2-.583 3.958-.875 5.875-.875 7.495 0 13.045 2 16.625 6 3.58 3.917 5.37 9.542 5.37 16.875V215h-8.25v-32.375c0-6.5-1.12-11.458-3.37-14.875-2.25-3.5-6.42-5.25-12.5-5.25-.417 0-1.584.167-3.5.5-1.917.333-3.959 1.25-6.125 2.75-2.084 1.5-3.959 3.75-5.625 6.75-1.667 3-2.5 7.167-2.5 12.5v30h-8.25v-45.625c0-1.583-.084-3.583-.25-6a165.376 165.376 0 0 0-.375-6.875h8.5zM1043.6 185c0 3.083.54 6 1.62 8.75 1.17 2.667 2.71 5.042 4.63 7.125 2 2 4.29 3.625 6.87 4.875 2.67 1.167 5.54 1.75 8.63 1.75 3 0 5.83-.542 8.5-1.625 2.75-1.083 5.16-2.583 7.25-4.5 2.08-2 3.66-4.375 4.75-7.125 1.16-2.75 1.71-5.833 1.62-9.25 0-3.083-.5-5.958-1.5-8.625-1-2.75-2.46-5.125-4.37-7.125-1.92-2.083-4.25-3.708-7-4.875-2.75-1.25-5.84-1.875-9.25-1.875-3.09 0-5.96.625-8.63 1.875a22.05 22.05 0 0 0-6.87 4.875c-1.92 2-3.46 4.375-4.63 7.125-1.08 2.667-1.62 5.542-1.62 8.625zm-1.5 41.75c2.41 3.25 5.54 5.833 9.37 7.75 3.92 2 8.25 3 13 3 4.17 0 7.71-.625 10.63-1.875 2.91-1.167 5.25-2.792 7-4.875 1.83-2.083 3.12-4.542 3.87-7.375.84-2.75 1.25-5.708 1.25-8.875V204h-.25c-2.66 4-5.91 6.833-9.75 8.5-3.83 1.667-7.87 2.5-12.12 2.5-4.25 0-8.25-.75-12-2.25-3.67-1.5-6.88-3.542-9.63-6.125-2.75-2.667-4.91-5.833-6.5-9.5-1.58-3.667-2.37-7.625-2.37-11.875s.75-8.208 2.25-11.875 3.54-6.875 6.12-9.625a27.934 27.934 0 0 1 9.38-6.375c3.66-1.583 7.66-2.375 12-2.375 1.75 0 3.58.167 5.5.5 2 .333 3.96.917 5.87 1.75 2 .833 3.96 2 5.88 3.5 1.91 1.417 3.71 3.25 5.37 5.5h.25v-9.75h8.25v58c0 3.167-.41 6.542-1.25 10.125-.75 3.583-2.29 6.875-4.62 9.875-2.25 3-5.42 5.5-9.5 7.5-4.09 2-9.42 3-16 3-5.84 0-11.04-.958-15.63-2.875-4.58-1.917-8.75-4.875-12.5-8.875l6.13-6.5zm117.41-45.5c0-5.583-1.66-10.083-5-13.5-3.33-3.5-8-5.25-14-5.25-2.66 0-5.25.542-7.75 1.625-2.5 1-4.7 2.375-6.62 4.125a22.8 22.8 0 0 0-4.5 6c-1.08 2.25-1.63 4.583-1.63 7h39.5zm-39.75 6.75c.25 2.917.96 5.667 2.13 8.25s2.71 4.833 4.62 6.75a22.423 22.423 0 0 0 6.63 4.375c2.5 1.083 5.21 1.625 8.12 1.625 4.42 0 8.21-1 11.38-3 3.25-2.083 5.71-4.458 7.37-7.125l6.38 5.25c-3.5 4.417-7.38 7.583-11.63 9.5-4.16 1.917-8.66 2.875-13.5 2.875-4.33 0-8.37-.75-12.12-2.25-3.67-1.583-6.83-3.75-9.5-6.5s-4.79-6-6.38-9.75c-1.5-3.75-2.25-7.833-2.25-12.25s.75-8.5 2.25-12.25 3.59-7 6.25-9.75c2.67-2.75 5.8-4.875 9.38-6.375 3.58-1.583 7.46-2.375 11.62-2.375 4.42 0 8.38.792 11.88 2.375s6.42 3.708 8.75 6.375c2.42 2.583 4.25 5.667 5.5 9.25 1.25 3.5 1.87 7.25 1.87 11.25V188h-48.75zm71.59-31.5c.16 1.583.25 3.167.25 4.75.08 1.5.12 3.042.12 4.625h.25c.92-1.583 2.09-3.042 3.5-4.375 1.42-1.333 3-2.458 4.75-3.375 1.75-1 3.59-1.75 5.5-2.25 2-.583 3.96-.875 5.88-.875 7.5 0 13.04 2 16.62 6 3.59 3.917 5.38 9.542 5.38 16.875V215h-8.25v-32.375c0-6.5-1.13-11.458-3.38-14.875-2.25-3.5-6.41-5.25-12.5-5.25-.41 0-1.58.167-3.5.5-1.91.333-3.96 1.25-6.12 2.75-2.09 1.5-3.96 3.75-5.63 6.75-1.66 3-2.5 7.167-2.5 12.5v30h-8.25v-45.625c0-1.583-.08-3.583-.25-6-.08-2.417-.21-4.708-.37-6.875h8.5z" fill="#fff"/></svg>