<svg width="21" height="21" fill="none" xmlns="http://www.w3.org/2000/svg"><g clip-path="url(#clip0_378_316)" fill="#3D3D3D" fill-opacity=".7"><path d="M10.5 21.08C4.665 21.08 0 16.383 0 10.5 0 4.777 4.729.08 10.484.08c5.82 0 10.516 4.713 10.5 10.58C21 16.367 16.255 21.064 10.5 21.08zM2.068 10.548c.016 4.729 3.783 8.48 8.496 8.464 4.569-.016 8.368-3.831 8.368-8.368 0-4.729-3.783-8.512-8.464-8.512-4.617.016-8.416 3.831-8.4 8.416z"/><path d="M9.522 9.57h1.972v6.188H9.522V9.57zm1.956-2.212H9.506V5.402h1.972v1.956z"/></g><defs><clipPath id="clip0_378_316"><path fill="#fff" d="M0 0h21v21H0z"/></clipPath></defs></svg>