<svg width="18" height="19" fill="none" xmlns="http://www.w3.org/2000/svg"><path d="M17.946 5.583c-.044-1.011-.196-1.702-.419-2.306a4.691 4.691 0 0 0-1.038-1.682A4.398 4.398 0 0 0 14.895.499C14.323.264 13.67.103 12.711.057 11.75.011 11.444 0 9 0S6.25.011 5.29.057 3.676.264 3.104.5c-.6.238-1.145.612-1.594 1.096A4.69 4.69 0 0 0 .472 3.277C.25 3.881.098 4.572.054 5.583.01 6.596 0 6.92 0 9.5s.01 2.904.054 3.917c.044 1.01.196 1.701.419 2.306.226.633.58 1.208 1.038 1.682.45.484.993.858 1.594 1.096.572.235 1.227.395 2.185.442.96.046 1.266.057 3.71.057s2.751-.011 3.71-.057c.959-.047 1.613-.207 2.185-.442 1.21-.493 2.165-1.502 2.633-2.778.222-.605.374-1.295.418-2.306C17.99 12.403 18 12.08 18 9.5s-.01-2.904-.054-3.917zm-1.62 7.756c-.04.926-.187 1.43-.31 1.764a3.068 3.068 0 0 1-1.708 1.803c-.317.13-.794.285-1.671.327-.95.046-1.234.055-3.637.055s-2.688-.01-3.637-.055c-.877-.042-1.354-.197-1.671-.327a2.779 2.779 0 0 1-1.035-.71 2.964 2.964 0 0 1-.673-1.093c-.123-.335-.27-.838-.31-1.764-.043-1.002-.052-1.302-.052-3.839s.009-2.837.052-3.839c.04-.926.187-1.43.31-1.764a2.96 2.96 0 0 1 .673-1.092c.29-.316.644-.559 1.035-.71.317-.131.794-.286 1.671-.328.95-.046 1.234-.055 3.637-.055s2.688.01 3.637.055c.877.042 1.354.197 1.67.327.392.153.745.395 1.036.71.299.307.529.68.673 1.093.123.335.27.838.31 1.764.043 1.002.052 1.302.052 3.839s-.009 2.837-.052 3.839z" fill="#fff"/><path d="M9 4.621c-2.552 0-4.622 2.184-4.622 4.879 0 2.694 2.07 4.878 4.622 4.878 2.553 0 4.622-2.184 4.622-4.878 0-2.695-2.07-4.879-4.622-4.879zm0 8.045c-1.657 0-3-1.418-3-3.167 0-1.748 1.343-3.166 3-3.166s3 1.418 3 3.166c0 1.75-1.343 3.167-3 3.167zm5.884-8.236c0 .629-.483 1.14-1.08 1.14-.596 0-1.08-.511-1.08-1.14 0-.63.484-1.14 1.08-1.14.597 0 1.08.51 1.08 1.14z" fill="#fff"/></svg>