<svg width="228" height="52" fill="none" xmlns="http://www.w3.org/2000/svg"><path d="M33.705 6.018c-.454.475-.835 1.017-1.219 1.556a3.33 3.33 0 0 1 1.309-.57c.153-.511.5-.91.909-1.235-.313.15-.653.236-.999.25zm-.84 1.92c-.168.123-.435.378-.716.566l.093.01c.074.006.148.006.223 0a1.55 1.55 0 0 1 .236 0 1.91 1.91 0 0 1 .532-.767c-.126.051-.25.118-.369.19zM9.588 7.473c.083.477.137 1.011.05 1.502.111.022.22.055.323.1.075.017.148.039.22.065-.208-.415-.316-.91-.486-1.667a.878.878 0 0 1-.122-.064.79.79 0 0 1 .015.064zm36.605.408a.258.258 0 0 1-.072.151c.007.27.078 1.032.025 1.644.023-.013.047-.025.072-.037-.126-.198.138-.524.217-.732.203-.584.346-1.21.298-1.826l-.046-.029c-.11.305-.322.558-.494.829zM9.842 10.309a.384.384 0 0 1 .27.17c.19-.017.379-.057.56-.12.092-.039.186-.085.28-.126-.243-.18-.467-.408-.743-.518-.174-.11-.52-.13-.714-.256-.073.166-.174.32-.296.452.01.115.049.225.11.322a.926.926 0 0 0 .151.108c.1-.024.204-.036.307-.037a.44.44 0 0 0 .075.005zm12-.256c-.052.12-.114.233-.188.34a.233.233 0 0 0 .02.034c.29.404.654.745.954 1.143a.804.804 0 0 0 .043.046 4.98 4.98 0 0 0-.153-.579c-.153-.426-.25-.87-.38-1.304a.97.97 0 0 1-.13-.027c-.048.118-.127.241-.166.342v.005zm17.886 1.253a1.758 1.758 0 0 1-.022.162c-.128.633-.35 1.264-.835 1.7.027.112.046.226.06.34a9.16 9.16 0 0 1 .19-.435c.41-.81.8-1.64 1.313-2.386a2.322 2.322 0 0 1-.227-.627c-.056.534-.25 1.044-.479 1.246zm-4.104-3.115c.618.043 1.05.819.732 1.37a.766.766 0 0 1-.064.064c.308.17.46.7.535 1.023.261.887-.317 1.673-.826 2.335.052.322.055.651.091.976.233-.585.508-1.151.69-1.756.334-.96.636-1.942.745-2.96-.314-.077-.5-.383-.653-.646-.299-.467-.359-1.04-.268-1.581-.116.085-.234.166-.354.256-.306.2-.658.317-1.022.34-.31.056-.649.149-.957.092.042.06.083.125.116.184.148.178.264.382.342.602.226-.183.501-.292.79-.312.034 0 .069.004.103.013zm1.085 5.612l-.194.482c.4-.266.774-.5.895-.646.206-.167.402-.348.585-.54a.251.251 0 0 1 .07-.054 2.08 2.08 0 0 1-.4-.616c-.07-.17-.156-.34-.232-.516a24.263 24.263 0 0 1-.725 1.89h.001zm-2.004-3.528a3.847 3.847 0 0 1-.633 1.494c.307 1.1.868 2.11 1.635 2.943a.299.299 0 0 1 .053.014l.007-.01c-.256-.374-.174-1.203-.25-1.568-.639-.476-.626-1.356-.585-2.083.01-.454.25-.843.566-1.144h-.055a2.27 2.27 0 0 1-.622-.166c-.03.176-.07.35-.12.52h.004zm14.396 3.842c-.072.194-.102.426-.24.586a.247.247 0 0 1 .08.22c.221.498.646.883.978 1.31.058-.643.042-1.29.042-1.935a2.35 2.35 0 0 1-.627-1.058c-.05.3-.13.593-.237.877h.004zm3.181 2.398a8.156 8.156 0 0 1-.702.316c.923.202 1.905.366 2.804 0 .035-.256.23-.547.32-.742.077-.131.167-.253.27-.364-.322.132-.796.34-1.127.189-.496.274-1.06.364-1.569.601h.004zm-45.64.786c.418-.637 1.29-1.098 1.82-1.52.393-.515.48-1.236.683-1.848-.162-.177-.34-.36-.506-.553a2.97 2.97 0 0 1-.564 1.237c-.167.194-.532.519-.738.216-.314.802-.675 1.61-.699 2.468h.004zm15.626-1.233a6.73 6.73 0 0 0-.733.473.291.291 0 0 1-.1.256c-.078.183-.16.372-.224.565.02-.012.038-.026.055-.039.31-.249.708-.226 1.063-.34 0-.012.006-.022.01-.033a.269.269 0 0 1-.048-.214 7.982 7.982 0 0 1 0-.692.317.317 0 0 1-.027.024h.004zm-18.974.076c.461.49.65 1.326 1.368 1.52.436.026.857-.103 1.286-.163.054-.01.117-.02.186-.027-.015-.044-.03-.09-.048-.132a.514.514 0 0 1-.167-.31c-.643-1.063-1.622-1.854-2.377-2.827a2.412 2.412 0 0 1-.891.137c.375.556.61 1.21.643 1.802zm15.31.82c.515.085.848.665 1.372.795.123.042.252.063.382.065-.205-.518-.406-1.04-.617-1.55-1.037.092-2.373-1.334-2.15-2.387.255-.607 1.35-.296 1.803-.085.475.23.73.756.818 1.264.037.29.175.686-.033.93.184.426.344.858.513 1.288.066-.193.153-.382.208-.554-.692-.69-.758-1.989.037-2.627.474-.335 1.503-.406 1.63.331 0 .127.008.275.01.427.154-.415.334-.875.771-.968a10.106 10.106 0 0 1-.21-1.199c-.554 0-1.085.22-1.64.265-.545.101-.807.181-1.267-.202a1.046 1.046 0 0 1-.91.398 2.78 2.78 0 0 1-1.648-.801c-.342-.327-.696-.674-.792-1.162-.066-.36.255-.667.526-.847.417-.262.944-.17 1.37.027.751.314 1.046 1.163 1.44 1.822.241.04.41.24.623.333.417-.035.834-.124 1.252-.195.096-.014.192-.034.286-.059l-.05-.028.007-.009a.112.112 0 0 0 .014-.077.315.315 0 0 0-.057-.104.797.797 0 0 0-.074-.1l.007.01a4.214 4.214 0 0 0-.077-.095l-.008-.01-.008-.01a.061.061 0 0 0-.007-.008l-.019-.022a4.009 4.009 0 0 1-.19-.24 2.486 2.486 0 0 0-.099-.123c-.032-.037-.058-.075-.087-.112-.03-.038-.042-.063-.064-.094-.022-.032-.046-.064-.07-.096a.847.847 0 0 0-.072-.1L21.477 11c-.016-.02-.031-.042-.049-.062l-.05-.056c-.023-.029-.043-.06-.067-.085l-.022-.027a1.437 1.437 0 0 1-.138-.264.789.789 0 0 1-.161 0 .59.59 0 0 0-.058-.02c-.02-.007-.041-.011-.063-.019l-.033-.012a1.318 1.318 0 0 0-.112-.06l-.076-.036-.031-.017c-.04-.027-.079-.057-.118-.085-.04-.029-.106-.069-.155-.108-.05-.04-.084-.064-.123-.093a1.362 1.362 0 0 1-.065-.046 9.036 9.036 0 0 0-.185-.17c-.258-.212-.543-.412-.711-.71a2.109 2.109 0 0 1-.102-.233 1.41 1.41 0 0 1-.103.714l.02.006-.013.03v.014a.056.056 0 0 1-.007.012l.005-.007c-.023.029-.049.055-.07.085l-.048.075-.03.034a.68.68 0 0 1-.056.05l-.017.012-.042.024-.029.014c-.03.012-.06.022-.09.035l-.05.022c-.617.31-1.283.007-1.778-.417-.1.074-.214.138-.29.2a1.475 1.475 0 0 1-1.041.268 1.567 1.567 0 0 1-.528-.11c-.329.104-.699.085-1.038.106a5.792 5.792 0 0 1-.877.019 5.2 5.2 0 0 0-.985.035.279.279 0 0 1-.059.247 17.758 17.758 0 0 0 3.207 5.252.582.582 0 0 1 .167-.385c.232-.168.51-.255.795-.25 1.035-.012 2.226 1.021 2.4 1.982h.003zm39.517-3.091c.124.241-.208.577-.245.835-.412 1.203-.204 2.62.44 3.7.007-.864.772-2.492 1.036-3.167l-.066-.085c-.239-.34-.5-.681-.56-1.108-.016-.34.028-.681.13-1.006-.23.291-.477.568-.738.83h.003zm3.805 3.462c-.785.628-1.646 1.135-2.517 1.619.482.066.973.213 1.456.18 1.753-.388 3.49-1.458 4.723-2.799a1.086 1.086 0 0 1-.071-.15c-.434.372-1.002.637-1.568.606a2.213 2.213 0 0 1-.924-.304c-.371.278-.733.57-1.102.848h.003zm-39.028-.314a.301.301 0 0 0-.07.08c0 .22-.206.34-.39.398-.197.085-.418.066-.616.125a2.553 2.553 0 0 0-.68.436.329.329 0 0 1-.08.091.248.248 0 0 1-.051.2 4.788 4.788 0 0 0 2.116 2.658c.61.381 1.318.499 1.989.72a29.4 29.4 0 0 1 2.563 1.2c.466.306.908.65 1.318 1.03.21.178.41.367.605.562-.752-1.15-1.548-2.272-2.282-3.432-1.232-1.534-2.441-3.232-3.251-5.079-.28.434-.815.682-1.174 1.01h.003zm8.577-7.978c-.328.754-.54 1.572-.714 2.386-.15.982.039 1.97.194 2.94a34.3 34.3 0 0 1 .557 6.221c-.084 1.317-.077 2.632-.062 3.95l.044-.134c.668-1.79 1.062-3.671 1.935-5.375.668-1.2 1.192-2.502 1.912-3.672a.66.66 0 0 1 .103-.192c-.275-.208-.46-.537-.68-.8-.56-.716-.928-1.566-1.183-2.437-.856-.462-1.23-1.79-1.028-2.889h-.144c-.174-.006-.348-.015-.521-.015a3.928 3.928 0 0 0-.415.017h.002zm-8.662 12.952c.942.546 2.004.776 2.983 1.22.66.256 1.2.746 1.837 1.051.6.274 1.24.528 1.832.852-.752-.741-1.526-1.496-2.471-1.965-.959-.439-1.892-.954-2.927-1.185a5.196 5.196 0 0 1-3.364-2.983c-.045-.161-.186-.397-.23-.605-.815-.091-1.184-.346-1.88-.898a3.657 3.657 0 0 1-1.579-.058c1.767 1.736 3.625 3.39 5.797 4.57l.002.001zm23.693-11.903c-1.068 1.127-2.035 2.351-2.976 3.6-.01.28-.12.546-.309.748-.146.149-.32.267-.51.35-.908 1.23-1.812 2.463-2.776 3.636-1.541 2.064-3.394 3.86-5.127 5.754-.328.347-.675.676-1.024 1.003 1.811-.885 3.924-1.649 4.374-1.837 2.088-.799 4.074-1.85 6.088-2.824 1.324-.62 2.664-1.283 3.718-2.332.255-.17 1.015-1.147 1.558-1.612-.148-.163-.27-.355-.417-.51-.227-.284-.477-.562-.628-.894l-.016-.008a3.984 3.984 0 0 1-1.196-.996c-.268-.437-.442-.975-.403-1.495.153-.558.293-1.323.867-1.576.64-.034 1.194.511 1.45 1.103a4.452 4.452 0 0 1 .026-.522c.14-.545.488-1.114.988-1.386a2.19 2.19 0 0 1-1.04-.035c-.358-.093-.902-.12-1.026-.547-.55.073-1.115.142-1.621.38zm-8.138 3.37a4.34 4.34 0 0 1-.433.41c-.562.563-1.296.883-1.886 1.407a1.124 1.124 0 0 0-.15.17c-.851 1.332-1.468 2.824-2.204 4.223-.815 1.86-1.356 3.83-1.971 5.772l.139.065a.283.283 0 0 1 .032.02c.057-.092.109-.187.154-.285.682-1.227 1.308-2.484 2.004-3.703a111.831 111.831 0 0 1 3.413-5.491c.205-.218.611-.982.996-1.353a1.349 1.349 0 0 1-.022-.445 3.373 3.373 0 0 0-.045-.825.259.259 0 0 1-.027.034zm.759 1.318a.414.414 0 0 1-.105.1.218.218 0 0 1-.026.03c-1.13 1.252-1.99 2.798-2.87 4.223-1.41 2.164-2.627 4.457-3.841 6.74l.018.013c.496-.511 1.117-1.017 1.236-1.182 1.62-1.558 3.09-3.27 4.629-4.905 1.335-1.527 2.538-3.178 3.747-4.822h-.152a1.347 1.347 0 0 1-.56-.178c-.172-.1-.32-.237-.435-.401-.537.15-1.174.014-1.641.377v.005zm-27.859-4.123a3.58 3.58 0 0 1-.885.319c.167.426.279.931.27 1.138.005.387-.64 1.88-1.013 1.94-.198.65-.334 1.353-.683 1.939-.386.53-2.254 1.33-2.003 2.13a.254.254 0 0 1 .05.346c.152.203.311.4.462.604 1.284 1.619 2.893 3.057 4.676 4.077 2.27.866 4.572 1.729 6.993 1.972 1.502.145 3.005.064 4.508.184 1.103.09 2.187.335 3.279.502.662.086 1.335.212 1.92.541.463-.333.302-.473.407-.745-.592-.346-1.252-.614-1.86-.878-1.161-.736-2.362-1.354-3.685-1.728-1.218-.5-2.318-1.24-3.404-1.985-3.515-2.843-7.078-6.045-8.73-10.41h-.021a.928.928 0 0 0-.28.054zm37.621 7.328c-1.146 1.3-2.633 2.188-4.184 2.897-1.509.719-2.983 1.506-4.52 2.164-1.632.749-3.307 1.38-4.972 2.04-.884.43-1.87.808-2.7 1.378a.27.27 0 0 1 .105.16c.182-.028.365-.048.546-.072a.228.228 0 0 1 .1-.022c.558-.375 3.16-.642 3.528-.774a46.492 46.492 0 0 1 6.968-1.337c2.385-.574 4.815-.95 7.196-1.54 2.388-.884 4.74-1.985 6.846-3.444.109-.126.24-.23.385-.31l.034-.018c-.545-.601-.881-1.392-1.012-2.222-.495.718-1.303 1.44-2.215 1.043-.225-.06-.574-.3-.57-.557a3.904 3.904 0 0 1-1.253.207 8.9 8.9 0 0 1-2.018-.314c-.334-.119-.7-.296-1.054-.17a.236.236 0 0 0 .048-.03c-.147.072-.267.054-.34-.007-.328.362-.818.759-.918.93v-.002zM31.381 39.941c-.118-.012-.2-.108-.268-.196-.194-.256-.418-.497-.619-.746-1.424-.063-.46-6.074-.692-7.275a8.016 8.016 0 0 1 .007-1.65c.022-.768.008-1.586.05-2.35a.234.234 0 0 1-.148-.05c-1.354-1.284-2.226-1.25-3.947-1.534-2.066-.465-4.175-.341-6.268-.468-2.627-.184-5.14-1.114-7.584-2.058a16.992 16.992 0 0 1-5.028-4.457c-.154-.285-.726-.767-.703-1.127 0-.013-.006-.024-.009-.037-.608.067-1.252.345-1.846.106-.676-.271-.962-1.002-1.364-1.556-1.414.403-2.922-.83-2.962-2.3.017-.349-.014-.93.25-1.174.327-.058.663-.029.975.085C.698 12.52.39 11.7.613 10.867c.113-.783 1.02-.61 1.555-.44.535.193.808.754 1.184 1.15.487.617.501 1.464.536 2.22.433.59.972 1.116 1.473 1.668-.13-.32-.253-.645-.368-.972-.173-.463-.354-.937-.373-1.443-.872-.313-1.425-2.33-1.185-3.185.126-.723.964-1.553 1.656-.972.457.393.79.904.874 1.52.112.597.245 1.232.057 1.828-.124.305-.5.996-.888.802.068.767.432 1.464.682 2.179.133.361.319.703.452 1.062.156-.588.41-1.154.618-1.724-.64-.743-1.002-1.866-.382-2.737.239-.363.563-.731 1.017-.766.289-.064.567-.16.763.14l.039.049c.152-.263.36-.488.607-.66a.876.876 0 0 1-.164-.29c-.527.14-.918-.365-1.151-.78a2.297 2.297 0 0 1-.189-1.85 3.264 3.264 0 0 1-.708-.78c-.618.145-1.085-.17-1.295-.766-.23-.442-.468-.888-.474-1.402-.011-.459-.05-.973.213-1.37.966-1.075 2.296.292 2.505 1.363.067.582.124 1.688-.44 2.02.135.158.278.307.428.449.076-.123.165-.237.265-.341.308-.324.717-.332 1.055-.157-.355-.723-.487-1.726-.372-2.3.118-.667.668-1.956 1.483-1.777.578.303.919 1.354.984 1.983.083.98.031 2.185-.875 2.758.284 1.218.294 1.597 1.014 2.25a1.66 1.66 0 0 0-.029-.077c-.512-1.335-.025-3.152 1.085-4.033-.35-.956.513-2.032 1.153-2.658.63-.447 1.524-.84 2.255-.407.166.119.436.188.484.419a.295.295 0 0 1-.105.26 3.051 3.051 0 0 1-.573 1.124c-.695.767-1.579 1.6-2.678 1.518-.86.534-1.24 1.57-1.316 2.561-.029.427.097.83.24 1.228a.807.807 0 0 1 .06-.052.114.114 0 0 0 .024.008h.015a.16.16 0 0 0 .027.006l.046.008c.047.007.094.007.14.01.047.003.077.008.115.011.037.003.083 0 .12.008l.116.01c.04 0 .084.008.121.01.084 0 .167.005.25.006h.021c.112.007.223.007.334 0 .537.005 1.073-.023 1.607-.085V9.4a.092.092 0 0 0 .022-.06v-.008c.016-.085.036-.17.057-.25.01-.042.022-.085.03-.127.01-.042.018-.08.031-.12l.076-.238v.01l.03-.085.101-.255a4.23 4.23 0 0 1 .112-.256c.04-.085.083-.155.122-.233.038-.079.083-.161.127-.24.026-.044.051-.085.083-.13l.084-.123c.058-.085.115-.17.18-.244l-.007.009.035-.042a.01.01 0 0 0 0-.004h.005c.07-.078.147-.15.227-.22l-.009.009a2.723 2.723 0 0 1 .394-.293 1.23 1.23 0 0 1 .135-.067c.1-.038.2-.075.301-.11.098-.034.197-.063.297-.085h-.001l.028-.007c.107-.021.215-.04.322-.05.045.016.09.028.137.038l.01.005a.828.828 0 0 1 .085.065l.03.075c.01.025.012.054.017.08.01.053.021.105.03.158v-.011.038c.002.062 0 .125-.006.187v-.012.01c0 .02-.004.042-.005.063a.21.21 0 0 0 0 .072v.007l-.015.01.03.017a.086.086 0 0 0 .048.031c.219.15.382.392.584.566.254.24.453.534.585.86a2.542 2.542 0 0 1 .075-1.041c.073-.326.197-.722.564-.794.327-.053.661-.02.972.094.15-.654.418-1.349 1.002-1.628.495-.327 1.042.697 1.265 1.052.207.426.22.908.2 1.372-.016.712.075 1.558-.486 2.09.206.691.38 1.394.597 2.08.068-.184.16-.366.208-.528.164-.473.294-.957.39-1.449a4.723 4.723 0 0 1-.5-3.197c.121-.652.315-1.43 1.001-1.673.48-.192 1.248-.4 1.552.17.15.59.19 1.204.116 1.809-.083.615-.456 1.129-.714 1.679-.208.49-.465.978-.937 1.25-.103.625-.308 1.22-.509 1.815.318-.155.706-.127.97-.386-.207-1.108.98-3.58 2.307-2.938.481.2.54.793.538 1.258.048.448-.189.841-.517 1.12-.224.237-1.94 1.351-2.16 1.09-.34.238-.774.21-1.125.434a1.337 1.337 0 0 0-.152.06.268.268 0 0 1-.118.192l.005.036a.242.242 0 0 1 .023.15c.072.472.173.938.3 1.398.492.2.56.767.44 1.322.774 1.99 1.989 3.805 3.34 5.438.892 1.279 1.67 2.635 2.604 3.888.12.219.255.437.392.657.085-.02.169-.045.25-.075-.135-2.184.195-4.42.018-6.597-.083-2.11-.602-4.166-.757-6.263-.008-1.27.412-2.517.877-3.68.045-.102.103-.197.173-.282l-.005-.01c-.323-.453-.691-.866-1.186-1.124-1.632.405-2.989-1.761-2.381-3.224.16-.266.52-.1.765-.086.596.07.995.521 1.326.99.435.54.661 1.225.636 1.924.253.137.484.313.685.522a4.569 4.569 0 0 1-.216-.752c-.102-.525-.303-1.031-.358-1.563-.969-.893-1.486-2.486-.718-3.679.176-.248.403-.805.736-.804.127.014.225.124.306.215.449.472.732 1.08.808 1.733.046.899.16 2.064-.585 2.698.151.64.3 1.273.485 1.902l.053.145a1.18 1.18 0 0 0 .01-.146c.03-1.175.264-2.335.693-3.426-.468-.778-.47-2.393.015-3.165.408-.802 1.724-.619 1.951.239.205.645.032 1.342-.222 1.947-.237.597-.752 1.033-1.313 1.293-.36.93-.56 1.916-.591 2.915a2.937 2.937 0 0 1-.026.31c.353-.522.738-1.018 1.154-1.487-.717-1.098.835-3.212 2.098-2.705.698.276.611 1.325.273 1.865a1.97 1.97 0 0 1-.38.497l.053-.032c.501-.25 2.072-1.03 2.31-.19.03.17.034.345.013.517h.007c.774.136.97 1.097.971 1.78.017.597-.242 1.164-.556 1.654-.01.108-.022.215-.035.322.148-.14.331-.234.53-.274a.448.448 0 0 1 .172 0c.132-.376.39-.786.74-.734.342.08.552.328.663.648v-.256c-.052-.634.07-1.278.52-1.747.293-.364 1.066-1.053 1.534-.721.377.457.77 1.085.696 1.71-.181 1.14-.757 2.336-1.895 2.727-.573.843-1.037 1.764-1.478 2.686a.347.347 0 0 1-.017.045c.22-.206.418-.376.501-.465.441-.438 1.014-.673 1.552-.957.035-.341.212-.651.325-.973a2.49 2.49 0 0 1 .594-.989c.384-.42 1.058-.767 1.58-.401.185.17.362.439.28.704-.256 1.214-1.086 1.927-2.294 1.988-.418.268-.898.432-1.31.711-.349.256-.65.571-.97.863.388-.057.791-.059 1.168-.17.465-.656 1.503-1.407 2.288-.874a.76.76 0 0 1 .136.12c.7-.917 1.42-1.815 2.187-2.67-.084-.147.047-.368.075-.544.102-.55.059-1.107.028-1.662a.894.894 0 0 1-.255-.085c-.638-.33-1.266-1.013-1.16-1.79.174-.71.473-1.629 1.206-1.895a2.7 2.7 0 0 1 .185-.856c.202-.413.466-1.211.978-1.25 1.434-.085 1.715 1.769 1.647 2.89-.05.701-.46 1.317-.977 1.76a4.822 4.822 0 0 1-.258 1.917c.192-.184.387-.363.584-.539.167-.094.395-.36.627-.567.036-.07.077-.136.105-.198.114-.264.216-.534.304-.808.052-.17.083-.341.123-.512a.273.273 0 0 1 .033-.085c.017-.286.198-.665.238-.859-.65-.907-.66-2.47-.034-3.39.364-.561 1.12-.858 1.71-.477.732.335.72 1.26.615 1.955-.166.937-.968 1.973-1.866 2.266-.118.192-.08.567-.208.755-.043.17-.129.532-.25.891.393-.194.75-.45 1.12-.688.168-1.077.816-2.15 1.806-2.62.875-.427 1.275-.778 1.81.303.347.641.16 1.42-.273 1.966-.367.522-.763 1.14-1.436 1.241-.482.073-1.526.184-1.711-.401-.488.357-1.024.629-1.554.913-.506.4-.987.825-1.45 1.27.314-.07.633-.11.953-.116.493-.79 1.503-1.094 2.365-1.214.43-.041 1.043-.076 1.115.496.184.88-.46 1.501-1.235 1.748 1.01-.051 1.445 1.306 1.226 2.183-.113.592-.734 1.62-1.236 1.917 0 .533.016 1.067-.015 1.6.207-.235.427-.458.507-.625.544-.788 1.04-1.626 1.68-2.338-.48-.912-.633-2.176.064-3.016.401-.435 1.122-1.082 1.73-.767.29.37.209.917.277 1.363.129.823-.278 1.585-.758 2.216-.297.407-.876.357-1.145.785-.727.981-1.373 2.02-2.14 2.969.53-.045 1.026-.288 1.504-.524.457-.207.961-.284 1.406-.528 0-.707 0-1.548.556-2.053.444-.407 1.169-.72 1.753-.482.281.17.781.596.464.943-.078.532-.395 1.05-.804 1.434.418-.179.885-.134 1.252.314.136.133.253.285.347.452a4.881 4.881 0 0 1 .293-1.68c.04-.081.076-.192.12-.3-.137-.176-.198-.417-.326-.597-.232-.394-.463-.852-.368-1.326.224-.882.896-2.223 1.725-2.628.483-.075.8.512.985.888.178.532.111 1.056-.088 1.55.101-.094.213-.175.334-.24.274-.076.46.233.634.398.77.852.367 2.471-.55 3.057-.335.938-.81 1.821-1.002 2.802a1.98 1.98 0 0 0 .237-.293c.597-.677 1.148-1.392 1.7-2.107.178-.151.462-.673.746-.976-.455-.732-.494-1.723-.21-2.536a2.912 2.912 0 0 1 1.253-1.555c.25-.08.477.17.622.34 1.347 1.315.109 4.157-1.188 4.006a1.05 1.05 0 0 1-.076.085c-.907 1.202-1.879 2.351-2.819 3.525a16.406 16.406 0 0 0 1.497-.885c.47-.314.932-.67 1.385-1.023.157-.075.387-.317.618-.498-.104-.495.325-1.133.563-1.514.469-.624 1.317-.67 2.027-.721.256-.016.61-.049.71.214.114-.149.252-.276.408-.379.45-.302 1.3-.784 1.818-.489.133.127.127.328.15.5.038.275.06.552.066.83.04.772-.479 1.386-1.071 1.795-.2.17-1.104.618-1.596.596-1.106 1.27-3.543 2.598-4.954 2.75-.304.028-.627-.039-.95-.107-.418-.085-.835-.17-1.205-.055-.129.1-.282.195-.418.281a.255.255 0 0 1-.1.14.246.246 0 0 1-.166.043.908.908 0 0 0-.05.044c-2.363 1.492-4.9 2.85-7.597 3.579-2.81.493-5.566 1.29-8.402 1.603-2.529.356-4.949 1.146-7.468 1.54-.25.007-.668.217-.962.21a.264.264 0 0 1-.107.091c-.371.119-.783.073-1.154.223-.108.042-.217.085-.325.13-.07.131-.137.263-.206.395a7.807 7.807 0 0 1-.237 1.89 42.19 42.19 0 0 0-.39 3.11c-.032.535.017 1.067.046 1.6.042.692-.034 1.396.084 2.08.11.538 1.037 3.483.199 3.483l.003.005z" fill="#2E2E2E"/><path d="M11.708 9.844c-.457-.177.01-.793.224-1.001.47-.518.918-1.073 1.508-1.449.29-.17.55.26.266.447-.396.256-.714.607-1.034.951-.194.245-.45.448-.606.721-.057.184-.123.38-.358.33z" fill="#2E2E2E"/><path d="M13.662 8.198c-.094-.024-.189-.05-.284-.072a.32.32 0 0 1-.223-.075.265.265 0 0 1 .16-.452c-.259-.91.132-2.094.795-2.741.212-.166.417-.442.706-.434.242.036.346.306.473.488.334.516.395 1.302.228 1.887-.175.678-1.138 1.582-1.855 1.399z" fill="#2E2E2E"/><path d="M14.595 5.213a.261.261 0 0 1-.168-.17.273.273 0 0 1 .034-.24c.064-.076.185-.18.241-.236.19-.17.311-.389.479-.574a2.73 2.73 0 0 0 .334-.705c.054-.155.046-.373.217-.447.094-.198.417-.243.507-.015.108.285.019.615-.114.877-.218.435-.53.807-.851 1.166-.167.186-.401.59-.68.344z" fill="#2E2E2E"/><path d="M15.835 3.387a.27.27 0 0 1-.104-.354l.009-.02c-.18-.13-.41-.174-.625-.208-.149-.01-.318.018-.448-.071a.266.266 0 0 1-.091-.297.265.265 0 0 1 .054-.095c.136-.147.418-.104.585-.103.373.027.778.208 1.002.519l-.01-.015-.006-.01c.205.242-.024.821-.366.654zm2.041 4.398a.256.256 0 0 1-.169-.098.267.267 0 0 1-.053-.19.837.837 0 0 0 .009-.079.305.305 0 0 1 .007-.34c0-.118-.01-.236-.027-.352-.126-.015-.25.115-.378.022-.381-.276.111-.645.425-.56.466.084.501.434.51.842-.059.255.071.768-.324.755zm4.274 4.581c-1.214-.347-2.362-1.022-3.133-2.062-.18-.21-.347-.43-.501-.66a.267.267 0 0 1 .013-.368c.348-.267.513.3.714.495.58.772 1.32 1.437 2.21 1.79.276.12.56.224.848.31.322.104.172.589-.152.495zm184.617 11.203a8.983 8.983 0 0 1 1.875-3.133 9.037 9.037 0 0 1 2.98-2.124 10.141 10.141 0 0 1 7.807 0 9.059 9.059 0 0 1 2.98 2.124 9.024 9.024 0 0 1 1.875 3.133c.854 2.484.854 5.19 0 7.674a9.03 9.03 0 0 1-1.875 3.132 9.056 9.056 0 0 1-2.98 2.112 10.114 10.114 0 0 1-7.807 0 9.03 9.03 0 0 1-2.98-2.112 9.005 9.005 0 0 1-1.875-3.133 11.773 11.773 0 0 1 0-7.673zm-2.787 8.924a12.14 12.14 0 0 0 2.555 4.013 11.397 11.397 0 0 0 3.949 2.637c1.603.64 3.311.96 5.033.944a13.035 13.035 0 0 0 5.011-.944 11.62 11.62 0 0 0 3.954-2.637 11.851 11.851 0 0 0 2.594-4.02 14.476 14.476 0 0 0 0-10.178 11.85 11.85 0 0 0-2.594-4.019 11.62 11.62 0 0 0-3.954-2.637 13.082 13.082 0 0 0-5.011-.944 13.266 13.266 0 0 0-5.033.944 11.462 11.462 0 0 0-3.949 2.636 12.149 12.149 0 0 0-2.555 4.013 14.433 14.433 0 0 0 0 10.178v.014zm-44.909 6.97h3.083V27.405a13.275 13.275 0 0 1 .648-4.357 8.82 8.82 0 0 1 1.746-3.08 6.915 6.915 0 0 1 2.618-1.827 8.67 8.67 0 0 1 3.213-.6c1.677 0 2.916.678 3.716 2.035.801 1.356 1.203 3.149 1.208 5.377v14.512h3.08V25.89c.007-.932.12-1.86.334-2.766a8.592 8.592 0 0 1 1.134-2.717 6.28 6.28 0 0 1 2.183-2.063c.93-.538 2.111-.807 3.545-.807 1.231 0 2.235.217 3.003.651a4.712 4.712 0 0 1 1.798 1.75c.442.765.746 1.604.899 2.478.173.938.26 1.892.258 2.847v14.198h3.087V25.108a19.04 19.04 0 0 0-.386-3.862 8.865 8.865 0 0 0-1.393-3.316 7.337 7.337 0 0 0-2.748-2.323c-1.166-.59-2.673-.886-4.52-.887a9.475 9.475 0 0 0-4.702 1.253c-1.489.835-2.61 2.158-3.363 3.968-.582-1.845-1.525-3.176-2.827-3.994a7.948 7.948 0 0 0-4.313-1.227 8.893 8.893 0 0 0-5.034 1.44c-1.437.958-2.464 2.098-3.082 3.42h-.151a8.212 8.212 0 0 1-.128-1.62c-.018-.833-.044-1.704-.076-2.608h-3.085c0 .312.016.756.051 1.331.035.576.058 1.192.077 1.853.018.661.041 1.313.076 1.957.035.645.051 1.192.051 1.652v17.319zm-13.458-32a2.33 2.33 0 0 0 2.983.338 2.39 2.39 0 0 0 .963-1.291 2.439 2.439 0 0 0-.066-1.619 2.387 2.387 0 0 0-1.063-1.207 2.33 2.33 0 0 0-1.577-.244c-.537.106-1.021.4-1.369.83-.348.43-.538.968-.538 1.525a2.282 2.282 0 0 0 .667 1.669zm3.185 7.884h-3.08v28.606a14.77 14.77 0 0 1-.13 1.983 4.744 4.744 0 0 1-.514 1.652 3 3 0 0 1-1.129 1.148 3.85 3.85 0 0 1-1.979.443 5.455 5.455 0 0 1-1.951-.418l-.464 2.767a6.865 6.865 0 0 0 2.464.472c1.371 0 2.492-.2 3.366-.6a5.045 5.045 0 0 0 2.09-1.697 6.528 6.528 0 0 0 1.046-2.622c.197-1.12.291-2.257.281-3.394v-28.34zm-31.95 10.018c.062-.599.2-1.186.411-1.749a9.63 9.63 0 0 1 1.394-2.637 9.216 9.216 0 0 1 2.645-2.4c1.112-.696 2.506-1.044 4.181-1.044a8.309 8.309 0 0 1 3.21.626c.971.393 1.86.968 2.62 1.697a8.069 8.069 0 0 1 1.747 2.479c.43.95.648 1.983.641 3.028h-16.849zm16.956 7.622a8.28 8.28 0 0 1-3.391 3.13 9.775 9.775 0 0 1-4.571 1.15c-1.817 0-3.298-.349-4.444-1.044a8.992 8.992 0 0 1-2.752-2.502 8.965 8.965 0 0 1-1.413-3 10.818 10.818 0 0 1-.385-2.523h19.939v-2.193a12.346 12.346 0 0 0-.721-4.124 10.865 10.865 0 0 0-2.132-3.628 10.547 10.547 0 0 0-3.484-2.559 11.311 11.311 0 0 0-4.813-.974 11.588 11.588 0 0 0-4.782.967 11.552 11.552 0 0 0-3.749 2.663 12.006 12.006 0 0 0-2.467 3.994c-.595 1.6-.891 3.3-.874 5.01a14.91 14.91 0 0 0 .848 5.142 11.585 11.585 0 0 0 2.439 4.013 11.073 11.073 0 0 0 3.803 2.636c1.565.647 3.241.968 4.931.944a13.941 13.941 0 0 0 5.83-1.199c1.762-.8 3.243-2.122 4.443-3.968l-2.255-1.935zM85 39.464h3.082v-12.06a13.3 13.3 0 0 1 .641-4.357 8.854 8.854 0 0 1 1.747-3.08 6.928 6.928 0 0 1 2.62-1.827 8.647 8.647 0 0 1 3.21-.6c1.24 0 2.241.217 3.006.652a4.744 4.744 0 0 1 1.798 1.749c.44.766.745 1.605.899 2.478.171.94.257 1.892.255 2.847v14.198h3.083V25.108a19.035 19.035 0 0 0-.377-3.862 8.773 8.773 0 0 0-1.393-3.316 7.32 7.32 0 0 0-2.748-2.323c-1.165-.59-2.671-.886-4.52-.887a8.876 8.876 0 0 0-5.043 1.44c-1.44.958-2.468 2.098-3.082 3.42h-.103V0H85v39.464z" fill="#2E2E2E"/></svg>