<svg width="217" height="52" fill="none" xmlns="http://www.w3.org/2000/svg"><path d="M43.85 7.835c-.59.618-1.086 1.323-1.586 2.026a4.331 4.331 0 0 1 1.702-.742c.2-.666.652-1.185 1.183-1.608a3.297 3.297 0 0 1-1.299.324zm-1.094 2.498c-.217.162-.564.494-.93.738l.12.013c.097.008.194.008.29 0a1.9 1.9 0 0 1 .308 0c.145-.386.384-.73.693-.998a3.524 3.524 0 0 0-.48.247zm-30.281-.602c.108.62.178 1.316.066 1.955.144.028.284.071.42.13.096.022.192.05.286.085-.271-.54-.412-1.186-.633-2.17a1.144 1.144 0 0 1-.159-.083c.008.027.014.054.02.083zm47.623.53a.336.336 0 0 1-.093.198c.009.351.101 1.343.031 2.14.03-.017.062-.034.095-.05-.164-.257.18-.68.282-.951.264-.761.45-1.577.388-2.377l-.06-.038c-.143.397-.419.725-.643 1.078zm-47.293 3.16a.5.5 0 0 1 .35.222 3.03 3.03 0 0 0 .729-.156c.12-.05.242-.11.364-.165-.316-.233-.607-.53-.966-.675-.226-.142-.676-.168-.929-.332a2.151 2.151 0 0 1-.386.589.942.942 0 0 0 .145.418c.06.053.126.1.195.14a1.8 1.8 0 0 1 .4-.047c.033.006.065.006.098.006zm15.612-.333c-.068.155-.15.304-.245.444a.3.3 0 0 0 .025.043c.378.526.852.97 1.242 1.488.017.02.036.04.056.06a6.461 6.461 0 0 0-.2-.754c-.198-.554-.326-1.134-.494-1.697a1.257 1.257 0 0 1-.168-.036c-.063.155-.165.314-.216.445v.007zm23.269 1.632a2.29 2.29 0 0 1-.028.21c-.168.824-.456 1.646-1.087 2.213.035.146.06.294.078.443.078-.19.16-.38.248-.567.534-1.053 1.04-2.135 1.708-3.106a3.026 3.026 0 0 1-.296-.815c-.073.694-.324 1.359-.623 1.622zm-5.34-4.056c.805.055 1.368 1.066.953 1.783a.98.98 0 0 1-.083.084c.4.222.598.912.695 1.331.34 1.155-.412 2.179-1.074 3.041.067.418.072.848.119 1.27.303-.76.661-1.499.897-2.286.434-1.25.827-2.529.97-3.853-.409-.101-.652-.5-.85-.842-.389-.607-.467-1.355-.35-2.058-.15.111-.303.216-.459.333-.399.26-.857.413-1.33.444-.402.072-.844.193-1.245.118.055.08.108.163.15.24.194.232.345.498.446.784.294-.239.652-.38 1.027-.406.045 0 .09.005.134.017zm1.412 7.306c-.083.209-.17.418-.252.628.52-.346 1.007-.652 1.165-.842.267-.217.522-.452.76-.702a.326.326 0 0 1 .09-.071 2.71 2.71 0 0 1-.52-.801c-.091-.222-.202-.444-.301-.672-.277.836-.6 1.657-.943 2.46h.001zm-2.607-4.593a5.009 5.009 0 0 1-.823 1.945 9.37 9.37 0 0 0 2.127 3.832.4.4 0 0 1 .068.018l.01-.014c-.333-.487-.227-1.565-.326-2.04-.83-.62-.813-1.766-.76-2.712.013-.591.326-1.097.736-1.49h-.072a2.953 2.953 0 0 1-.81-.215c-.037.228-.09.454-.155.676h.005zm18.73 5.001c-.095.253-.133.555-.312.764a.319.319 0 0 1 .102.287c.289.648.842 1.148 1.273 1.704.076-.836.055-1.678.055-2.518a3.06 3.06 0 0 1-.816-1.378c-.065.39-.168.772-.308 1.141h.005zm4.138 3.123c-.297.147-.602.292-.914.41 1.202.265 2.479.478 3.649 0 .044-.332.298-.712.416-.964.1-.171.217-.33.35-.475-.419.172-1.034.444-1.466.246-.645.357-1.378.474-2.04.783h.005zM8.642 22.524c.543-.83 1.677-1.43 2.367-1.978.511-.671.625-1.61.889-2.406-.21-.23-.443-.468-.658-.72a3.87 3.87 0 0 1-.735 1.61c-.217.252-.691.675-.96.281-.408 1.044-.877 2.097-.909 3.213h.006zM28.97 20.92a8.78 8.78 0 0 0-.954.616.381.381 0 0 1-.13.332c-.101.24-.209.485-.291.737l.071-.051c.402-.324.921-.294 1.383-.444 0-.014.008-.028.012-.042A.353.353 0 0 1 29 21.79c-.01-.301-.015-.603 0-.901a.426.426 0 0 1-.035.03h.006zm-24.686.099c.6.637.846 1.726 1.78 1.98.567.033 1.115-.136 1.673-.213.07-.012.153-.026.242-.036-.02-.057-.039-.116-.062-.172a.67.67 0 0 1-.217-.402c-.836-1.385-2.11-2.415-3.092-3.681a3.169 3.169 0 0 1-1.16.178c.487.724.795 1.576.836 2.346zm19.918 1.067c.67.11 1.104.866 1.785 1.036.16.054.328.082.497.084-.266-.674-.527-1.353-.802-2.019-1.35.121-3.087-1.736-2.798-3.106.332-.791 1.756-.386 2.346-.11.618.299.951.983 1.064 1.644.05.378.228.893-.042 1.212.239.554.448 1.117.667 1.676.086-.25.199-.497.27-.721-.899-.898-.986-2.59.05-3.42.616-.436 1.954-.53 2.118.431 0 .165.012.357.014.555.2-.54.435-1.138 1.004-1.26a13.189 13.189 0 0 1-.274-1.56c-.72 0-1.412.285-2.134.345-.708.13-1.05.235-1.648-.264a1.389 1.389 0 0 1-.53.408 1.36 1.36 0 0 1-.654.11 3.616 3.616 0 0 1-2.144-1.043c-.444-.425-.906-.876-1.03-1.512-.085-.47.332-.869.684-1.103.543-.341 1.228-.222 1.782.036.978.408 1.362 1.513 1.875 2.372.313.052.533.311.81.433.542-.046 1.085-.162 1.628-.254a3.7 3.7 0 0 0 .373-.076l-.065-.038.009-.011a.146.146 0 0 0 .018-.1.41.41 0 0 0-.074-.135 1.014 1.014 0 0 0-.097-.13l.01.012a5.482 5.482 0 0 0-.1-.124l-.01-.012-.011-.012a.079.079 0 0 0-.01-.011l-.024-.03a5.264 5.264 0 0 1-.247-.312 3.26 3.26 0 0 0-.129-.16c-.042-.049-.076-.098-.114-.146-.038-.05-.054-.081-.082-.122l-.09-.126a1.115 1.115 0 0 0-.095-.13l-.062-.07c-.02-.028-.04-.056-.063-.081-.023-.026-.044-.048-.065-.074-.03-.037-.056-.077-.087-.11l-.03-.035a1.87 1.87 0 0 1-.179-.344 1.02 1.02 0 0 1-.21 0 .805.805 0 0 0-.074-.027c-.027-.008-.055-.014-.083-.024l-.042-.016a1.75 1.75 0 0 0-.146-.078l-.099-.047-.04-.022c-.053-.036-.103-.074-.154-.111-.051-.037-.138-.089-.202-.14a5.105 5.105 0 0 0-.16-.12 1.786 1.786 0 0 1-.084-.06c-.082-.077-.161-.153-.242-.223-.334-.276-.706-.535-.924-.924a2.788 2.788 0 0 1-.132-.302 1.85 1.85 0 0 1-.134.93l.025.006-.016.04v.017a.074.074 0 0 1-.01.016l.006-.009c-.029.038-.063.072-.09.111-.027.039-.041.066-.063.098a.706.706 0 0 1-.038.044.864.864 0 0 1-.074.065l-.021.015-.055.032-.038.018-.117.045c-.022.01-.044.018-.066.03-.802.403-1.669.008-2.313-.544-.129.096-.278.18-.375.26a1.918 1.918 0 0 1-1.356.35 2.037 2.037 0 0 1-.687-.144c-.427.136-.909.11-1.35.138a7.54 7.54 0 0 1-1.141.025 6.764 6.764 0 0 0-1.282.046.365.365 0 0 1-.076.32 23.124 23.124 0 0 0 4.172 6.839.758.758 0 0 1 .217-.501 1.713 1.713 0 0 1 1.034-.327c1.347-.015 2.896 1.33 3.123 2.58h.003zm51.412-4.024c.161.314-.27.751-.319 1.087-.535 1.567-.265 3.412.574 4.818.008-1.126 1.003-3.245 1.347-4.123-.03-.037-.06-.077-.086-.111-.31-.444-.652-.888-.73-1.442-.02-.444.038-.888.17-1.31-.3.378-.62.74-.96 1.081h.004zm4.95 4.508c-1.02.817-2.14 1.477-3.275 2.107.628.086 1.267.278 1.895.236 2.28-.506 4.541-1.9 6.144-3.645a1.396 1.396 0 0 1-.092-.196c-.565.485-1.303.83-2.04.79a2.877 2.877 0 0 1-1.202-.396c-.483.361-.953.74-1.433 1.104h.003zm-50.775-.41a.397.397 0 0 0-.092.104c0 .288-.267.444-.507.518-.256.111-.543.087-.8.164a3.32 3.32 0 0 0-.886.568.427.427 0 0 1-.103.118.323.323 0 0 1-.067.261 6.233 6.233 0 0 0 2.753 3.46c.793.496 1.715.65 2.588.938 1.13.466 2.252.985 3.334 1.562.607.397 1.18.846 1.715 1.34.273.232.532.478.787.732-.978-1.498-2.014-2.958-2.969-4.469-1.602-1.997-3.176-4.208-4.23-6.612-.364.565-1.06.889-1.527 1.316h.004zm11.159-10.386c-.427.982-.704 2.047-.929 3.107-.194 1.277.05 2.565.252 3.828.487 2.67.73 5.382.725 8.098-.109 1.715-.1 3.427-.08 5.142l.057-.174c.869-2.33 1.382-4.78 2.517-6.998.869-1.56 1.55-3.257 2.487-4.78a.858.858 0 0 1 .135-.25c-.359-.27-.599-.7-.886-1.043-.727-.93-1.206-2.037-1.539-3.171-1.113-.601-1.599-2.33-1.337-3.761h-.187c-.227-.009-.453-.02-.678-.02-.18-.002-.36.005-.54.022h.003zm-11.27 16.863c1.226.71 2.608 1.01 3.882 1.588.858.333 1.56.97 2.39 1.368.78.356 1.614.688 2.383 1.11-.978-.966-1.985-1.949-3.216-2.559-1.247-.571-2.46-1.242-3.807-1.543-1.925-.535-3.601-1.997-4.376-3.883-.06-.21-.242-.518-.3-.788-1.06-.12-1.54-.45-2.445-1.169-.682.125-1.383.1-2.055-.075 2.299 2.26 4.716 4.413 7.542 5.948l.003.003zM60.503 13.14c-1.39 1.466-2.648 3.06-3.872 4.687a1.51 1.51 0 0 1-.401.974 2.11 2.11 0 0 1-.663.455c-1.183 1.6-2.358 3.207-3.613 4.733-2.005 2.689-4.415 5.027-6.67 7.492-.427.451-.879.88-1.333 1.306 2.357-1.153 5.105-2.147 5.692-2.392 2.715-1.04 5.3-2.409 7.92-3.676 1.722-.808 3.465-1.671 4.837-3.037.331-.222 1.32-1.493 2.027-2.098-.192-.213-.351-.462-.543-.665-.295-.369-.62-.73-.817-1.163l-.02-.011a5.184 5.184 0 0 1-1.556-1.296c-.349-.569-.576-1.27-.525-1.947.2-.725.382-1.721 1.128-2.05.834-.045 1.553.665 1.886 1.435-.002-.227.01-.454.034-.68.184-.71.636-1.45 1.285-1.804a2.842 2.842 0 0 1-1.353-.046c-.465-.12-1.173-.157-1.334-.712-.715.095-1.45.185-2.11.495zm-10.587 4.386a5.71 5.71 0 0 1-.564.536c-.731.732-1.686 1.148-2.453 1.83a1.467 1.467 0 0 0-.196.223c-1.107 1.733-1.91 3.676-2.867 5.497-1.06 2.422-1.765 4.987-2.564 7.514l.18.084a.398.398 0 0 1 .042.026c.075-.119.142-.243.2-.37.888-1.597 1.702-3.234 2.607-4.82 1.406-2.43 2.9-4.81 4.44-7.15.268-.283.797-1.277 1.297-1.761a1.758 1.758 0 0 1-.03-.58 4.39 4.39 0 0 0-.058-1.073.334.334 0 0 1-.035.044zm.987 1.716a.541.541 0 0 1-.137.13.288.288 0 0 1-.034.041c-1.47 1.629-2.588 3.642-3.734 5.497-1.835 2.817-3.417 5.803-4.996 8.775l.023.017c.646-.666 1.453-1.325 1.608-1.539 2.107-2.028 4.019-4.256 6.022-6.385 1.738-1.988 3.302-4.138 4.875-6.278h-.198a1.751 1.751 0 0 1-.728-.232 1.792 1.792 0 0 1-.566-.523c-.698.197-1.528.02-2.135.492v.005zM14.66 13.874a4.656 4.656 0 0 1-1.151.415c.217.555.361 1.213.35 1.482.007.504-.832 2.448-1.318 2.525-.257.848-.434 1.762-.887 2.525-.503.69-2.933 1.733-2.607 2.774a.33.33 0 0 1 .066.45c.197.264.404.521.6.785 1.67 2.108 3.764 3.98 6.083 5.309 2.954 1.127 5.948 2.25 9.098 2.567 1.955.19 3.91.084 5.866.24 1.434.118 2.844.437 4.265.654.861.111 1.738.275 2.498.704.603-.433.393-.616.53-.97-.77-.45-1.629-.799-2.42-1.143-1.51-.958-3.073-1.763-4.794-2.25-1.585-.652-3.016-1.614-4.428-2.584-4.574-3.701-9.21-7.87-11.359-13.552h-.027a1.205 1.205 0 0 0-.365.07zm48.945 9.54c-1.492 1.694-3.426 2.85-5.444 3.773-1.963.935-3.881 1.96-5.88 2.816-2.123.976-4.303 1.796-6.47 2.656-1.15.56-2.432 1.052-3.51 1.794.068.05.116.125.135.209.237-.037.475-.062.71-.093.04-.02.085-.03.13-.03.726-.488 4.112-.835 4.59-1.008a60.448 60.448 0 0 1 9.065-1.74c3.103-.747 6.264-1.236 9.362-2.005 3.107-1.15 6.167-2.584 8.906-4.483.143-.164.313-.301.502-.404l.044-.023c-.708-.783-1.146-1.813-1.317-2.893-.644.934-1.695 1.873-2.881 1.358-.294-.08-.746-.392-.742-.726a5.077 5.077 0 0 1-1.63.27 11.564 11.564 0 0 1-2.625-.409c-.434-.155-.911-.386-1.372-.221a.3.3 0 0 0 .063-.04c-.192.094-.347.07-.442-.008-.427.47-1.064.987-1.194 1.211v-.003zM40.826 52c-.153-.017-.26-.14-.348-.256-.252-.333-.544-.647-.805-.971-1.853-.082-.6-7.908-.9-9.472a10.442 10.442 0 0 1 .008-2.149c.03-.998.01-2.063.066-3.06a.304.304 0 0 1-.193-.064c-1.762-1.67-2.896-1.627-5.136-1.996-2.687-.605-5.43-.444-8.154-.61-3.418-.24-6.687-1.45-9.866-2.679a22.111 22.111 0 0 1-6.542-5.803c-.2-.37-.944-.998-.915-1.466 0-.017-.008-.032-.01-.05-.793.089-1.63.45-2.402.139-.88-.353-1.253-1.304-1.775-2.025-1.84.525-3.802-1.08-3.854-2.995.022-.454-.018-1.21.326-1.528a2.436 2.436 0 0 1 1.267.11c-.685-.827-1.086-1.894-.796-2.978.147-1.018 1.326-.794 2.024-.571.695.25 1.05.98 1.54 1.495.633.805.652 1.907.697 2.891.564.77 1.265 1.454 1.916 2.171a30.366 30.366 0 0 1-.479-1.264c-.224-.604-.46-1.22-.484-1.88-1.135-.407-1.854-3.033-1.542-4.146.164-.941 1.254-2.022 2.155-1.265.594.511 1.028 1.177 1.137 1.98.145.776.318 1.603.074 2.379-.161.397-.652 1.296-1.156 1.044.089.998.563 1.905.887 2.836.174.47.415.916.589 1.383.202-.765.532-1.503.804-2.245-.832-.967-1.304-2.43-.498-3.562.311-.474.734-.953 1.324-.998.375-.083.738-.208.992.183.018.02.035.04.051.063a2.7 2.7 0 0 1 .79-.86.887.887 0 0 1-.063-.078 1.141 1.141 0 0 1-.15-.3c-.687.183-1.195-.474-1.498-1.013a2.991 2.991 0 0 1-.245-2.408 4.248 4.248 0 0 1-.922-1.017c-.804.189-1.412-.221-1.684-.998-.299-.575-.61-1.156-.617-1.825-.015-.597-.064-1.267.277-1.784 1.257-1.399 2.987.38 3.258 1.775.088.758.162 2.198-.57 2.63.174.205.36.4.555.584.1-.16.215-.308.345-.444.4-.421.932-.431 1.372-.204-.461-.94-.633-2.247-.484-2.995.154-.868.869-2.546 1.93-2.313.752.395 1.195 1.763 1.28 2.582.108 1.275.04 2.845-1.139 3.59.37 1.587.384 2.08 1.32 2.93a2.058 2.058 0 0 0-.038-.1c-.666-1.738-.033-4.104 1.412-5.25-.455-1.245.667-2.646 1.5-3.461.82-.582 1.982-1.093 2.933-.53.217.155.568.244.63.545a.386.386 0 0 1-.137.338 3.966 3.966 0 0 1-.745 1.465c-.904.998-2.054 2.082-3.485 1.976-1.117.695-1.612 2.044-1.711 3.334-.037.555.127 1.08.311 1.598a.812.812 0 0 1 .08-.067c.01.005.02.008.031.01h.018a.2.2 0 0 0 .036.008l.06.01c.06.01.122.009.183.013.06.005.1.01.148.015.05.004.109 0 .156.01l.152.013c.052 0 .108.011.157.013.109 0 .217.007.326.008h.027c.145.008.29.008.435 0 .698.006 1.396-.03 2.09-.11v-.09a.12.12 0 0 0 .029-.09c.02-.111.047-.223.074-.326a4.41 4.41 0 0 0 .04-.165c.012-.054.023-.104.039-.155l.099-.31v.012l.039-.11.131-.333c.045-.111.093-.222.146-.333.053-.111.109-.202.159-.304.05-.102.108-.21.165-.312.033-.057.067-.11.108-.168l.109-.161c.076-.111.15-.222.235-.318l-.01.012.046-.055a.01.01 0 0 0 0-.005h.006a3.45 3.45 0 0 1 .295-.285l-.01.01a3.564 3.564 0 0 1 .513-.382c.056-.032.114-.061.174-.087.13-.05.26-.097.392-.143.127-.044.256-.082.387-.11h-.002l.037-.01c.138-.027.279-.05.419-.064.058.02.117.036.177.049l.013.007a1.077 1.077 0 0 1 .112.084c.014.032.027.064.039.097.012.034.015.07.022.106.013.068.027.135.039.204v-.014.05c.002.08 0 .162-.008.242V8.86v.012c0 .027-.005.054-.008.082a.272.272 0 0 0 0 .095v.008l-.02.014.04.02a.113.113 0 0 0 .063.042c.285.194.497.51.76.736.33.313.59.696.76 1.12a3.312 3.312 0 0 1 .098-1.356c.096-.424.257-.94.735-1.033.424-.069.86-.027 1.264.122.195-.852.543-1.756 1.303-2.119.644-.426 1.356.907 1.646 1.37.27.554.286 1.182.26 1.786-.02.927.097 2.029-.631 2.722.267.899.494 1.814.776 2.708.088-.24.208-.478.27-.69.213-.615.383-1.245.508-1.885a6.152 6.152 0 0 1-.652-4.162c.159-.849.41-1.862 1.303-2.178.625-.25 1.624-.52 2.02.222.195.768.246 1.567.15 2.354-.108.8-.592 1.47-.928 2.185-.272.638-.606 1.274-1.22 1.629-.133.813-.4 1.588-.661 2.362.414-.202.918-.165 1.26-.503-.269-1.442 1.277-4.66 3.003-3.825.626.262.702 1.033.7 1.639.061.583-.246 1.095-.673 1.457-.292.309-2.524 1.76-2.81 1.42-.443.31-1.007.272-1.464.565a1.735 1.735 0 0 0-.198.078.347.347 0 0 1-.153.25l.007.047c.03.06.04.129.03.195.094.614.224 1.222.39 1.82.64.26.729.998.572 1.721 1.007 2.592 2.588 4.954 4.345 7.08 1.161 1.664 2.173 3.43 3.388 5.061.156.285.332.57.51.857.11-.027.22-.06.326-.098-.176-2.844.254-5.755.023-8.59-.108-2.745-.783-5.422-.985-8.152-.01-1.655.537-3.278 1.142-4.793.058-.132.134-.255.224-.366l-.006-.012c-.42-.59-.9-1.128-1.544-1.465-2.123.527-3.888-2.293-3.097-4.197.207-.347.676-.13.995-.111.776.09 1.295.677 1.726 1.289a3.77 3.77 0 0 1 .826 2.504c.33.179.63.408.892.68a5.932 5.932 0 0 1-.28-.98c-.134-.683-.396-1.342-.466-2.035-1.261-1.162-1.934-3.236-.936-4.789.23-.323.525-1.048.959-1.047.165.019.293.162.398.28a3.926 3.926 0 0 1 1.05 2.256c.06 1.17.208 2.687-.76 3.513.197.834.391 1.657.63 2.477l.07.188c.008-.063.012-.127.014-.19.038-1.53.342-3.04.9-4.46-.608-1.013-.61-3.115.02-4.12.53-1.046 2.243-.807 2.538.31.266.84.041 1.747-.289 2.535-.308.777-.977 1.345-1.707 1.683a11.524 11.524 0 0 0-.77 3.795c-.004.135-.015.27-.033.403.458-.678.96-1.325 1.501-1.935-.933-1.43 1.086-4.181 2.73-3.522.908.36.795 1.725.354 2.428a2.58 2.58 0 0 1-.493.647l.068-.041c.652-.325 2.696-1.34 3.006-.247.038.221.044.448.016.672h.009c1.008.177 1.262 1.429 1.264 2.318.022.777-.315 1.516-.723 2.154-.014.14-.029.28-.046.419.193-.182.43-.306.689-.357a.581.581 0 0 1 .223 0c.173-.49.508-1.023.964-.955.445.104.718.426.862.843v-.333c-.067-.825.09-1.664.678-2.275.38-.474 1.386-1.37 1.994-.939.491.595 1.003 1.413.906 2.227-.236 1.484-.985 3.04-2.466 3.55-.745 1.098-1.349 2.297-1.922 3.497a.78.78 0 0 1-.022.058c.286-.267.543-.49.652-.604.573-.572 1.319-.877 2.018-1.248.047-.443.276-.847.424-1.265.154-.486.419-.927.772-1.288.5-.546 1.376-.999 2.056-.523.24.222.47.572.364.917-.334 1.58-1.412 2.509-2.985 2.589-.543.348-1.168.562-1.704.925-.453.333-.845.743-1.262 1.124.505-.075 1.03-.077 1.52-.222.605-.854 1.956-1.832 2.977-1.138a.98.98 0 0 1 .177.157 56.382 56.382 0 0 1 2.844-3.478c-.108-.19.062-.478.098-.706.134-.717.077-1.442.037-2.165a1.163 1.163 0 0 1-.332-.11c-.83-.431-1.647-1.32-1.51-2.33.227-.924.617-2.121 1.57-2.467.019-.383.1-.76.24-1.115.263-.538.606-1.577 1.273-1.628 1.865-.11 2.231 2.303 2.142 3.762-.064.914-.597 1.716-1.27 2.293a6.283 6.283 0 0 1-.336 2.495c.25-.239.503-.473.76-.701.217-.123.513-.47.815-.739.048-.09.1-.177.137-.257.149-.344.28-.695.395-1.053.067-.222.109-.444.16-.666a.357.357 0 0 1 .043-.11c.023-.373.258-.866.31-1.119-.846-1.181-.858-3.217-.045-4.413.474-.731 1.459-1.118 2.225-.621.953.436.938 1.64.801 2.545-.217 1.22-1.26 2.568-2.428 2.95-.154.25-.104.738-.27.982-.056.222-.168.694-.327 1.16.513-.252.978-.586 1.46-.894.216-1.404 1.06-2.8 2.348-3.413 1.138-.554 1.658-1.012 2.355.395.451.835.209 1.848-.356 2.56-.477.68-.993 1.484-1.868 1.616-.627.095-1.985.24-2.226-.523-.634.465-1.333.819-2.021 1.19-.66.52-1.285 1.073-1.886 1.652a6.294 6.294 0 0 1 1.24-.15c.64-1.028 1.955-1.425 3.076-1.581.56-.053 1.356-.099 1.45.647.24 1.146-.598 1.953-1.606 2.275 1.313-.067 1.88 1.7 1.595 2.842-.147.77-.955 2.108-1.608 2.495 0 .694.02 1.39-.02 2.083.27-.306.556-.595.66-.813.707-1.026 1.352-2.118 2.184-3.044-.624-1.188-.822-2.833.085-3.927.521-.566 1.46-1.408 2.25-.998.376.481.272 1.193.361 1.774.168 1.072-.361 2.064-.986 2.885-.387.53-1.14.465-1.49 1.023-.946 1.277-1.786 2.63-2.783 3.865.689-.06 1.334-.375 1.955-.682.595-.27 1.251-.37 1.83-.688 0-.92 0-2.015.723-2.673.577-.529 1.52-.937 2.28-.628.367.222 1.017.777.605 1.228-.103.694-.514 1.367-1.046 1.867.543-.233 1.15-.174 1.629.41.177.173.328.37.45.588a6.359 6.359 0 0 1 .382-2.188c.053-.105.099-.25.155-.39-.177-.229-.257-.543-.424-.777-.302-.514-.601-1.11-.477-1.726.29-1.15 1.165-2.894 2.244-3.421.627-.098 1.041.665 1.281 1.154.232.694.145 1.376-.115 2.02.132-.123.278-.228.435-.315.356-.097.597.304.825.52 1 1.11.477 3.217-.717 3.98-.434 1.22-1.053 2.37-1.303 3.648.115-.117.218-.245.31-.382.776-.88 1.492-1.813 2.21-2.743.232-.197.602-.877.97-1.27-.591-.954-.642-2.244-.272-3.302a3.79 3.79 0 0 1 1.63-2.025c.325-.104.62.222.809.444 1.753 1.71.142 5.412-1.546 5.214-.03.039-.063.076-.098.111-1.18 1.565-2.445 3.06-3.668 4.59a21.32 21.32 0 0 0 1.948-1.153 31.129 31.129 0 0 0 1.802-1.331c.204-.1.503-.414.803-.65-.134-.644.424-1.474.734-1.97.61-.813 1.713-.873 2.637-.94.332-.02.793-.063.923.28a2.19 2.19 0 0 1 .53-.493c.586-.394 1.693-1.021 2.366-.637.173.165.165.427.196.65.049.358.077.72.085 1.082.051 1.005-.623 1.803-1.393 2.336-.261.222-1.436.804-2.076.776-1.44 1.654-4.61 3.382-6.445 3.58-.396.037-.816-.05-1.237-.14-.544-.11-1.087-.221-1.568-.07-.167.13-.366.253-.543.366a.332.332 0 0 1-.131.183.32.32 0 0 1-.216.054l-.064.058c-3.075 1.942-6.374 3.71-9.884 4.66-3.656.642-7.241 1.679-10.931 2.086-3.29.464-6.438 1.492-9.716 2.006-.326.008-.869.281-1.251.271a.344.344 0 0 1-.14.12c-.483.154-1.018.095-1.5.29a20.21 20.21 0 0 0-.424.17c-.09.17-.178.342-.267.514-.002.83-.106 1.657-.309 2.46-.23 1.342-.378 2.695-.507 4.05-.042.696.022 1.389.06 2.082.054.901-.045 1.817.108 2.71.144.7 1.35 4.532.259 4.532l.004.008zm158.95-27.964a7.247 7.247 0 0 1 1.521-2.53 7.333 7.333 0 0 1 2.417-1.715 8.26 8.26 0 0 1 6.333 0c.913.4 1.735.984 2.418 1.715a7.266 7.266 0 0 1 1.52 2.53 9.486 9.486 0 0 1 0 6.198 7.286 7.286 0 0 1-1.52 2.53 7.347 7.347 0 0 1-2.418 1.706 8.237 8.237 0 0 1-6.333 0 7.33 7.33 0 0 1-2.417-1.706 7.266 7.266 0 0 1-1.521-2.53 9.473 9.473 0 0 1 0-6.198zm-2.261 7.209a9.787 9.787 0 0 0 2.073 3.24c.909.929 2 1.654 3.203 2.13 1.3.517 2.686.776 4.083.763a10.62 10.62 0 0 0 4.065-.763 9.427 9.427 0 0 0 3.207-2.13 9.55 9.55 0 0 0 2.104-3.246c1-2.647 1-5.574 0-8.22a9.55 9.55 0 0 0-2.104-3.247 9.428 9.428 0 0 0-3.207-2.13 10.657 10.657 0 0 0-4.065-.763 10.803 10.803 0 0 0-4.083.763 9.3 9.3 0 0 0-3.203 2.13 9.809 9.809 0 0 0-2.073 3.24 11.617 11.617 0 0 0 0 8.221v.012zm-36.429 5.63h2.5v-9.74a10.691 10.691 0 0 1 .526-3.52c.3-.918.782-1.765 1.417-2.488a5.603 5.603 0 0 1 2.123-1.476 7.057 7.057 0 0 1 2.606-.484c1.361 0 2.366.548 3.015 1.643.649 1.096.976 2.544.98 4.344v11.72h2.498V25.913a9.95 9.95 0 0 1 .272-2.234 6.89 6.89 0 0 1 .919-2.195 5.086 5.086 0 0 1 1.771-1.666c.754-.434 1.712-.652 2.876-.652.998 0 1.812.176 2.436.526.603.33 1.107.818 1.458 1.413.358.619.605 1.296.729 2.002.141.758.211 1.528.21 2.3v11.467h2.504V25.279a15.409 15.409 0 0 0-.313-3.119 7.143 7.143 0 0 0-1.131-2.678 5.944 5.944 0 0 0-2.229-1.876c-.946-.477-2.168-.716-3.666-.717-1.336 0-2.65.349-3.814 1.012-1.208.675-2.118 1.743-2.728 3.205-.473-1.49-1.237-2.565-2.293-3.226a6.473 6.473 0 0 0-3.499-.991 7.239 7.239 0 0 0-4.084 1.163c-1.165.774-1.999 1.695-2.5 2.762h-.122a6.589 6.589 0 0 1-.104-1.308c-.015-.672-.036-1.376-.062-2.106h-2.502c0 .252.013.61.041 1.075.028.465.047.963.062 1.497.015.534.034 1.06.062 1.58.029.52.042.963.042 1.335v13.988zm-10.917-25.847a1.895 1.895 0 0 0 2.419.273c.372-.245.648-.614.781-1.043a1.957 1.957 0 0 0-.053-1.307 1.928 1.928 0 0 0-.863-.975 1.893 1.893 0 0 0-1.278-.198 1.91 1.91 0 0 0-1.111.67 1.954 1.954 0 0 0-.436 1.232 1.845 1.845 0 0 0 .541 1.348zm2.583 6.368h-2.499v23.105a11.59 11.59 0 0 1-.105 1.601c-.056.467-.197.92-.416 1.335a2.435 2.435 0 0 1-.916.926 3.14 3.14 0 0 1-1.606.359 4.438 4.438 0 0 1-1.582-.338l-.377 2.235a5.591 5.591 0 0 0 1.999.381c1.112 0 2.022-.161 2.73-.484a4.096 4.096 0 0 0 1.696-1.371 5.26 5.26 0 0 0 .848-2.118 15 15 0 0 0 .228-2.742V17.396zm-25.917 8.091a5.68 5.68 0 0 1 .333-1.413 7.758 7.758 0 0 1 1.131-2.13 7.475 7.475 0 0 1 2.146-1.938c.902-.562 2.032-.843 3.391-.843a6.765 6.765 0 0 1 2.604.506 6.542 6.542 0 0 1 3.543 3.373 5.83 5.83 0 0 1 .52 2.445h-13.668zm13.754 6.156a6.705 6.705 0 0 1-2.751 2.528 7.953 7.953 0 0 1-3.708.929c-1.473 0-2.675-.281-3.604-.843a7.287 7.287 0 0 1-3.379-4.444 8.726 8.726 0 0 1-.312-2.038h16.174v-1.771a9.944 9.944 0 0 0-.584-3.33 8.776 8.776 0 0 0-1.73-2.931 8.56 8.56 0 0 0-2.826-2.067 9.212 9.212 0 0 0-3.905-.787 9.435 9.435 0 0 0-3.879.782 9.38 9.38 0 0 0-3.041 2.15 9.684 9.684 0 0 0-2.001 3.226 11.242 11.242 0 0 0-.709 4.047 12.002 12.002 0 0 0 .688 4.153 9.356 9.356 0 0 0 1.978 3.24 8.997 8.997 0 0 0 3.085 2.13c1.269.523 2.63.782 4 .763 1.627.02 3.239-.31 4.729-.969 1.43-.645 2.631-1.714 3.605-3.205l-1.83-1.563zM101 36.875h2.5v-9.74a10.715 10.715 0 0 1 .52-3.52 7.157 7.157 0 0 1 1.417-2.488 5.622 5.622 0 0 1 2.126-1.476 7.037 7.037 0 0 1 2.604-.484c1.005 0 1.817.175 2.438.526a3.84 3.84 0 0 1 1.458 1.413 6.11 6.11 0 0 1 .729 2.002c.14.758.209 1.528.208 2.3v11.467h2.5V25.279a15.334 15.334 0 0 0-.305-3.119 7.07 7.07 0 0 0-1.131-2.678 5.919 5.919 0 0 0-2.229-1.876c-.944-.477-2.167-.716-3.666-.717a7.223 7.223 0 0 0-4.091 1.163c-1.168.774-2.002 1.695-2.5 2.762h-.083V5H101v31.875z" fill="#2E2E2E"/></svg>